<?xml version="1.0" encoding="UTF-8"?><svg id="Capa_1" xmlns="http://www.w3.org/2000/svg" viewBox="0 0 500 500"><defs><style>.cls-1{fill:none;}.cls-2{fill:#5757f7;}</style></defs><polygon class="cls-1" points="254.8 145.04 365.32 208.85 365.32 82.1 254.8 18.29 254.8 145.04"/><path class="cls-1" d="M132.07,223.16v134.16l116.19,67.08,116.19-67.08V223.16l-116.19-67.08-116.19,67.08Zm123.56-28.24l-.8,91.08,79.28,44.84c2.09,1.18,3.26,3.35,3.26,5.59,0,1.07-.27,2.15-.83,3.15-1.74,3.08-5.66,4.17-8.74,2.43l-79.38-44.9-77.73,44.88c-1.01,.58-2.11,.86-3.2,.86-2.22,0-4.37-1.15-5.56-3.21-1.77-3.07-.72-6.99,2.35-8.76l77.73-44.88,.8-91.19c.03-3.54,2.96-6.35,6.47-6.36,3.54,.03,6.39,2.93,6.36,6.47Z"/><polygon class="cls-1" points="378.15 207.98 480.76 148.74 378.15 89.5 378.15 207.98"/><path class="cls-2" d="M496.79,143.19l-120.31-69.46c-.44-.48-.95-.91-1.54-1.25L252.09,1.63c-.99-.57-2.06-.82-3.12-.83-1.3-.12-2.63,.15-3.79,.82-1.98,1.15-3.21,3.26-3.21,5.56V144.9l-119.52,69c-1.98,1.15-3.21,3.26-3.21,5.56v141.57c0,2.29,1.22,4.41,3.21,5.56l122.6,70.78c.99,.57,2.1,.86,3.21,.86s2.22-.29,3.21-.86l122.6-70.78c1.98-1.15,3.21-3.26,3.21-5.56V223.3l119.52-69c1.99-1.15,3.21-3.26,3.21-5.56s-1.22-4.41-3.21-5.56Zm-132.35,214.14l-116.19,67.08-116.19-67.08V223.16l116.19-67.08,116.19,67.08v134.16Zm.87-148.48l-110.52-63.81V18.29l110.52,63.81v126.75Zm12.83-.87V89.5l102.61,59.24-102.61,59.24Z"/><path class="cls-2" d="M242.8,194.81l-.8,91.19-77.73,44.88c-3.07,1.77-4.12,5.69-2.35,8.76,1.19,2.06,3.34,3.21,5.56,3.21,1.09,0,2.19-.28,3.2-.86l77.73-44.88,79.38,44.9c3.08,1.75,7,.66,8.74-2.43,.56-1,.83-2.08,.83-3.15,0-2.24-1.17-4.41-3.26-5.59l-79.28-44.84,.8-91.08c.03-3.54-2.82-6.44-6.36-6.47-3.51,.01-6.44,2.82-6.47,6.36Z"/></svg>