<?xml version="1.0" encoding="UTF-8"?><svg id="Capa_1" xmlns="http://www.w3.org/2000/svg" viewBox="0 0 500 500"><defs><style>.cls-1{fill:none;}.cls-2{fill:#5757f7;}</style></defs><polygon class="cls-1" points="218.62 302.54 230.38 295.73 230.38 275.22 200.83 292.28 218.62 302.54"/><polygon class="cls-1" points="179.99 188.49 170.1 182.78 170.1 211.7 179.99 217.6 179.99 188.49"/><polygon class="cls-1" points="192.84 225.26 230.38 247.63 230.38 217.58 192.84 195.91 192.84 225.26"/><path class="cls-1" d="M218.62,316.38c-1.11,0-2.22-.29-3.21-.86l-27.43-15.82-107.27,61.93c-1.01,.58-2.12,.86-3.21,.86-2.22,0-4.38-1.15-5.57-3.21-1.77-3.07-.72-7,2.35-8.78l100.84-58.22L51.55,221.01c-3.07-1.77-4.13-5.7-2.35-8.77,1.77-3.07,5.69-4.13,8.77-2.36l130.01,74.98,40.53-23.4-35.67-21.26v21.34c0,3.55-2.88,6.42-6.42,6.42s-6.42-2.88-6.42-6.42v-29l-19.61-11.68c-1.95-1.16-3.14-3.26-3.14-5.52v-40l-43.22-24.95L-2.33,217.58v134.35l116.35,67.18,51.43-29.69-47.9-27.62c-3.07-1.77-4.13-5.7-2.35-8.77,1.77-3.07,5.69-4.13,8.77-2.36l54.33,31.33,52.07-30.06v-41.36l-8.54,4.94c-1,.58-2.11,.86-3.22,.86Z"/><path class="cls-1" d="M269.62,147.72v125.28l27.89-16.15c3.07-1.78,7-.73,8.78,2.34,1.78,3.07,.73,7-2.34,8.78l-29.33,16.99,82.27,47.5v-47.7c0-3.55,2.88-6.42,6.42-6.42s6.42,2.88,6.42,6.42v55.12l16.24,9.38,29.42-16.99V168.19c0-3.55,2.88-6.42,6.42-6.42s6.42,2.88,6.42,6.42v156.65l74.08-42.77V147.72l-116.35-67.18-116.35,67.18Zm54.79,113.84c0,3.55-2.88,6.42-6.42,6.42s-6.42-2.88-6.42-6.42v-94.51c0-3.55,2.88-6.42,6.42-6.42s6.42,2.88,6.42,6.42v94.51Z"/><path class="cls-2" d="M511.96,138.45l-122.78-70.88c-1.99-1.15-4.44-1.15-6.42,0l-122.78,70.88c-1.99,1.15-3.21,3.27-3.21,5.56v136.43l-13.55,7.85v-20.48l1.19-.69c1.97-1.14,3.2-3.24,3.21-5.52,.02-2.28-1.18-4.4-3.14-5.56l-1.26-.75v-41.41c0-2.3-1.22-4.42-3.21-5.56l-47.18-27.24v-10.32l78.64-45.4c3.07-1.77,4.13-5.7,2.35-8.78-1.77-3.07-5.7-4.12-8.78-2.35l-81.85,47.26c-1.99,1.15-3.21,3.27-3.21,5.56v6.61l-9.89-5.71v-47.63c0-3.55-2.88-6.42-6.42-6.42s-6.42,2.88-6.42,6.42v40.21l-40.01-23.1c-1.99-1.15-4.44-1.15-6.42,0L-11.96,208.31c-1.99,1.15-3.21,3.27-3.21,5.56v141.77c0,2.3,1.22,4.42,3.21,5.56l122.78,70.88c.99,.57,2.1,.86,3.21,.86s2.22-.29,3.21-.86l61.07-35.26,61.74,35.61c1.01,.58,2.12,.86,3.2,.86,2.22,0,4.38-1.15,5.57-3.22,1.77-3.07,.72-7-2.35-8.77l-55.31-31.9,48.85-28.21c1.99-1.15,3.21-3.27,3.21-5.56v-52.51l18.56-10.75,95.1,54.91v79.39c0,3.55,2.88,6.42,6.42,6.42s6.42-2.88,6.42-6.42v-71.97l13.03,7.52c.99,.57,2.1,.86,3.21,.86s2.22-.29,3.21-.86l26.21-15.13v10.12c0,3.55,2.88,6.42,6.42,6.42s6.42-2.88,6.42-6.42v-17.54l83.72-48.33c1.99-1.15,3.21-3.27,3.21-5.56V144.01c0-2.3-1.22-4.42-3.21-5.56Zm-341.87,44.33l9.89,5.71v29.11l-9.89-5.9v-28.93Zm60.28,169.16l-52.07,30.06-54.33-31.33c-3.08-1.77-7-.72-8.77,2.36-1.77,3.07-.72,7,2.35,8.77l47.9,27.62-51.43,29.69L-2.33,351.93V217.58l116.35-67.18,43.22,24.95v40c0,2.26,1.19,4.36,3.14,5.52l19.61,11.68v29c0,3.55,2.88,6.42,6.42,6.42s6.42-2.88,6.42-6.42v-21.34l35.67,21.26-40.53,23.4L57.97,209.88c-3.08-1.78-7.01-.72-8.77,2.36-1.77,3.07-.72,7,2.35,8.77l123.58,71.27-100.84,58.22c-3.07,1.77-4.13,5.7-2.35,8.78,1.19,2.06,3.35,3.21,5.57,3.21,1.09,0,2.19-.28,3.21-.86l107.27-61.93,27.43,15.82c.99,.57,2.1,.86,3.21,.86s2.22-.29,3.22-.86l8.54-4.94v41.36Zm0-56.21l-11.76,6.81-17.78-10.26,29.55-17.06v20.5Zm0-48.1l-37.54-22.37v-29.35l37.54,21.67v30.05Zm271.95,34.44l-74.08,42.77V168.19c0-3.55-2.88-6.42-6.42-6.42s-6.42,2.88-6.42,6.42v164.07l-29.42,16.99-16.24-9.38v-55.12c0-3.55-2.88-6.42-6.42-6.42s-6.42,2.88-6.42,6.42v47.7l-82.27-47.5,29.33-16.99c3.07-1.78,4.12-5.71,2.34-8.78-1.78-3.07-5.71-4.12-8.78-2.34l-27.89,16.15v-125.28l116.35-67.18,116.35,67.18v134.35Z"/><path class="cls-2" d="M317.99,160.62c-3.55,0-6.42,2.88-6.42,6.42v94.51c0,3.55,2.88,6.42,6.42,6.42s6.42-2.88,6.42-6.42v-94.51c0-3.55-2.88-6.42-6.42-6.42Z"/></svg>