<?xml version="1.0" encoding="UTF-8"?><svg id="Capa_1" xmlns="http://www.w3.org/2000/svg" viewBox="0 0 500 500"><defs><style>.cls-1{fill:#5757f7;}</style></defs><path class="cls-1" d="M375.99,185.54l-61.36-35.43c-1.99-1.15-4.44-1.15-6.42,0l-61.32,35.4-113.2,64.82v-7.62s119.61-69.06,119.61-69.06l61.33-35.41c1.99-1.15,3.21-3.27,3.21-5.56s-1.22-4.42-3.21-5.56l-61.33-35.41s-.04-.02-.05-.03c-.02-.01-.03-.02-.05-.04-1.99-1.13-4.42-1.13-6.4,.01l-122.78,70.88c-1.99,1.15-3.21,3.27-3.21,5.57l.06,140.37c-.04,.28-.06,.57-.06,.86v.54c0,.29,.02,.57,.06,.85v22.19c0,.26,.03,.52,.06,.78,0,.07,.02,.14,.03,.21,.03,.2,.07,.39,.12,.58,.02,.06,.03,.13,.05,.19,.14,.5,.34,.97,.59,1.41,.03,.05,.07,.11,.1,.16,.1,.17,.21,.33,.32,.48,.04,.06,.08,.11,.13,.17,.16,.2,.32,.39,.5,.56,.01,.01,.03,.02,.04,.04,.17,.17,.35,.32,.54,.47,.05,.04,.11,.08,.17,.12,.17,.13,.35,.25,.54,.35,.03,.02,.05,.04,.08,.05l.11,.06s0,0,0,0l122.66,69.79c.99,.56,2.08,.84,3.18,.84s2.23-.29,3.23-.87c1.98-1.15,3.19-3.27,3.19-5.55v-18.34l119.5-68.99c1.99-1.15,3.21-3.27,3.21-5.56v-118.77c0-2.29-1.22-4.42-3.21-5.56Zm-77,111.52l-42.51,24.54v-8.16l35.43-20.46,7.07,4.08Zm67.36-38.89l-34.58,19.96-7.07-4.08,41.65-24.05v8.16Zm0,14.84v25.07l-21.73-12.53,21.73-12.54Zm-54.5,8.47l7.07,4.08-7.08,4.09-7.07-4.08,7.08-4.09Zm-55.34-86.68l54.91-31.7,54.94,31.72v40.36l-57.72,33.32-16.72,9.65-35.41-20.42v-62.93Zm0-37.84v-48.57l42.06,24.29-42.06,24.29Zm-12.85-48.66v56.08l-109.99,63.5-.02-56.07,110.01-63.51Zm-109.92,156.81l109.92-62.94v55.52l-109.94,63.47,.02-56.05Zm109.9,126.62l-103.94-59.14,110.35-63.75,29.02,16.74-32.21,18.6c-1.99,1.15-3.21,3.27-3.21,5.56v81.99Zm12.85-22.13v-33.15l58.57-33.81s0,0,0,0l16.72-9.65,28.73,16.57-104.02,60.05Z"/></svg>