<?xml version="1.0" encoding="UTF-8"?><svg id="Capa_1" xmlns="http://www.w3.org/2000/svg" viewBox="0 0 500 500"><defs><style>.cls-1{fill:#5757f7;}</style></defs><path class="cls-1" d="M453.45,306.86l-.02-113.77,.02-57.21c0-1.85-.99-3.56-2.59-4.49-1.61-.93-3.58-.93-5.19,0l-24.26,14.01-22.23,12.83-46.61-26.91s-.03-.02-.04-.03c-.01,0-.02-.01-.03-.02-1.6-.92-3.57-.92-5.17,0l-47.36,27.34-39.54-22.83-5.13-2.96V21.54c0-1.86-.99-3.57-2.6-4.5l-.11-.06c-1.6-.92-3.58-.92-5.17,0l-99.71,57.56-18.46,10.66-80.02,46.2c-1.6,.93-2.59,2.64-2.59,4.49v4.32s0,0,0,0h0s-.02,51.47-.02,51.47h0v.27l-.06,172.74c0,.85,.22,1.66,.6,2.39,0,.02,.02,.03,.02,.05,.07,.14,.15,.27,.24,.4,.04,.06,.08,.12,.12,.18,.07,.1,.14,.2,.22,.29,.07,.09,.15,.17,.22,.25,.06,.07,.13,.14,.19,.2,.12,.12,.25,.23,.39,.33,.03,.02,.06,.05,.09,.08,.16,.12,.33,.24,.51,.34l.83,.48c.8,.46,1.7,.7,2.59,.7s1.81-.24,2.62-.71l47.75-28,40.09,23.15s0,0,0,0l6.76,3.9c.8,.46,1.7,.69,2.59,.69s1.79-.23,2.59-.69l35.83-20.69,10.73-6.19,44.05,25.43v111.25c0,1.85,.99,3.56,2.59,4.49,.8,.46,1.7,.69,2.59,.69s1.79-.23,2.59-.69l197.38-113.96c1.6-.93,2.59-2.64,2.59-4.49v-32.78s.02-24.17,.02-24.17c0-.02,0-.04,.01-.06,.02-.13,.02-.27,.03-.4,0-.09,.02-.18,.02-.27v-.02h0Zm-12.99,21.79c-.96,.27-1.92,.53-2.87,.78-.61,.16-1.22,.32-1.82,.47-.94,.24-1.88,.46-2.82,.68-.58,.14-1.16,.27-1.73,.4-1.01,.23-2.01,.44-3,.64-.48,.1-.96,.2-1.44,.3-2.93,.57-5.8,1.06-8.63,1.44-.45,.06-.89,.11-1.34,.17-.96,.12-1.93,.24-2.88,.34-.35,.04-.7,.07-1.04,.1l30.13-17.93v11.88c-.25,.07-.51,.15-.76,.22-.6,.17-1.2,.34-1.8,.5Zm-62.73,13.95l-.75,.43,.2-.38c.03-.05,.05-.1,.08-.15,.02,0,.03,0,.05,0,.14,.03,.28,.06,.42,.09Zm-53.18,61.49c-.37,.45-.74,.9-1.11,1.36-1.52,1.85-3.06,3.7-4.6,5.51-.07,.08-.14,.15-.21,.23-1.12,1.24-2.25,2.48-3.4,3.72-.41,.44-.83,.87-1.24,1.31-.83,.88-1.66,1.75-2.5,2.63-.49,.5-.98,1-1.47,1.5-.79,.81-1.58,1.61-2.38,2.41-.52,.52-1.05,1.04-1.58,1.56-.79,.78-1.59,1.56-2.39,2.33-.54,.52-1.08,1.04-1.63,1.56-.81,.77-1.63,1.54-2.45,2.31-.54,.51-1.08,1.01-1.63,1.52-.85,.78-1.71,1.56-2.57,2.34-.53,.48-1.06,.96-1.59,1.43-.92,.82-1.85,1.63-2.78,2.45-.48,.42-.96,.84-1.44,1.26-1.13,.97-2.26,1.93-3.4,2.89-.29,.25-.58,.5-.88,.75-1.45,1.21-2.91,2.41-4.37,3.59-.29,.23-.57,.46-.86,.69-1.17,.94-2.34,1.87-3.52,2.79-.51,.4-1.02,.79-1.54,1.19-.96,.74-1.92,1.48-2.88,2.21-.58,.44-1.17,.88-1.75,1.31-.9,.67-1.8,1.34-2.7,1.99-.62,.45-1.23,.9-1.85,1.34-.88,.63-1.75,1.26-2.63,1.87-.63,.44-1.26,.88-1.89,1.32-.88,.61-1.76,1.21-2.63,1.8-.62,.42-1.25,.85-1.87,1.26-.27,.18-.54,.36-.82,.54v-91.34c.23,.07,.45,.14,.68,.21,.96,.3,1.92,.59,2.87,.88,1.58,.49,3.16,.97,4.72,1.44,1.02,.3,2.03,.6,3.05,.9,1.48,.43,2.96,.86,4.42,1.28,1.03,.29,2.06,.58,3.09,.87,1.44,.4,2.87,.79,4.29,1.18,1.02,.27,2.04,.55,3.05,.81,1.43,.38,2.84,.74,4.26,1.1,.99,.25,1.98,.5,2.96,.75,1.46,.36,2.91,.71,4.35,1.05,.92,.22,1.84,.44,2.75,.66,1.58,.37,3.16,.72,4.73,1.07,.76,.17,1.53,.35,2.29,.51,2.32,.5,4.64,.99,6.94,1.45,.92,.23,1.8,.5,2.65,.79,.04,.02,.09,.03,.13,.04,.82,.29,1.62,.6,2.39,.94,.07,.03,.14,.06,.21,.09,.75,.33,1.48,.69,2.19,1.06,.09,.05,.18,.09,.26,.14,.69,.37,1.37,.76,2.04,1.17,.1,.06,.19,.12,.29,.18,.65,.4,1.3,.82,1.93,1.25,.1,.07,.21,.14,.31,.21,.63,.43,1.24,.87,1.86,1.32,.11,.08,.21,.16,.32,.24,.61,.45,1.21,.91,1.81,1.38,.12,.09,.24,.19,.36,.28,.59,.46,1.19,.93,1.78,1.41,.03,.02,.06,.05,.09,.07-.02,.03-.05,.06-.07,.09-1.47,1.87-2.96,3.73-4.46,5.57ZM58.56,145.82c.91,.06,1.82,.13,2.73,.19,1.66,.12,3.32,.24,4.97,.38,.88,.07,1.76,.14,2.64,.22,1.85,.16,3.69,.33,5.53,.5,.64,.06,1.29,.12,1.93,.18,2.48,.25,4.94,.51,7.4,.79,.49,.06,.97,.12,1.46,.17,1.97,.23,3.94,.47,5.89,.72,.81,.1,1.62,.21,2.43,.32,1.66,.22,3.31,.45,4.95,.68,.85,.12,1.7,.24,2.54,.37,1.68,.25,3.36,.51,5.03,.77,.74,.12,1.48,.23,2.22,.35,.28,.05,.56,.1,.85,.14-.22,.58-.43,1.15-.65,1.73-.23,.59-.46,1.19-.69,1.78l-50.82,29.34v-38.74c.53,.03,1.06,.06,1.58,.1Zm66.8-6.47c.29-.67,.58-1.33,.87-2,.44-1.01,.88-2.01,1.33-3.01,.19-.42,.37-.84,.56-1.26,0,.02,0,.05,0,.07,.11,3.35,.21,6.72,.29,10.08l-1.78,1.03c-.65-.13-1.3-.25-1.95-.38-.38-.07-.76-.15-1.15-.23,.17-.41,.34-.81,.51-1.22,.43-1.02,.87-2.05,1.31-3.07Zm16.37,8.16l4.86-2.81v3.97c-.38-.09-.78-.18-1.16-.28-.87-.21-1.73-.42-2.61-.62-.37-.09-.73-.18-1.09-.26Zm189.94,239.78c-.19-.15-.39-.29-.59-.44-.22-.16-.44-.33-.66-.49-.2-.15-.4-.29-.6-.43-.23-.16-.45-.32-.68-.48-.21-.14-.41-.29-.62-.43-.23-.16-.46-.31-.7-.47-.21-.14-.43-.28-.64-.42-.24-.15-.48-.31-.73-.46-.22-.14-.44-.27-.66-.41-.25-.15-.5-.3-.76-.45-.22-.13-.44-.26-.67-.39-.26-.15-.53-.29-.79-.44-.23-.12-.45-.25-.68-.37-.27-.14-.55-.28-.83-.42-.23-.12-.46-.23-.69-.34-.29-.14-.58-.27-.87-.4-.24-.11-.47-.22-.71-.32-.3-.13-.62-.26-.93-.39-.24-.1-.47-.2-.71-.29-.33-.13-.67-.25-1.01-.37-.23-.08-.45-.17-.69-.25-.38-.13-.77-.25-1.15-.37-.2-.06-.4-.13-.61-.19-.6-.18-1.21-.34-1.83-.5-.08-.02-.16-.04-.24-.05-2.23-.45-4.48-.92-6.74-1.4-.72-.16-1.45-.32-2.17-.48-1.54-.34-3.09-.69-4.64-1.05-.86-.2-1.73-.41-2.59-.61-1.44-.34-2.88-.69-4.33-1.05-.91-.23-1.82-.46-2.74-.69-1.44-.36-2.88-.74-4.33-1.12-.91-.24-1.83-.48-2.74-.73-1.51-.41-3.04-.83-4.56-1.25-.86-.24-1.71-.47-2.58-.72-1.79-.51-3.6-1.03-5.41-1.57-.61-.18-1.2-.35-1.81-.53-2.34-.7-4.7-1.41-7.08-2.15l39.82-22.99,41.44,23.93c-.02,.25-.04,.5-.07,.74-.19,2.09-.38,4.22-.56,6.35-.06,.74-.13,1.47-.19,2.22-.06,.66-.11,1.33-.16,1.99-.07,.82-.13,1.64-.2,2.46-.05,.63-.1,1.26-.14,1.9-.05,.61-.09,1.21-.14,1.82-.06,.09-.12,.18-.19,.26-.27,.38-.53,.76-.8,1.13-.18,.25-.36,.5-.53,.75-.26,.37-.52,.73-.78,1.1-.16,.23-.33,.46-.49,.69-.41,.57-.82,1.14-1.22,1.69-.05,.07-.1,.14-.15,.21-.36,.5-.72,.99-1.08,1.47-.02,.03-.04,.05-.06,.08-.04-.04-.09-.07-.13-.11-.13-.11-.27-.21-.4-.32-.25-.2-.5-.4-.76-.6-.17-.13-.34-.27-.51-.4-.22-.17-.45-.35-.67-.52-.19-.14-.37-.29-.56-.43-.22-.17-.44-.33-.66-.5Zm-90.95-103.65c-.6-.23-1.2-.46-1.79-.69-2.49-.97-4.98-1.94-7.47-2.93-.53-.21-1.07-.43-1.61-.64-1.95-.77-3.9-1.55-5.85-2.33-.85-.34-1.71-.69-2.56-1.03-1.28-.52-2.56-1.04-3.85-1.56l32.45-18.74,39.61,22.84-24.7,14.26c-3.98-1.48-7.97-2.97-11.95-4.47-1.29-.49-2.58-.98-3.87-1.47-.93-.36-1.86-.71-2.79-1.07-1.87-.72-3.75-1.44-5.63-2.17Zm-107.13,3.44c-.93-.87-1.85-1.77-2.78-2.66-.41-.4-.82-.79-1.23-1.19-.74-.73-1.49-1.48-2.23-2.22-.57-.58-1.15-1.15-1.72-1.73-.13-.13-.25-.27-.38-.4,.18-.22,.35-.45,.53-.67,.45-.56,.9-1.13,1.35-1.69,.76-.95,1.51-1.89,2.27-2.83,.42-.52,.84-1.05,1.26-1.56,.93-1.15,1.86-2.3,2.78-3.43,.22-.27,.44-.55,.66-.81,1.03-1.26,2.05-2.51,3.07-3.75l8.55-4.94v38.49c-3.92-3.19-7.78-6.56-11.61-10.13-.18-.16-.35-.32-.53-.49Zm30.23-122.98c1.75,.52,3.49,1.05,5.22,1.59,.79,.25,1.58,.5,2.36,.75,1.65,.53,3.29,1.06,4.92,1.61,.87,.29,1.74,.59,2.61,.89,.68,.23,1.35,.47,2.02,.7l-23.99,13.85v-21.36c1.56,.44,3.11,.88,4.66,1.33,.73,.21,1.46,.43,2.19,.64Zm200.02,181.5c-.34,.62-.68,1.24-1.03,1.86,0,.02-.02,.03-.03,.05-.8,1.44-1.61,2.88-2.43,4.3-.23,.4-.45,.79-.68,1.19l-6.37,3.68c.02-.23,.04-.47,.06-.71,.08-.93,.15-1.85,.22-2.79,.03-.4,.06-.8,.09-1.2,.03-.35,.05-.71,.08-1.06,.06-.84,.12-1.69,.18-2.53,.03-.49,.07-.98,.1-1.46,.02-.33,.04-.65,.06-.98,.05-.75,.08-1.51,.13-2.26,0-.15,.02-.3,.03-.44,0-.17,.02-.34,.03-.51,.01-.2,.02-.41,.03-.61,.02-.37,.04-.74,.06-1.11,.02-.34,.03-.68,.04-1.02,.01-.34,.03-.67,.04-1.01,.02-.52,.04-1.04,.06-1.56,.01-.42,.03-.84,.04-1.26,0-.2,.02-.41,.02-.61,.05,.02,.11,.04,.16,.06,1.79,.62,3.57,1.24,5.36,1.86,1.84,.64,3.69,1.28,5.52,1.92,.04,.01,.08,.03,.11,.04,.4,.13,.81,.26,1.23,.39-.15,.29-.31,.58-.46,.86-.87,1.64-1.75,3.27-2.64,4.9Zm-35.94-19.28c.07,.02,.14,.05,.21,.07,2.65,.92,5.29,1.84,7.92,2.75,.31,.11,.62,.21,.93,.32,2.43,.84,4.86,1.69,7.28,2.53,0,.15,0,.29,0,.43-.02,1.38-.05,2.77-.09,4.17,0,.12,0,.23,0,.34-.02,.55-.04,1.11-.06,1.66-.04,1.09-.09,2.18-.15,3.27-.02,.49-.05,.97-.08,1.46-.03,.48-.06,.96-.09,1.44-.05,.83-.1,1.65-.15,2.48-.01,.21-.03,.42-.04,.64-.05,.73-.1,1.46-.16,2.19-.07,.99-.15,1.98-.22,2.97-.02,.28-.04,.56-.07,.83l-32.04-18.5,16.12-9.31c.24,.08,.47,.16,.71,.25Zm-50.28-28.84l22.41-12.94,39.18,22.6-13.11,7.57c-4.38-1.53-8.77-3.07-13.18-4.61-.88-.31-1.75-.61-2.62-.92-4.84-1.7-9.68-3.42-14.54-5.15-1-.36-2-.72-3-1.07-5.04-1.81-10.09-3.62-15.14-5.46Zm-43.15-131.8c.42-.35,.85-.7,1.27-1.06,2.51-2.1,5.04-4.19,7.58-6.26,.34-.27,.67-.55,1.01-.83,.19-.15,.38-.3,.57-.46v26.49l-18.71-10.8c.15-.13,.3-.26,.45-.39,2.59-2.24,5.2-4.47,7.83-6.68Zm104.6,153.54l4.59-2.65c.01,.12,.02,.25,.03,.37,.05,.52,.1,1.03,.14,1.56,.03,.34,.05,.68,.07,1.03,0,.03,0,.06,0,.1,.03,.43,.06,.87,.08,1.31-.55-.19-1.1-.38-1.65-.57-1.09-.38-2.18-.76-3.27-1.14ZM195.22,174.94c.83,.33,1.66,.66,2.49,.99,.28,.11,.55,.22,.83,.34,1.51,.61,3.01,1.23,4.49,1.85,.34,.14,.68,.29,1.03,.44-.24,.22-.48,.45-.72,.67-.78,.71-1.55,1.43-2.32,2.15-1.49,1.38-2.98,2.76-4.47,4.15-.86,.81-1.72,1.62-2.58,2.43-1.41,1.33-2.81,2.67-4.21,4.02-.86,.83-1.72,1.66-2.58,2.49-1.43,1.38-2.85,2.78-4.27,4.17-.8,.79-1.6,1.57-2.4,2.36-1.63,1.62-3.25,3.24-4.86,4.87-.57,.57-1.14,1.14-1.7,1.71-2.16,2.2-4.32,4.41-6.46,6.64-.52,.54-1.04,1.1-1.56,1.64-1.62,1.69-3.24,3.39-4.84,5.1-.77,.82-1.54,1.65-2.3,2.47-.6,.65-1.21,1.29-1.81,1.94v-29.89l36.66-21.17c.54,.21,1.08,.41,1.61,.62Zm-86.74,10.22c.1-.32,.2-.64,.3-.95,.78-2.52,1.58-5.03,2.41-7.54,.31-.94,.64-1.88,.95-2.82,.64-1.89,1.28-3.78,1.94-5.67,.38-1.09,.78-2.17,1.17-3.26,.32-.89,.65-1.79,.98-2.68l12.17-7.02c.08,.02,.17,.04,.25,.05,0,.09,0,.17,0,.26,0,.31,0,.63,.01,.95,.02,1.15,.03,2.32,.04,3.5,0,.48,0,.96,.01,1.45,0,1.04,.01,2.09,.01,3.15,0,.55,0,1.11,0,1.67,0,1.03,0,2.06,0,3.11,0,.57,0,1.15-.01,1.73,0,1.07-.02,2.16-.04,3.24,0,.56-.01,1.12-.02,1.69-.02,1.2-.05,2.41-.07,3.63-.01,.47-.02,.93-.03,1.4-.09,3.38-.21,6.82-.37,10.33-.02,.52-.05,1.06-.08,1.58-.06,1.22-.13,2.44-.2,3.68-.04,.65-.08,1.31-.12,1.96-.07,1.13-.15,2.26-.23,3.4-.05,.7-.1,1.4-.16,2.1-.09,1.12-.18,2.24-.27,3.37-.06,.7-.12,1.41-.18,2.12-.11,1.17-.22,2.34-.34,3.51-.07,.67-.13,1.33-.2,2-.14,1.36-.3,2.72-.46,4.08-.06,.49-.11,.97-.17,1.46-.22,1.85-.46,3.7-.72,5.56-.06,.4-.12,.8-.18,1.2-.18,1.26-.37,2.52-.56,3.78-.28-.15-.57-.3-.85-.46-1.56-.84-3.11-1.69-4.65-2.53-.33-.18-.67-.37-1.01-.55-1.81-1-3.61-2-5.39-3-.47-.27-.94-.53-1.41-.8-1.45-.82-2.89-1.64-4.32-2.47-.41-.23-.82-.47-1.22-.7-1.75-1.01-3.48-2.02-5.19-3.04-.1-.06-.2-.12-.31-.18,.24-1.06,.47-2.12,.71-3.18,.24-1.03,.47-2.05,.72-3.08,.07-.28,.14-.56,.2-.84,.39-1.63,.8-3.26,1.21-4.89,.21-.84,.42-1.68,.64-2.52,.1-.4,.21-.81,.32-1.21,.49-1.85,.99-3.7,1.5-5.54,.16-.58,.32-1.17,.48-1.75,.1-.35,.2-.71,.3-1.06,.78-2.72,1.58-5.45,2.41-8.16,0-.01,0-.02,.01-.04Zm-12.3,77.9c-.28,0-.55,0-.81,0-.19,0-.39,0-.58-.01-.28-.01-.54-.03-.8-.04-.15-.01-.3-.02-.44-.03-.39-.03-.75-.07-1.08-.12,.17-1.57,.35-3.16,.55-4.75,.02-.14,.03-.27,.05-.41,.25,.32,.5,.63,.75,.95,.33,.42,.66,.84,.99,1.25,.38,.48,.77,.96,1.15,1.43,.33,.41,.66,.83,1,1.23,.12,.15,.25,.31,.37,.46-.18,0-.35,.02-.52,.02-.21,0-.42,.01-.63,.02Zm-21.07-48.82c.98,.63,1.98,1.26,2.97,1.89,.8,.51,1.6,1.03,2.41,1.54,.04,.03,.08,.05,.12,.08,.07,.05,.15,.09,.22,.14,.86,.54,1.74,1.08,2.61,1.62,.84,.52,1.66,1.04,2.5,1.56,.5,.31,1.01,.61,1.51,.92,.28,.17,.55,.34,.83,.51-.06,.3-.11,.6-.17,.89-.55,2.72-1.08,5.45-1.57,8.19,0,.05-.02,.1-.03,.15-.76-1.05-1.52-2.1-2.28-3.16-1.27-1.76-2.54-3.53-3.8-5.3-1.02-1.44-2.04-2.88-3.06-4.32-1.16-1.64-2.32-3.28-3.47-4.92-.25-.35-.49-.7-.74-1.06,.23,.15,.47,.3,.7,.45,.42,.27,.83,.54,1.25,.81Zm46.98,27.49c.13,.07,.26,.14,.38,.21-1.84,8.84-6.51,15.01-13.92,18.4-.58-.7-1.16-1.39-1.74-2.11-.06-.07-.12-.15-.18-.22-.58-.7-1.15-1.41-1.74-2.13-.18-.22-.36-.44-.54-.67-.49-.6-.97-1.21-1.46-1.82-.18-.23-.37-.46-.55-.69-.57-.72-1.14-1.44-1.71-2.17-.09-.11-.18-.22-.27-.34-.66-.84-1.32-1.7-1.99-2.56-.19-.25-.39-.5-.58-.75-.47-.61-.94-1.23-1.42-1.85-.26-.34-.52-.69-.78-1.03-.17-.22-.34-.45-.51-.67,.07-.48,.15-.96,.23-1.44,.25-1.6,.52-3.19,.79-4.79,.14-.8,.28-1.61,.42-2.41,.3-1.7,.62-3.39,.94-5.09,.09-.48,.18-.97,.27-1.45,.22,.13,.45,.26,.67,.39,1.68,.98,3.36,1.96,5.07,2.93,.1,.06,.21,.12,.31,.18,1.8,1.03,3.63,2.06,5.47,3.09,.48,.27,.96,.53,1.44,.8,.6,.34,1.2,.67,1.81,1.01,.95,.53,1.92,1.05,2.88,1.58,.34,.19,.68,.37,1.02,.56,1.88,1.03,3.78,2.05,5.7,3.07Zm9.83,5.14c1.43,.74,2.86,1.47,4.3,2.2-1.97,2.34-3.93,4.68-5.86,7.03l-3.68,2.13c2.3-3.33,4.07-7.13,5.24-11.35Zm8.65-88.97c2.01,.48,4.01,.98,6.01,1.48v30.74c-.55,.84-.87,1.82-.87,2.86v44.97c-.84,.96-1.69,1.95-2.59,2.99-3.05-1.53-6.09-3.09-9.12-4.67,.08-.45,.14-.9,.21-1.36,.12-.76,.24-1.53,.36-2.29,.18-1.17,.35-2.34,.52-3.51,.11-.76,.22-1.53,.32-2.29,.16-1.19,.32-2.38,.46-3.57,.09-.72,.18-1.44,.27-2.16,.16-1.3,.3-2.6,.44-3.9,.06-.59,.13-1.18,.19-1.77,.19-1.87,.37-3.73,.54-5.58,.03-.29,.05-.58,.07-.87,.14-1.57,.27-3.13,.38-4.69,.05-.68,.09-1.35,.14-2.03,.08-1.16,.16-2.31,.23-3.46,.05-.76,.09-1.51,.13-2.26,.06-1.06,.12-2.12,.17-3.17,.04-.77,.07-1.54,.11-2.31,.05-1.02,.09-2.04,.13-3.06,.03-.76,.06-1.51,.08-2.26,.04-1.03,.07-2.05,.09-3.07,.02-.71,.04-1.42,.06-2.13,.03-1.09,.05-2.17,.07-3.25,.01-.61,.03-1.23,.03-1.83,.02-1.63,.04-3.24,.05-4.83,0-.53,0-1.05,0-1.58,0-1.09,0-2.19,0-3.26,0-.71,0-1.4,0-2.1,0-.87,0-1.73-.01-2.59,0-.75-.01-1.48-.02-2.22,0-.45,0-.91-.01-1.35,.28,.07,.56,.13,.84,.19,.22,.05,.44,.1,.66,.16Zm-82.79,51.23c1.01,1.43,2.01,2.87,3.01,4.28,1.41,2.02,2.84,4.05,4.27,6.09,.52,.75,1.04,1.49,1.57,2.23,.52,.74,1.04,1.47,1.56,2.21,1.47,2.08,2.94,4.17,4.43,6.25,.7,.98,1.4,1.95,2.1,2.93,1.31,1.83,2.62,3.66,3.95,5.48,.82,1.12,1.64,2.23,2.46,3.34,1.01,1.38,2.02,2.76,3.04,4.13-.1,.66-.18,1.3-.27,1.95-.1,.71-.2,1.43-.3,2.13-.14,1.04-.28,2.06-.41,3.09-.09,.69-.18,1.39-.27,2.08-.14,1.1-.26,2.18-.39,3.27-.07,.59-.14,1.19-.21,1.77-.19,1.67-.36,3.32-.53,4.98-.02,.17-.03,.34-.03,.51,0,1.94,.98,3.76,2.68,5,.22,.16,.47,.31,.72,.46,.06,.03,.11,.06,.17,.09,.07,.04,.14,.07,.21,.11,.14,.07,.29,.15,.44,.22,.1,.05,.21,.09,.31,.14,.06,.03,.12,.06,.19,.08,.02,0,.04,.02,.07,.03,.11,.05,.23,.09,.35,.13,.11,.04,.22,.08,.33,.12,.15,.05,.29,.1,.44,.15,.1,.03,.2,.06,.3,.09,.09,.02,.17,.05,.25,.08,.28,.08,.58,.15,.87,.22,.04,0,.08,.02,.13,.03,.03,0,.05,.01,.08,.02,.04,0,.07,.01,.11,.02,.34,.07,.68,.14,1.03,.19,.06,.01,.12,.02,.18,.03,.09,.01,.18,.03,.27,.04,.25,.04,.5,.07,.76,.1,.13,.02,.27,.03,.4,.05,.04,0,.07,0,.11,.01,.06,0,.12,.01,.18,.02,.2,.02,.4,.03,.6,.05,.13,.01,.26,.02,.39,.03,.17,.01,.34,.02,.51,.03,.12,0,.24,.01,.36,.02,.07,0,.14,0,.21,0,.08,0,.15,0,.23,0,.3,0,.61,.01,.92,.01,.06,0,.12,0,.18,0,.02,0,.05,0,.07,0,.06,0,.13,0,.19,0,.08,0,.16,0,.24,0,.33,0,.66-.01,.99-.02,.06,0,.12,0,.19,0,.13,0,.26-.01,.39-.02,.29-.02,.59-.03,.88-.05,.09,0,.19-.01,.28-.02,.1,0,.19-.02,.29-.03,.32-.03,.64-.06,.96-.09,.11-.01,.21-.02,.32-.03,.05,0,.1-.01,.14-.02,.07,0,.14-.01,.21-.02l-43.13,24.9v-88.87Zm98.34,49.72c.29,.14,.58,.27,.88,.41,1.42,.67,2.84,1.34,4.27,2.01,.15,.07,.3,.14,.45,.21l28.82,16.62-34.46,19.89v-39.17s.03,.01,.04,.02Zm49.36,10.63c-1.02-.43-2.03-.85-3.04-1.28-.88-.37-1.76-.74-2.63-1.11-1.52-.64-3.02-1.29-4.51-1.93-.78-.33-1.56-.67-2.33-1-1.85-.8-3.68-1.6-5.51-2.4-.39-.17-.79-.35-1.19-.52-2.21-.97-4.4-1.95-6.56-2.92-.6-.27-1.18-.54-1.78-.8-1.57-.71-3.13-1.41-4.67-2.12-.78-.36-1.55-.71-2.32-1.07-1.35-.62-2.7-1.24-4.04-1.87-.74-.34-1.47-.69-2.2-1.03-1.38-.65-2.75-1.29-4.13-1.95-.81-.39-1.63-.78-2.44-1.16-.04-.02-.08-.04-.12-.06-.65-.31-1.29-.62-1.94-.93v-5.47c.15-.17,.31-.35,.46-.52,1.59-1.81,3.19-3.63,4.79-5.41,2.15-2.36,4.32-4.7,6.51-7.03,.76-.82,1.54-1.62,2.31-2.44,1.43-1.51,2.86-3.02,4.3-4.53,.91-.95,1.83-1.89,2.75-2.83,1.31-1.35,2.62-2.71,3.95-4.06,.98-.99,1.96-1.97,2.94-2.96,1.28-1.28,2.55-2.57,3.83-3.84,1.02-1.01,2.05-2.02,3.08-3.02,1.26-1.23,2.51-2.47,3.77-3.69,1.05-1.02,2.11-2.03,3.17-3.04,1.25-1.19,2.5-2.39,3.75-3.57,1.08-1.02,2.17-2.03,3.25-3.04,1.24-1.16,2.48-2.31,3.72-3.46,1.11-1.03,2.23-2.04,3.35-3.06,.81-.73,1.61-1.47,2.42-2.2,.19,.09,.37,.17,.56,.26,2.27,1.06,4.53,2.15,6.76,3.25,.42,.21,.83,.42,1.25,.62,2.3,1.15,4.59,2.32,6.85,3.52,.03,.02,.06,.03,.09,.05,.07,.04,.15,.08,.22,.12,2.25,1.19,4.46,2.42,6.67,3.65,.11,.06,.22,.13,.34,.19,.28,.16,.55,.31,.83,.47,2.14,1.21,4.25,2.45,6.34,3.7,.18,.11,.37,.22,.55,.33v47.41l-39.39,22.74Zm49.76-63.6c1.18,.78,2.35,1.58,3.52,2.37,.48,.33,.97,.66,1.46,.99,.57,.39,1.13,.79,1.7,1.18,1.33,.93,2.65,1.88,3.96,2.83,.7,.51,1.4,1.02,2.09,1.53,1.39,1.03,2.77,2.08,4.14,3.13,.49,.38,.99,.75,1.48,1.13,.45,.35,.88,.71,1.32,1.06,1.4,1.11,2.79,2.22,4.17,3.34,.44,.36,.88,.74,1.32,1.11,.32,.26,.63,.53,.94,.79,1.05,.88,2.1,1.77,3.14,2.67,.56,.49,1.12,.98,1.68,1.47,.36,.31,.71,.63,1.06,.95,.87,.78,1.74,1.56,2.61,2.35,.46,.42,.92,.85,1.38,1.27,.54,.5,1.08,1.01,1.62,1.52,.89,.84,1.77,1.68,2.64,2.52,.2,.19,.4,.38,.59,.57,.73,.71,1.45,1.43,2.17,2.15,.99,.99,1.97,1.98,2.94,2.98,.73,.75,1.45,1.51,2.16,2.26,.06,.07,.13,.13,.19,.2,.92,.98,1.84,1.96,2.74,2.95,.74,.81,1.48,1.62,2.21,2.44,.92,1.03,1.82,2.07,2.72,3.11,.71,.83,1.43,1.66,2.13,2.49,.89,1.06,1.77,2.13,2.65,3.21,.54,.66,1.08,1.32,1.61,1.99l-17.56,10.14-44.76-25.82v-40.89Zm68.68,64.88c.4,.54,.8,1.08,1.19,1.63,.2,.28,.41,.57,.61,.85,.62,.86,1.23,1.73,1.84,2.6,.69,.99,1.37,1.99,2.05,2.99,.04,.06,.09,.13,.13,.19,.45,.66,.89,1.32,1.33,1.98,.12,.18,.24,.37,.36,.55,1.21,1.83,2.4,3.68,3.56,5.54,.38,.65,.75,1.32,1.11,1.99,.05,.1,.1,.2,.16,.3,.07,.14,.14,.28,.21,.42,.24,.47,.48,.94,.71,1.42,0,.02,.02,.04,.03,.06,.12,.26,.24,.53,.36,.79,.21,.45,.41,.91,.6,1.37,.12,.29,.25,.59,.37,.89,.08,.21,.16,.42,.24,.62l-28.4-16.38,13.54-7.81Zm67.87,11.55c-.33,.94-.65,1.87-.98,2.8-.52,1.47-1.05,2.93-1.59,4.39-.33,.89-.65,1.77-.98,2.65-.6,1.59-1.21,3.17-1.82,4.75-.28,.73-.56,1.47-.85,2.19-.84,2.14-1.7,4.26-2.57,6.37-.2,.47-.39,.94-.59,1.42-.82,1.95-1.64,3.9-2.48,5.83-.28,.65-.58,1.3-.86,1.95-.64,1.45-1.28,2.9-1.94,4.34-.06,.14-.12,.28-.19,.42-.38,.84-.77,1.68-1.16,2.52-.23,.49-.46,.97-.68,1.45-.9,1.91-1.8,3.81-2.73,5.71-.22,.45-.44,.89-.66,1.34-.27-.08-.54-.15-.8-.23-.15-.04-.3-.09-.45-.13-.02,0-.04-.01-.05-.02-.5-.15-.98-.3-1.46-.45-4.28-1.49-8.59-2.99-12.91-4.49-.5-.17-1-.35-1.5-.52,0-.26-.02-.51-.03-.77-.02-.65-.05-1.3-.08-1.94-.01-.23-.02-.47-.03-.71,0-.06,0-.11,0-.17,0-.18-.02-.36-.03-.53-.03-.52-.07-1.04-.1-1.56-.02-.35-.05-.7-.07-1.05-.01-.13-.02-.27-.03-.4,0-.07,0-.14-.01-.2,0-.02,0-.04,0-.06-.03-.34-.06-.66-.09-1-.05-.52-.09-1.04-.14-1.55-.03-.25-.06-.5-.08-.75-.02-.16-.04-.31-.06-.47-.07-.63-.14-1.27-.22-1.89-.05-.37-.1-.74-.15-1.11,0-.01,0-.02,0-.03,.08-.12,.15-.25,.23-.38,0-.01,.02-.03,.03-.04,.1-.17,.18-.34,.26-.52,.02-.05,.04-.1,.06-.15,.06-.16,.12-.32,.17-.48,.02-.09,.04-.17,.06-.26,.03-.14,.06-.28,.08-.42,.03-.18,.04-.37,.04-.56,0-.05,.01-.1,.01-.15v-49.21l38.21,22.03c-.23,.68-.46,1.36-.7,2.04Zm-47.88-.52s0,0,0-.01c-.02-.04-.04-.07-.07-.11-.99-1.6-2.02-3.2-3.06-4.79-.24-.36-.47-.72-.71-1.08-.17-.25-.33-.51-.49-.76-.17-.25-.34-.5-.51-.75-.51-.76-1.02-1.52-1.54-2.27-.35-.51-.7-1.02-1.05-1.53-.26-.38-.52-.76-.78-1.13-.19-.27-.37-.54-.56-.81-.36-.51-.73-1.01-1.1-1.51-.09-.12-.17-.24-.26-.36-.22-.3-.43-.61-.65-.91-.06-.08-.11-.15-.16-.23l10.94-6.32v22.58Zm0-34.55l-17.25,9.96c-.08-.1-.16-.19-.23-.29-.25-.31-.49-.63-.74-.94-.43-.54-.88-1.07-1.31-1.6-.79-.97-1.58-1.94-2.39-2.9-.44-.52-.86-1.05-1.3-1.57-.28-.33-.57-.66-.85-.99-.92-1.08-1.86-2.15-2.81-3.21-.48-.54-.95-1.09-1.44-1.63-.04-.04-.08-.09-.12-.13-.47-.52-.95-1.03-1.42-1.55-.94-1.03-1.89-2.06-2.85-3.08-.35-.38-.71-.75-1.06-1.13-.46-.48-.92-.95-1.39-1.43-.8-.83-1.61-1.66-2.43-2.48-.58-.58-1.15-1.16-1.73-1.74-.29-.28-.57-.57-.86-.85-1-.98-2.01-1.95-3.03-2.91-.61-.58-1.21-1.16-1.83-1.74-.62-.58-1.26-1.16-1.89-1.74-.83-.76-1.66-1.52-2.49-2.27-.5-.45-1-.9-1.51-1.34-.49-.43-.98-.85-1.46-1.28-.81-.71-1.64-1.41-2.46-2.11-.71-.61-1.42-1.21-2.14-1.81-.01-.01-.03-.02-.04-.03-.54-.45-1.09-.9-1.64-1.35-1.12-.92-2.24-1.84-3.38-2.74-.4-.31-.8-.62-1.2-.94-.63-.5-1.27-.99-1.91-1.49-.89-.69-1.78-1.37-2.68-2.05-.61-.46-1.22-.91-1.83-1.36-.45-.33-.89-.66-1.34-.99-1-.74-2.02-1.46-3.04-2.19-.55-.39-1.1-.79-1.66-1.18-.4-.28-.8-.56-1.19-.84-.42-.29-.84-.58-1.26-.87-1.16-.8-2.31-1.59-3.48-2.37-.32-.21-.65-.42-.97-.64-.2-.13-.41-.27-.61-.4-.54-.35-1.07-.71-1.61-1.06-.49-.32-.97-.64-1.46-.96l42.3-24.42,43.98,25.39v51.23Zm-88.67-62.81v-35.59c.99-.77,1.98-1.54,2.98-2.31l31.34,18.09-34.31,19.81Zm-16.52-35.7c-.91,.74-1.82,1.48-2.73,2.22-2.05,1.68-4.09,3.36-6.13,5.06-.81,.68-1.62,1.35-2.43,2.03-2.76,2.32-5.5,4.65-8.22,7.01-.42,.37-.84,.74-1.26,1.1-.44,.38-.87,.76-1.3,1.14l-5.43-3.14,29.36-16.95c-.63,.5-1.25,1.02-1.87,1.52Zm-136.78,22.79c-.18,.55-.36,1.1-.54,1.65-.66,2.01-1.31,4.03-1.95,6.05-.1,.32-.2,.63-.3,.95-.71,2.27-1.39,4.54-2.06,6.82-.16,.56-.32,1.12-.49,1.67-.58,2.01-1.15,4.02-1.7,6.04-.09,.34-.19,.68-.28,1.02-.42,1.56-.84,3.13-1.24,4.69,0,.02-.01,.04-.02,.07-.18,.69-.36,1.39-.53,2.08-.12,.45-.23,.91-.34,1.36-.07,.27-.13,.53-.2,.8-.35,1.43-.7,2.86-1.04,4.28-.1,.4-.19,.81-.29,1.21,0,.02,0,.04-.01,.06-.08,.35-.17,.71-.25,1.06-.03,.14-.07,.28-.1,.42-.19-.12-.37-.23-.56-.35-.18-.11-.36-.23-.55-.34-1.72-1.07-3.43-2.14-5.13-3.22-.13-.08-.27-.17-.4-.25-.55-.35-1.1-.7-1.64-1.05-1.67-1.07-3.32-2.14-4.97-3.22-.38-.25-.76-.5-1.14-.74-.22-.15-.44-.29-.66-.44-1.92-1.27-3.83-2.55-5.72-3.83-.53-.36-1.06-.73-1.59-1.09-1.59-1.09-3.17-2.18-4.73-3.27-.15-.1-.3-.21-.45-.31-.19-.13-.37-.26-.56-.39l39.86-23.01c-.14,.43-.28,.86-.42,1.28Zm9.25,107.62c.06,.06,.12,.13,.17,.19,.05,.06,.1,.12,.16,.17-.3,.38-.6,.76-.9,1.14-.67,.86-1.34,1.72-2.02,2.57-.3,.39-.61,.78-.91,1.17-.48,.61-.95,1.23-1.43,1.84-.64,.82-1.28,1.64-1.91,2.46-.17,.22-.35,.45-.52,.67-.64,.83-1.28,1.66-1.92,2.49-.54,.71-1.09,1.41-1.64,2.12-.12,.16-.25,.32-.37,.48-.8,1.04-1.61,2.09-2.41,3.14-.59,.77-1.19,1.54-1.78,2.32-.61,.79-1.22,1.59-1.83,2.39-.53,.69-1.06,1.38-1.58,2.07-.34,.45-.68,.89-1.02,1.33-.34,.45-.68,.89-1.02,1.34-.71,.93-1.41,1.85-2.11,2.78-.4,.53-.8,1.05-1.2,1.58-.15,.19-.3,.39-.44,.58-.92,1.21-1.83,2.41-2.74,3.61-.21,.27-.41,.54-.61,.81-.1,.13-.2,.26-.29,.38,0,.01-.02,.02-.03,.04-.05,.07-.11,.15-.17,.22-.09,.12-.18,.23-.27,.35-.08,.1-.16,.21-.24,.32l-18.87-10.89,47.9-27.65Zm279.37,54.9c-.69-.07-1.38-.13-2.07-.22-.82-.1-1.64-.21-2.46-.33-.52-.07-1.04-.14-1.56-.22-.2-.03-.39-.07-.59-.1-.6-.1-1.21-.21-1.81-.32,.12-.26,.25-.52,.37-.77,.12-.25,.24-.5,.36-.75,.16-.33,.32-.66,.48-1,.32-.68,.65-1.36,.97-2.04,.51-1.08,1.01-2.18,1.52-3.27,.28-.61,.56-1.21,.84-1.82,.61-1.35,1.22-2.7,1.82-4.06,.16-.36,.32-.71,.48-1.07,.76-1.73,1.51-3.46,2.25-5.2,.13-.32,.26-.64,.4-.95,.6-1.42,1.19-2.84,1.78-4.27,.24-.58,.47-1.17,.7-1.75,.47-1.17,.95-2.34,1.41-3.52,.27-.68,.53-1.36,.79-2.04,.42-1.09,.85-2.18,1.26-3.27,.28-.73,.55-1.46,.82-2.19,.39-1.05,.79-2.1,1.17-3.16,.28-.76,.55-1.52,.82-2.29,.37-1.04,.74-2.08,1.11-3.12,.08-.24,.17-.47,.25-.7l36.38,21.3-45.82,27.27c-.56-.05-1.11-.09-1.67-.15Zm52.45-36.23l-34.7-20.32-3.27-1.92c.02-.07,.04-.13,.06-.2,.26-.81,.52-1.62,.78-2.44,.33-1.04,.65-2.07,.97-3.11,.25-.82,.5-1.64,.75-2.47,.32-1.04,.63-2.09,.94-3.13,.24-.83,.49-1.66,.73-2.49,.3-1.05,.61-2.11,.9-3.16,.24-.83,.47-1.67,.7-2.51,.29-1.06,.58-2.13,.87-3.19,.23-.84,.45-1.68,.67-2.53,.28-1.08,.56-2.16,.84-3.24,.22-.84,.43-1.68,.64-2.53,.27-1.1,.54-2.2,.81-3.3,.2-.84,.41-1.68,.61-2.52,.27-1.12,.53-2.24,.79-3.36,.19-.83,.39-1.67,.58-2.51,.26-1.15,.51-2.31,.77-3.46,.18-.82,.36-1.63,.54-2.46,.26-1.2,.51-2.41,.76-3.62,.16-.78,.33-1.56,.49-2.35,.26-1.29,.51-2.58,.76-3.88,.14-.72,.28-1.43,.42-2.15,.28-1.48,.56-2.97,.83-4.46,.1-.54,.2-1.07,.3-1.61,.73-4.08,1.42-8.2,2.08-12.35,.1-.66,.2-1.33,.3-1.99,.15-.98,.3-1.97,.45-2.96,.03-.22,.07-.44,.1-.66,.03-.21,.06-.42,.09-.63,.1-.66,.19-1.32,.28-1.97,.1-.7,.2-1.39,.3-2.09,.04-.28,.09-.56,.13-.84l17.77,10.56-.03,101.87Zm-27.77-115.74c-.24,1.75-.49,3.49-.75,5.24-.27,1.89-.55,3.79-.84,5.67-.49,3.18-1.01,6.34-1.55,9.48-.05,.31-.1,.61-.15,.92-.04,.23-.08,.45-.12,.68-.62,3.52-1.26,7.02-1.94,10.49-.04,.2-.07,.39-.11,.59-.68,3.49-1.4,6.94-2.15,10.38-.1,.47-.2,.95-.31,1.42-.73,3.31-1.48,6.59-2.27,9.86-.13,.55-.27,1.1-.4,1.66-.79,3.24-1.6,6.45-2.44,9.64-.13,.5-.27,1-.4,1.51-.87,3.26-1.77,6.49-2.69,9.7-.09,.31-.18,.61-.27,.91-.96,3.3-1.95,6.57-2.98,9.81-.02,.07-.04,.14-.06,.21l-40.66-23.45v-51.16l44.01-25.41,16.38,9.46c-.11,.8-.2,1.61-.31,2.41Zm-235.44-23.78s-.05-.02-.07-.02c-2.14-.72-4.29-1.41-6.46-2.1-.1-.03-.21-.06-.31-.1-2.11-.66-4.22-1.31-6.35-1.94-.11-.03-.22-.07-.34-.1-2.13-.63-4.27-1.25-6.42-1.85-.11-.03-.22-.06-.34-.09-.86-.24-1.71-.49-2.57-.72v-6.58l24.09,13.91c-.41-.14-.83-.27-1.24-.41Zm-113.87,180.79c-.65,.97-1.31,1.93-1.99,2.9-.22,.32-.46,.63-.68,.95-.46,.65-.93,1.29-1.41,1.94-.28,.38-.58,.76-.86,1.14-.44,.58-.88,1.16-1.33,1.74-.32,.41-.65,.82-.97,1.22-.44,.55-.89,1.11-1.34,1.66-.13,.16-.27,.33-.41,.49v-36.03s18.92,10.92,18.92,10.92c-3.21,4.23-6.44,8.49-9.73,12.81-.07,.09-.13,.18-.19,.27Zm25.53-16.48c1.28-1.69,2.56-3.37,3.84-5.05,0-.01,.02-.02,.02-.03,.35-.46,.7-.92,1.05-1.38,1.01-1.33,2.02-2.65,3.02-3.96,.13-.17,.25-.33,.38-.5,.41-.54,.82-1.08,1.23-1.61,.17-.22,.33-.43,.5-.65,.81-1.06,1.61-2.11,2.43-3.17,.4-.52,.8-1.04,1.2-1.57,1.08-1.41,2.17-2.82,3.26-4.24,.24-.31,.48-.63,.72-.94,.16-.21,.33-.43,.49-.64,1.04-1.35,2.09-2.7,3.14-4.05,.09-.12,.19-.24,.28-.37,.31-.41,.63-.81,.94-1.21,1-1.29,2-2.57,3.01-3.86,.42-.53,.83-1.07,1.25-1.6,.17-.22,.35-.44,.52-.66,.12,.12,.24,.24,.36,.36,.99,1,1.98,1.98,2.96,2.96,.47,.47,.95,.93,1.42,1.39,.64,.62,1.29,1.24,1.93,1.85,2.31,2.19,4.63,4.31,6.96,6.36,.13,.11,.26,.23,.39,.34,2.75,2.41,5.51,4.72,8.3,6.94l-38.15,22.37-11.7-6.76c.08-.11,.16-.21,.24-.31Zm88.97-26.68l20.49-11.83,39.99,23.06-39.33,22.71-39.97-23.07,18.83-10.87Zm58.68-1.77c1,.38,1.99,.77,2.99,1.15,1.05,.4,2.1,.8,3.15,1.2,.13,.05,.25,.1,.38,.14v1.26l-6.52-3.76Zm26.8,10.11c.5,.18,.99,.36,1.49,.55,1.46,.54,2.92,1.07,4.38,1.6,.95,.35,1.9,.7,2.84,1.04,1.74,.64,3.47,1.26,5.2,1.89,.64,.23,1.29,.47,1.93,.7,2.34,.85,4.68,1.69,7,2.52,.78,.28,1.56,.56,2.34,.84,1.57,.56,3.14,1.12,4.71,1.68,.94,.33,1.86,.66,2.79,.99,1.39,.49,2.78,.98,4.16,1.47,.97,.34,1.93,.68,2.89,1.02,1.36,.48,2.72,.96,4.06,1.43,.92,.32,1.84,.65,2.76,.97,.59,.21,1.19,.42,1.78,.62l-13.56,7.83-39.16-22.61,4.39-2.54Zm177.15-120.38l-16.34-9.7c.12-.99,.24-1.97,.35-2.96,.11-.97,.22-1.94,.33-2.91,.13-1.18,.26-2.37,.39-3.56,.11-.99,.21-1.99,.31-2.99,.12-1.18,.24-2.36,.35-3.55,.1-1.01,.19-2.02,.28-3.03,.07-.72,.14-1.43,.2-2.16l14.14-8.17v39.02Zm-25.16-24.49c-.03,.32-.06,.63-.09,.95-.28,2.73-.58,5.44-.88,8.14l-7.38-4.26,8.36-4.83Zm-29.1,4.83l-33.64,19.42v-38.85l33.64,19.42Zm-44.01-19.5v39.8l-34.47-19.9,34.47-19.9Zm-99.88-11.99l-44.06,25.44-46.49-26.84s-.03-.01-.04-.02c-.01,0-.02-.02-.04-.03-1.6-.92-3.57-.92-5.17,0l-10.49,6.06c-.02-.61-.04-1.23-.06-1.84-.03-1.12-.07-2.23-.1-3.35-.06-1.89-.13-3.77-.19-5.65-.03-.88-.06-1.76-.09-2.64-.1-2.69-.19-5.37-.29-8.03l-.11-3.05c.75-1.48,1.52-2.97,2.29-4.47,.46-.9,.92-1.8,1.39-2.7,1.33-2.53,2.68-5.07,4.06-7.61,.03-.06,.06-.11,.09-.17,1.42-2.6,2.87-5.21,4.34-7.82,.47-.83,.96-1.67,1.44-2.5,.9-1.56,1.79-3.13,2.71-4.69L244.91,30.4v102.32Zm-118.01-34.19c.01,.46,.03,.91,.05,1.37,.04,1.12,.07,2.23,.11,3.34,.03,.76,.05,1.52,.08,2.27,.04,1.27,.09,2.51,.13,3.75,.01,.41,.03,.83,.04,1.24-.12,.24-.23,.48-.35,.71-1.15,2.33-2.29,4.66-3.41,7.01-.01,.02-.02,.04-.03,.06-1.13,2.37-2.23,4.75-3.32,7.14-.16,.36-.33,.71-.49,1.07-1.04,2.3-2.06,4.59-3.07,6.89-.17,.39-.34,.78-.51,1.18-1.01,2.34-2.01,4.69-2.98,7.03-.02,.06-.05,.12-.08,.18-.79-.13-1.59-.26-2.39-.39-.77-.13-1.55-.26-2.32-.38-1.94-.31-3.9-.61-5.86-.9-.47-.07-.94-.14-1.42-.21-2.42-.35-4.85-.69-7.3-1.01-.64-.08-1.27-.16-1.91-.24-1.84-.23-3.68-.46-5.53-.68-.82-.09-1.64-.19-2.45-.28-1.79-.2-3.58-.39-5.38-.57-.73-.07-1.46-.15-2.19-.22-2.49-.24-4.98-.47-7.48-.68-.24-.02-.48-.04-.72-.06-1.86-.15-3.73-.3-5.6-.44l64.38-37.17Zm-54.01,248.75c.51-.74,1.02-1.48,1.52-2.23,.02-.03,.04-.05,.05-.08,3.53-4.63,7-9.2,10.44-13.74l7.73,4.46-19.74,11.58Zm79.7,10.86s.03-.06,.05-.09c.31-.56,.62-1.11,.92-1.64,.09-.15,.18-.3,.27-.45,.23-.39,.46-.76,.68-1.13,.11-.17,.21-.34,.32-.51,.24-.39,.49-.76,.73-1.12,.07-.1,.14-.21,.21-.32,.3-.45,.61-.88,.91-1.29,.1-.13,.19-.26,.29-.38,.22-.29,.44-.58,.67-.86,.11-.13,.21-.27,.32-.4,.25-.31,.51-.6,.76-.89,.06-.07,.12-.14,.18-.21,.31-.34,.62-.66,.93-.97,.1-.1,.19-.19,.29-.28,.23-.22,.46-.43,.69-.63,.1-.09,.21-.18,.31-.27,.28-.24,.57-.46,.85-.68,.04-.03,.08-.06,.12-.09,.32-.24,.65-.45,.98-.66,.1-.06,.19-.11,.29-.17,.25-.15,.5-.29,.75-.42,.1-.05,.19-.1,.29-.15,.68-.33,1.37-.6,2.07-.81,.09-.03,.18-.05,.27-.07,.28-.08,.56-.14,.84-.2,.09-.02,.18-.04,.26-.05,.73-.13,1.47-.2,2.22-.2,.08,0,.16,0,.24,0,.44,0,.89,.02,1.35,.07,0,0,0,0,0,0,.46,.05,.93,.12,1.4,.21,.09,.02,.17,.03,.26,.05,.47,.09,.94,.2,1.43,.34,.04,.01,.09,.03,.13,.04,.45,.13,.91,.27,1.38,.44,.05,.02,.1,.04,.16,.05l-23.84,13.76Zm35.26-20.36c-1.98-.8-3.96-1.6-5.91-2.4-.06-.03-.13-.05-.19-.08-.72-.3-1.43-.56-2.14-.8-.22-.07-.43-.14-.65-.21-.48-.16-.96-.3-1.43-.43-.25-.07-.49-.13-.74-.19-.43-.11-.86-.21-1.29-.29-.24-.05-.49-.1-.73-.14-.43-.08-.85-.14-1.27-.19-.22-.03-.44-.06-.66-.08-.48-.05-.94-.08-1.41-.11-.15,0-.3-.02-.45-.03-.61-.02-1.21-.02-1.79,0-.12,0-.24,.02-.36,.03-.46,.03-.92,.06-1.37,.11-.2,.02-.39,.05-.59,.08-.37,.05-.73,.11-1.08,.18-.21,.04-.42,.08-.62,.13-.34,.08-.68,.16-1.01,.25-.2,.05-.4,.11-.59,.17-.34,.1-.68,.22-1.02,.33-.17,.06-.34,.12-.51,.18-.43,.16-.85,.34-1.26,.52-.07,.03-.14,.05-.2,.09-.48,.22-.94,.45-1.4,.7-.15,.08-.29,.17-.44,.25-.31,.17-.61,.35-.91,.53-.17,.11-.34,.22-.51,.33-.27,.17-.54,.35-.8,.53-.17,.12-.34,.24-.5,.36-.26,.19-.51,.38-.77,.58-.15,.12-.31,.24-.46,.36-.27,.22-.54,.45-.81,.69-.12,.1-.24,.2-.36,.31-.38,.34-.75,.68-1.1,1.03-.07,.07-.15,.15-.22,.22-.29,.29-.57,.57-.84,.87-.12,.13-.25,.27-.37,.4-.22,.24-.44,.48-.65,.73-.13,.15-.25,.3-.38,.44-.2,.24-.4,.48-.6,.72-.12,.15-.24,.3-.36,.45-.2,.25-.4,.51-.59,.77-.1,.14-.21,.27-.31,.41-.24,.32-.46,.64-.69,.96-.05,.07-.11,.15-.16,.22-.28,.4-.54,.79-.8,1.18-.07,.11-.15,.23-.22,.34-.18,.28-.36,.56-.54,.84-.09,.15-.18,.29-.27,.44-.15,.25-.3,.5-.45,.74-.09,.15-.18,.3-.27,.45-.14,.24-.28,.48-.41,.72-.08,.15-.17,.29-.25,.44-.13,.24-.26,.48-.39,.71-.07,.14-.15,.27-.22,.41-.01,.02-.02,.04-.03,.06l-30.24-17.46,36.77-21.56c.26,.18,.51,.37,.76,.56,1.44,1.02,3.22,1.2,4.76,.64l35.65,20.58-3.35,1.93Zm63.67-24.79l38.78,22.39-39.58,22.85-38.78-22.39,39.58-22.85Zm191.48,48.58l-142.89,82.5c.23-.2,.45-.41,.68-.61,.44-.39,.88-.79,1.31-1.18,.96-.87,1.92-1.74,2.87-2.61,.45-.41,.9-.82,1.34-1.24,1.06-.99,2.11-1.98,3.16-2.98,.28-.27,.56-.53,.84-.8,1.31-1.26,2.61-2.53,3.9-3.81,.32-.32,.63-.63,.95-.95,.97-.97,1.94-1.95,2.89-2.93,.41-.42,.82-.85,1.23-1.27,.89-.92,1.77-1.85,2.64-2.78,.37-.39,.74-.79,1.11-1.18,1.21-1.3,2.4-2.6,3.57-3.9,.03-.03,.06-.06,.08-.09,1.61-1.88,3.2-3.8,4.79-5.73,.38-.46,.75-.92,1.13-1.38,1.57-1.92,3.12-3.86,4.65-5.81,.03-.04,.06-.08,.09-.12,.03,.02,.05,.03,.08,.05,.52,.35,1.08,.69,1.63,1.04,.3,.19,.59,.38,.9,.57,.88,.52,1.79,1.03,2.75,1.51,.19,.1,.39,.18,.59,.25,.06,.02,.13,.04,.19,.06,.14,.04,.28,.09,.42,.12,.08,.02,.15,.03,.23,.04,.13,.02,.26,.04,.39,.06,.08,0,.17,.01,.25,.01,.08,0,.16,.01,.25,.01,.04,0,.07,0,.11,0,.13,0,.26-.01,.38-.03,.1,0,.2-.02,.3-.03,.13-.02,.26-.05,.39-.08,.09-.02,.19-.04,.28-.07,.14-.04,.28-.09,.41-.15,.08-.03,.16-.05,.23-.09,.21-.09,.42-.2,.62-.32,1.53-.94,2.46-2.61,2.46-4.41,0-.65,0-1.31,.01-1.98,0-.23,0-.47,.01-.7,0-.44,.01-.87,.02-1.32,0-.29,.01-.6,.02-.89,0-.39,.02-.78,.03-1.17,0-.33,.02-.67,.03-1.01,.01-.37,.02-.74,.04-1.12,.01-.36,.03-.72,.04-1.09,.02-.37,.03-.74,.05-1.11,.02-.38,.04-.77,.06-1.16,.02-.37,.04-.74,.06-1.12,.02-.41,.05-.82,.07-1.23,.02-.38,.04-.76,.07-1.14,.03-.42,.05-.85,.08-1.28,.01-.18,.02-.36,.04-.53,.7-1.01,1.39-2.04,2.09-3.06,.42-.62,.85-1.23,1.26-1.85,1.17-1.74,2.32-3.48,3.46-5.24,.08-.13,.17-.26,.25-.39,1.23-1.9,2.44-3.81,3.64-5.73,.35-.57,.7-1.14,1.05-1.71,.84-1.36,1.67-2.71,2.49-4.08,.43-.72,.85-1.44,1.28-2.16,.3-.5,.6-1,.89-1.51l27.47-15.86c.26,.01,.51,.02,.77,.03,.49,.02,.99,.05,1.48,.07,.8,.03,1.61,.04,2.42,.05,.46,0,.92,.02,1.38,.02,.14,0,.27,0,.41,0,1.03,0,2.08-.02,3.12-.04,.2,0,.4-.01,.61-.02,1.03-.03,2.06-.07,3.09-.13,.31-.02,.61-.03,.92-.05,2.45-.15,4.92-.37,7.43-.65,.32-.04,.63-.07,.95-.11,1.07-.13,2.14-.27,3.22-.43,.21-.03,.42-.06,.63-.09,1.27-.19,2.54-.39,3.82-.61,.29-.05,.58-.1,.87-.16,1.05-.19,2.1-.38,3.15-.59,.32-.06,.64-.12,.96-.19,1.3-.26,2.61-.54,3.92-.84,.19-.04,.38-.09,.58-.14,1.15-.26,2.3-.54,3.46-.83,.37-.09,.74-.19,1.12-.28,1.21-.31,2.44-.63,3.67-.97,.11-.03,.23-.06,.34-.09v22.86Z"/></svg>