<?xml version="1.0" encoding="UTF-8"?><svg id="Capa_1" xmlns="http://www.w3.org/2000/svg" viewBox="0 0 500 500"><defs><style>.cls-1{fill:#5757f7;}</style></defs><path class="cls-1" d="M361.33,334.91c-1.45-1.07-3.32-1.39-5.05-.85-6.94,2.15-13.59,3.87-20.02,5.2l12.69-7.32c1.92-1.11,3.02-3.24,2.81-5.45-.08-.87-.36-1.68-.8-2.39l9.54-5.51c2.06-1.19,3.16-3.53,2.75-5.88-.16-.91-.33-1.81-.51-2.71,0,0,0,0,0,0-1.92-9.61-4.96-17.86-9.29-25.22-.02-.04-.05-.08-.07-.12-6.42-10.33-13.47-20.21-21.1-29.64,7.26-26.64,12.8-54.86,16.51-84.25,.29-2.27-.81-4.48-2.79-5.62l-1.79-1.04c.88-7.6,1.66-15.31,2.33-23.14,.18-2.1-.83-4.13-2.61-5.27-1.78-1.13-4.05-1.18-5.88-.12l-21.63,12.49-17.47-10.08,11.01-6.35,5.7,3.29c2.71,1.57,6.18,.64,7.75-2.08s.64-6.18-2.07-7.75l-5.6-3.23V.07c0-2.03-1.08-3.9-2.84-4.92l-.12-.07c-1.75-1.01-3.92-1.01-5.67,0l-109.07,62.97c-.85,.49-1.56,1.19-2.05,2.04-7.06,12.01-13.66,24.11-19.6,35.99-.43,.85-.63,1.79-.6,2.75l.18,4.88c.36,9.85,.73,19.97,.99,30.05l-15.04-8.69c-1.83-1.06-4.09-1.01-5.88,.12-.35,.22-.68,.49-.98,.78-1.25,1.25-1.84,3-1.61,4.75,.23,1.75,1.26,3.29,2.79,4.17l33.9,19.57v7.35l-36.18,20.89c-1.75,1.01-2.84,2.89-2.84,4.91v4.23c0,1.96,1.02,3.79,2.68,4.82,4.25,2.63,8.41,5.36,12.49,8.16-7.12,7.26-14.13,14.65-20.99,22.15-2.24,2.5-4.62,5.19-7.27,8.24-.9,1.03-1.4,2.36-1.4,3.73v11.68c0,2.17,1.24,4.15,3.19,5.1,16.32,7.94,33.32,15.65,51.71,23.46-2.31,2.93-4.63,5.88-6.94,8.85l-33.57,19.38c-1.75,1.01-2.84,2.89-2.84,4.91v.48c0,2.03,1.08,3.9,2.83,4.91l.1,.06c.89,.51,1.87,.77,2.88,.76l4.98,2.87c-1.7,2.23-3.37,4.44-5.01,6.61-.98,1.3-1.36,2.95-1.04,4.55,.32,1.6,1.31,2.98,2.72,3.79l44.75,25.83c-2.13,2.52-4.4,5.05-6.79,7.61l-.46,.27c-1.75,1.01-2.84,2.89-2.84,4.91,0,.36,.03,.72,.1,1.06v1.52c0,2.46,1.58,4.64,3.92,5.39,1.08,.35,2.13,.68,3.2,1.02v61.45c-18.05,17.13-38.48,33.04-58.5,45.36-1.68,1.03-2.7,2.86-2.7,4.83v4.37c0,2.03,1.08,3.9,2.84,4.91,.88,.51,1.86,.76,2.84,.76s1.96-.25,2.84-.76l52.69-30.42v21.14c0,2.06,1.11,3.95,2.91,4.95,.86,.48,1.81,.72,2.77,.72,1.03,0,2.06-.28,2.97-.84,28.33-17.43,57.47-41.8,79.94-66.87,.03-.03,.06-.07,.09-.1,5.15-6.03,10.22-12.31,15.06-18.65,.09-.12,.15-.25,.23-.37l59.28-34.23c1.75-1.01,2.84-2.88,2.84-4.91v-35.86c.01-1.8-.84-3.5-2.29-4.57ZM247.51,107.67c-2.25,4.78-4.43,9.57-6.53,14.37-.33,.51-.57,1.07-.72,1.66-.34,.78-.68,1.56-1.01,2.33-4.68-.44-9.38-.83-14.1-1.16l-3.72-2.15,26.08-15.06Zm-46.01,78.69c2.5-2.34,5.02-4.66,7.54-6.96v3.78c-.66,.91-1.05,2-1.08,3.16-.51,.12-1.02,.3-1.49,.57-1.17,.65-2.04,1.69-2.52,2.9-.82-.53-1.63-1.07-2.46-1.59v-1.86Zm68.87,131.65l.31-.18c.8-.46,1.45-1.1,1.93-1.85l.68,.39-2.87,1.66s-.03-.01-.05-.02Zm-47.32-97.03c.18-.19,.36-.38,.54-.57,.11,.16,.22,.32,.35,.47-.3,.32-.6,.64-.9,.96v-.86Zm8.56,119.45l-.82,.47c.27-.36,.55-.72,.82-1.08,0,.2,0,.41,0,.61Zm51.54-93.47v-25.5c.51,.42,1,.85,1.51,1.27v25.97c-.51-.58-1-1.17-1.51-1.74Zm0-40.06v-19.26c0-2.03-1.08-3.9-2.84-4.91l-.49-.28c1.62,.83,3.24,1.66,4.85,2.51v23.15c-.51-.4-1.01-.8-1.52-1.2Zm-61.01,126.64c-.69,.91-1.38,1.82-2.07,2.73,.49-1.03,.97-2.06,1.45-3.09l.63,.36Zm76.35-71.19l-2.51-1.45v-28.16c.85,.78,1.68,1.56,2.51,2.35v27.26Zm-2.5-44.86v-26.27c.84,.48,1.67,.96,2.5,1.44v27.03c-.83-.74-1.66-1.47-2.5-2.2Zm-42.72-95.21c.03-.06,.05-.12,.08-.18,0,.04,0,.09,0,.13l-.08,.05Zm27.62,232.09l3.99-2.3c1.72,.3,3.46,.55,5.2,.77l-5.93,3.42-3.27-1.89Zm16.27,7.48c-.05,.61-.09,1.23-.14,1.84l-1.52-.88,1.66-.96Zm10-35.74c.34-.77,.69-1.53,1.03-2.3,.61,.22,1.22,.43,1.83,.65l-2.86,1.65Zm6.69-66.26v-8.94c.64,.71,1.29,1.41,1.92,2.13-.63,2.28-1.27,4.56-1.92,6.82Zm-105.95,52.22v.17l-.15-.08,.15-.08Zm14.15,62.66l1.56,.9c.33,.19,.67,.33,1.03,.45l5.42,3.13c-.02,.21-.04,.41-.06,.62-3.28-.93-6.6-1.91-9.95-2.91,.68-.73,1.34-1.46,2-2.19Zm73.88,2.25c-.54,6.01-1.09,12.2-1.53,18.31-1.11,1.58-2.19,3.09-3.24,4.55-5.5-4.08-11.85-7.98-20.07-10.03-.09-.02-.17-.04-.26-.06-3.78-.76-7.6-1.58-11.43-2.45,1.43-2.21,2.83-4.44,4.22-6.68,.79-.08,1.58-.31,2.29-.72l18.25-10.54,11.84,6.84c-.02,.26-.05,.52-.07,.78Zm13.71-39.2l14.48-8.36c1.37,.48,2.72,.95,4.07,1.42l-18.58,10.73c.02-1.27,.03-2.53,.03-3.79Zm17.69-23.32c-4.38-1.54-8.81-3.11-13.29-4.71,.73-1.84,1.45-3.68,2.17-5.53l14.44,8.33-3.31,1.91Zm-8.14-74.51c-1.76-1.89-3.54-3.76-5.34-5.61v-42.45c0-1.96-1.02-3.79-2.68-4.82-.51-.32-1.03-.62-1.54-.94-.39-1.41-1.32-2.64-2.62-3.39l-10.99-6.35v-3.43s20.42-11.79,20.42-11.79l15.63,9.02c-3.1,24.4-7.38,47.6-12.86,69.75Zm-41.56-119.48l-4.51,2.6-5-2.89s-.02,0-.02-.01c-.01,0-.02-.01-.04-.02-1.06-.62-2.28-.86-3.46-.73-.18-5.41-.38-10.8-.57-16.11l-.18-4.88c0-.06-.02-.12-.02-.19l24.14-13.94c.14,4.47,.3,8.86,.45,13.09-3.79,7.62-7.39,15.34-10.79,23.06Zm-76.15,18.87c1.1-.86,2.19-1.7,3.26-2.53l3.73,2.15v3.27c-2.32-.63-4.65-1.25-6.99-1.85v-1.04Zm6.37,25.39l.54,.31c-.5,.23-.97,.54-1.39,.91-1.85,1.65-3.68,3.33-5.51,5v-2.54l6.37-3.68Zm-15.96,30.75c.29,.28,.6,.53,.95,.75,3.64,2.24,7.19,4.56,10.71,6.92v16.44c-6.33-5.62-12.94-11-19.81-16.16,2.7-2.67,5.42-5.32,8.16-7.95Zm7.27,97.29c1.42,1.42,2.84,2.81,4.27,4.17l-2.23,1.29c-1.9,1.1-3,3.2-2.82,5.39,.02,.26,.06,.52,.12,.78l-5.3,3.06c-1.75,1.01-2.84,2.89-2.84,4.91v.48c0,2.03,1.08,3.9,2.83,4.91l.1,.06c.89,.51,1.87,.77,2.88,.76l11.71,6.76v9.24c-.26,.53-.52,1.04-.77,1.56l-31.3-18.07c5.33-6.98,10.82-14.14,16.37-21.27l6.98-4.03Zm43.37,129.96c1.76,.88,3.85,.79,5.52-.25,.49-.3,.91-.67,1.28-1.09,.8,.46,1.62,.92,2.48,1.34,.8,.4,1.67,.6,2.54,.6,1.04,0,2.07-.28,2.98-.85,1.67-1.03,2.69-2.86,2.69-4.83,0-5.1,.19-10.56,.58-16.96,.25,.05,.49,.11,.74,.15,8.44,2.14,14.43,6.81,20.68,11.8l-73.14,42.22v-4.57c5.62-5.48,11-11.06,16.04-16.68,.03-.03,.06-.07,.09-.1,3.96-4.64,7.87-9.42,11.66-14.26,1.79,1.21,3.75,2.41,5.86,3.46Zm104.59-109.49c0-.13,.03-.26,.03-.39v-.59c0-.13-.02-.25-.03-.38l1.18,.68-1.18,.68Zm-3.41-22.63c1.58,2.7,2.97,5.56,4.16,8.61l-24.71-14.25c.29-.87,.6-1.73,.89-2.6,0,0,0,0,0-.01,1.51-4.56,2.97-9.18,4.37-13.85,5.43,7.12,10.54,14.48,15.28,22.1Zm-9.48-139.71c-.23,2.36-.48,4.71-.74,7.04l-5.73-3.31,6.47-3.73Zm-38.23,8.97v-10.47s9.07,5.24,9.07,5.24l-9.07,5.24Zm-90.99-92.7L304.41,9.76V121.73l-8.38,4.84v-1.41c0-2.03-1.08-3.9-2.83-4.91-.84-.48-1.77-.73-2.71-.75,2.79-6.14,5.7-12.26,8.74-18.32,.43-.85,.63-1.79,.6-2.75-.28-7.58-.56-15.73-.77-23.93-.05-2-1.15-3.82-2.9-4.8-1.75-.98-3.88-.96-5.61,.04l-40.74,23.52c4.73-9.09,9.82-18.27,15.18-27.39,1.31-2.22,.95-5.04-.86-6.87-1.81-1.83-4.63-2.21-6.86-.92l-20.19,11.66c-1.8,1.04-2.89,2.98-2.83,5.06,.21,8.26,.5,16.44,.78,24.05,.03,.92,.29,1.78,.72,2.54l-32.72,18.89c-1.75,1.01-2.84,2.88-2.84,4.91v.84c-2.41,1.85-5.15,3.97-7.85,6.09-1.37,1.08-2.16,2.72-2.16,4.46v1.03c-.58-.13-1.16-.28-1.74-.41-.26-11.37-.68-22.79-1.08-33.88l-.13-3.42c5.45-10.81,11.44-21.81,17.83-32.73Zm-40.75,122.73l25.88-14.94v6.5c-5.29,5-10.54,10.08-15.72,15.23-3.33-2.32-6.71-4.58-10.15-6.79Zm-16.29,51.22c2.07-2.36,3.97-4.51,5.74-6.49,7.15-7.82,14.47-15.52,21.92-23.09,8.09,6,15.8,12.34,23.12,19-1.07,1.2-2.14,2.41-3.2,3.61,0,0,0,0,0,0-2.44,2.79-5.08,5.85-8.07,9.35-1.13,1.33-1.59,3.11-1.24,4.82,.35,1.71,1.47,3.17,3.03,3.94,2.24,1.11,4.49,2.22,6.74,3.32,0,0,0,0,.01,0,.35,.17,.71,.34,1.06,.51-.65,2.43,.38,5.06,2.64,6.37l3.58,2.06c-1.47,1.81-2.94,3.64-4.43,5.48-18.12-7.64-34.87-15.17-50.9-22.9v-5.99Zm17.6,71.04l.86-.5c-.18,.23-.35,.46-.52,.69l-.33-.19Zm1.32,17.63c.66-.87,1.33-1.75,1.99-2.62l35.47,20.48c.77,1.28,2.02,2.2,3.49,2.57,.01,0,.02,0,.03,0v2.51c-.12,.17-.24,.34-.37,.51l-40.62-23.45Zm61.97,63.46c-.09,1.21-.18,2.42-.27,3.62-.17,2.54,1.37,4.89,3.77,5.74,.62,.22,1.26,.32,1.89,.32,1.81,0,3.57-.87,4.65-2.42,.39-.56,.78-1.14,1.17-1.7-.2,3.04-.35,5.89-.46,8.59-.2-.15-.4-.31-.6-.46-1.2-.92-2.71-1.33-4.21-1.13-1.5,.2-2.85,.98-3.77,2.18-4.7,6.16-9.61,12.25-14.62,18.11-2.43,2.71-4.96,5.42-7.55,8.11v-46.66c6.79,2.05,13.46,3.96,19.99,5.7Zm-32.92,69.09c.53-.47,1.06-.95,1.59-1.43v.51l-1.59,.92Zm12.93,22.97v-17.33l64.5-37.24c-18.75,20.08-41.63,39.43-64.5,54.57Zm143.39-113.22l-47.01,27.14c.19-.51,.31-1.04,.34-1.58,.45-6.5,1.04-13.19,1.62-19.66,.68-7.6,1.36-15.33,1.83-23l2.05-1.18c12.9-.43,26.49-2.66,41.18-6.73v25.01Z"/></svg>