<?xml version="1.0" encoding="UTF-8"?><svg id="Capa_1" xmlns="http://www.w3.org/2000/svg" viewBox="0 0 500 500"><defs><style>.cls-1{fill:#5757f7;}</style></defs><path class="cls-1" d="M393.32,198.9c2.27-1.31,3.67-3.73,3.67-6.35l.02-46.39c0-2.33-1.11-4.53-2.98-5.91-1.88-1.38-4.3-1.79-6.53-1.1-4.86,1.51-9.61,2.86-14.27,4.05,.61-5.91,1.18-11.87,1.69-17.89,.23-2.72-1.07-5.35-3.38-6.81-2.31-1.47-5.24-1.53-7.6-.16l-30.76,17.76-23.63-13.64v-16.71c0-2.62-1.39-5.05-3.66-6.36-2.27-1.31-5.07-1.31-7.34,0l-14.48,8.36-10.59-6.12s-.02-.01-.03-.02l-.09-.05c-2.27-1.3-5.05-1.29-7.32,.01l-51.35,29.64c-1.73-2.44-3.46-4.88-5.19-7.3-.46-.64-1.02-1.2-1.65-1.67l-.56-.41c-2.23-1.63-5.19-1.88-7.65-.63-2.07,1.05-3.48,3-3.89,5.23l-1.17-.68c-2.57-1.48-5.78-1.27-8.14,.53-1.74,1.33-3.64,2.8-5.61,4.32l-44.75-25.83c-2.78-1.6-6.26-1.21-8.61,.93-.09,.08-.17,.16-.25,.24-1.61,1.61-2.38,3.88-2.09,6.15,.3,2.26,1.63,4.26,3.61,5.4l43.85,25.32v12.72l-46.8,27.02c-2.27,1.31-3.67,3.73-3.67,6.35v5.48c0,2.54,1.31,4.9,3.47,6.24,1.91,1.19,3.8,2.4,5.69,3.61-5.62,5.89-11.2,11.83-16.69,17.83-2.89,3.23-5.97,6.71-9.41,10.65-1.17,1.34-1.81,3.05-1.81,4.83v15.11c0,2.81,1.6,5.37,4.13,6.6,6.86,3.34,13.81,6.64,20.88,9.93-.87,1.14-1.73,2.28-2.58,3.4-1.27,1.68-1.76,3.82-1.35,5.89s1.7,3.85,3.52,4.9l26.96,15.56c.09,2.69,.18,5.38,.26,8.07-15.85,12.97-32.38,24.87-48.71,34.92-2.17,1.34-3.49,3.7-3.49,6.25v5.65c0,2.62,1.4,5.04,3.67,6.35,1.14,.66,2.4,.98,3.67,.98s2.53-.33,3.67-.98l44.18-25.51c.93,.85,2.08,1.47,3.38,1.76,11.52,2.51,22.86,5.34,33.98,8.44v27.35c0,1.27,.33,2.49,.94,3.57-1.71,3.56-3.45,7.11-5.23,10.63-1.01,1.99-1.05,4.34-.12,6.37,.93,2.03,2.74,3.53,4.91,4.06,12.81,3.17,25.88,4.76,39.52,4.76,16.38,0,33.57-2.31,52.1-6.95,1.41,.49,2.83,.98,4.23,1.47,.05,.02,.11,.04,.16,.05,3.19,1.03,6.58,1.98,10.66,2.99,.59,.15,1.18,.22,1.76,.22,2.72,0,5.27-1.52,6.55-4.03,3.35-6.62,6.6-13.36,9.74-20.2,1.04-.1,2.06-.4,3-.94,2.27-1.31,3.67-3.73,3.67-6.35v-7.84c1.48-3.47,2.93-6.96,4.35-10.47,8.58,3.02,17.01,5.97,25.21,8.82,.79,.27,1.6,.41,2.41,.41,1.27,0,2.54-.33,3.67-.98l29.91-17.27c2.66-1.54,4.08-4.57,3.56-7.6-.2-1.18-.42-2.35-.66-3.52h0c-2.48-12.44-6.42-23.11-12.01-32.63-.03-.05-.06-.1-.09-.15-6.54-10.53-13.58-20.69-21.1-30.5l15.34-8.86c2.49-1.44,3.91-4.19,3.64-7.04-.27-2.86-2.18-5.29-4.89-6.24-3.77-1.31-7.59-2.65-11.44-3.99,2.03-9.27,3.91-18.67,5.64-28.18l22.37-12.92Zm-11.01-10.59l-8.18,4.72c1.35-8.57,2.59-17.23,3.69-25.97,.37-2.93-1.05-5.8-3.61-7.27l-2.1-1.21c3.36-.8,6.76-1.66,10.21-2.61v32.35Zm-98.26-63.62l10.8,6.23v16.54c-2.61-.5-5.19-1.06-7.76-1.69-3.32-.82-6.77,.76-8.31,3.81-.54,1.08-1.11,2.14-1.66,3.22v-24.1l6.93-4Zm71.71,41.4c-1.83,14.05-3.97,27.8-6.42,41.25l-14.29,8.25v-51.23c4.92-.32,9.92-.84,15.01-1.56l5.7,3.29Zm-79.57,208.27c-.34-9.8-1.31-18.7-2.91-26.86l3.59-2.07,5,2.88c1.13,.65,2.4,.98,3.67,.98s2.54-.33,3.67-.98c2.27-1.31,3.67-3.73,3.67-6.35v-5.76l.53-.31c.46,.17,.92,.34,1.38,.5v41.15c-1.77,.51-3.51,1-5.24,1.47-4.43-1.54-8.89-3.09-13.35-4.64Zm33.28-64.7v-3.77c.87-1.16,1.74-2.33,2.63-3.54,.08-.03,.16-.06,.23-.1l.4,.23v5.3l-3.26,1.88Zm-92.55-140.38c-.35-.5-.71-1-1.06-1.49l1.82,1.05-.76,.44Zm118.14,86.39c1.01,1.15,2,2.32,2.99,3.48-.28,1.09-.57,2.17-.85,3.25l-2.14,1.24v-7.96Zm-25.54-77.44v-11.55s3.83-2.21,3.83-2.21c2.33,.13,4.68,.22,7.04,.26v19.71c-3.58-2.11-7.2-4.18-10.87-6.21Zm-113.93-10.35c-1.27-.41-2.55-.81-3.83-1.23-.39-.13-.79-.21-1.19-.27,1.67-1.54,3.35-3.07,5.03-4.6v6.1Zm146.47,60.61l3.57-2.06c-.26,1.23-.51,2.46-.77,3.68l-2.8-1.62Zm-169.48-45.07v12.95l-14.49,8.36c-1.35-.98-2.71-1.95-4.07-2.91,6.12-6.21,12.31-12.35,18.56-18.4Zm-10.96,42.29c-3.22,4.15-6.42,8.3-9.59,12.43l-11.22-6.48,16.29-9.41c1.51,1.15,3.03,2.29,4.52,3.46Zm11.39,9.26c.13,.11,.27,.22,.4,.34-2.17,3.83-4.3,7.66-6.38,11.48l-2.18-1.26c2.7-3.51,5.42-7.04,8.16-10.56Zm-12.88,24.78c-1.09,2.09-2.16,4.17-3.21,6.24-1.93-.85-3.85-1.71-5.76-2.56,1.55-2.04,3.12-4.09,4.69-6.15l4.28,2.47Zm14.9,30.1c-.83,.76-1.66,1.52-2.5,2.27l-3.22-1.86c-.03-.97-.07-1.93-.11-2.9,1.93,.83,3.87,1.65,5.82,2.48Zm72.16,38.43l6.28,3.62c.27,.66,.55,1.32,.81,1.99v7.62l-7.71,4.45c-3.32-1.24-6.67-2.45-10.05-3.64,3.6-4.72,7.15-9.4,10.68-14.05Zm111.8-190.17c-.28,2.83-.57,5.65-.88,8.45-1.73,.33-3.45,.64-5.16,.93l-5.1-2.95,11.14-6.43Zm-42.14,5.48l-7.32,4.22v-8.45s7.32,4.22,7.32,4.22Zm-54.39-22.98c-1.07,1.18-1.76,2.68-1.89,4.31-.89,10.54-1.95,20.9-3.16,31.11l-7.59-4.38c-2.13-1.23-4.73-1.31-6.93-.22-.64,.32-1.21,.73-1.72,1.2l-17.13-9.89,38.43-22.18v.06Zm-123.34,71.16l9.86-5.69c-2.44,2.45-4.88,4.9-7.31,7.37-.85-.56-1.7-1.13-2.56-1.68Zm4.99,21.02l-1.69,.98c.41-.43,.82-.87,1.23-1.3,.15,.11,.31,.21,.46,.32Zm-26.06,35.23v-7.75c.8-.91,1.57-1.79,2.33-2.65,.48,.5,1.02,.94,1.64,1.29l.13,.07c1.15,.66,2.44,.98,3.71,.97l17.19,9.92c-1.87,2.45-3.73,4.89-5.57,7.31-6.57-3.04-13.05-6.09-19.42-9.16Zm30.97,30.52c1.75,.78,3.51,1.56,5.27,2.34,0,.24,.02,.48,.03,.72l-5.3-3.06Zm33.14,42.26v5.35c-2.17-.54-4.35-1.06-6.53-1.57l6.53-3.77Zm26.4,63.71c2.49-5.11,4.9-10.28,7.25-15.48,4.23-4.77,8.11-9.51,11.72-14.26,5.77,1.98,11.47,4.02,17.07,6.15,.85,.32,1.73,.48,2.61,.48,1.27,0,2.54-.33,3.67-.98l2.81-1.62c.62,5.72,.96,11.83,1.03,18.47,.03,3.1,2,5.85,4.93,6.86,.72,.25,1.43,.5,2.14,.74-18.98,2.81-36.47,2.68-53.23-.36Zm150.07-41.11c-7.02-2.45-14.21-4.97-21.51-7.53,1.98-5.24,3.89-10.51,5.74-15.83,.53-.38,1.02-.82,1.45-1.35,.15-.19,.3-.38,.43-.58,.69-1.04,1.1-2.22,1.2-3.44l31.24,18.02-18.56,10.72Zm18.01-27.98l-27.1-15.63c1.97-6.31,3.86-12.71,5.66-19.17,5.65,7.67,11.01,15.55,16.05,23.67,2.05,3.49,3.84,7.19,5.38,11.14Z"/></svg>