<?xml version="1.0" encoding="UTF-8"?><svg id="Capa_1" xmlns="http://www.w3.org/2000/svg" viewBox="0 0 500 500"><defs><style>.cls-1{fill:#5757f7;}</style></defs><path class="cls-1" d="M429.81,302.72c.09,.55,.45,1.01,.95,1.25,.23,.11,.48,.16,.72,.16,.29,0,.59-.08,.85-.23l.73-.42c.53-.3,.85-.86,.85-1.47v-.29c0-.61-.32-1.17-.85-1.47l-.96-.56c-.58-.33-1.3-.3-1.84,.09-.54,.39-.81,1.06-.68,1.71,.08,.41,.16,.81,.23,1.22Z"/><path class="cls-1" d="M164.65,89.14c-.53,.3-.85,.86-.85,1.47v10.52c0,.77,.52,1.45,1.27,1.64,4.24,1.11,8.41,2.34,12.49,3.67-.07,.05-.14,.09-.2,.15-.34,.32-.53,.77-.53,1.23v27.72c0,.35,.1,.7,.31,.98l.22,.31c.11,.15,.23,.28,.38,.39,4.01,2.93,8.23,5.82,12.58,8.66v.15l-5.76,3.32c-.53,.3-.85,.86-.85,1.47v21.82c-2.75-.7-5.54-1.36-8.35-1.98-.51-.11-1.04,.02-1.44,.35-.4,.33-.63,.83-.62,1.35,.24,12.89,.13,29.9-2.95,47.12-.13,.73,.23,1.46,.88,1.8,2.88,1.51,5.82,3.02,8.75,4.47,.24,.12,.5,.18,.76,.18,.49,0,.96-.21,1.29-.6,1.15-1.34,2.3-2.68,3.47-4.02,.27-.31,.42-.71,.42-1.12v-24.28l21.94-12.67c.57-.33,.9-.95,.84-1.61-.05-.65-.48-1.22-1.09-1.45-5.85-2.23-11.96-4.24-18.25-6.01,.28-.32,.57-.64,.85-.96,9.52-10.41,19.62-20.41,30.04-29.73,.43-.38,.63-.96,.55-1.53-.09-.57-.46-1.05-.98-1.29-1.89-.85-3.83-1.69-5.81-2.51,1.22-1.18,2.44-2.35,3.67-3.52,2.97,1.92,6,3.83,9.1,5.69,.27,.16,.57,.24,.88,.24,.23,0,.46-.05,.68-.14,.5-.22,.87-.67,.99-1.21,2.34-11,5.55-22.02,9.56-32.75,.25-.67,.05-1.43-.49-1.89-.55-.46-1.33-.53-1.95-.17l-23.82,13.75c.72-1.93,1.46-3.85,2.23-5.76,.19-.48,.16-1.01-.09-1.46-.25-.45-.68-.76-1.19-.85-4.8-.86-9.7-1.59-14.68-2.2l-32.54-18.78c-.53-.3-1.17-.3-1.7,0Zm38.38,92.99l-19.66,11.35c-.53,.3-.85,.86-.85,1.47v24.62c-.74,.85-1.48,1.71-2.21,2.56-2.14-1.07-4.28-2.17-6.39-3.27,2.76-16.14,3.01-31.95,2.82-44.39,2.35,.53,4.68,1.1,6.98,1.7,.03,.68,.45,1.29,1.09,1.53,.19,.07,.4,.11,.6,.11,.48,0,.95-.21,1.28-.58,.06-.06,.11-.13,.17-.19,5.54,1.52,10.96,3.21,16.17,5.09Zm7.56-45.33c-.6-.23-1.2-.47-1.8-.7-.48-.18-1.01-.14-1.46,.12l-.79,.45c.74-2.63,1.55-5.26,2.39-7.88,1.9,1.33,3.84,2.65,5.82,3.96-1.4,1.33-2.78,2.69-4.16,4.05Zm-3.61,3.54c-.66,.66-1.3,1.33-1.95,1.99,.09-.34,.16-.67,.25-1.01l1.7-.98Zm27.12-30.64c-3.06,8.73-5.61,17.61-7.6,26.5-2.12-1.3-4.21-2.61-6.27-3.94,2.04-1.9,4.09-3.79,6.16-5.63,.43-.38,.63-.96,.55-1.53-.09-.57-.46-1.05-.98-1.29-3.07-1.39-6.22-2.71-9.44-3.96l17.58-10.15Zm-21.37,12.34c3.22,1.21,6.37,2.47,9.44,3.81-1.64,1.48-3.25,3-4.87,4.52-2.48-1.64-4.9-3.29-7.26-4.96,.26-.76,.51-1.51,.78-2.27l1.91-1.1Zm-12.86-7.98c.68-.61,1.36-1.21,2.04-1.81,.15-.13,.26-.29,.36-.46,2.91,.4,5.8,.83,8.64,1.31-.54,1.36-1.06,2.73-1.56,4.09-3.13-1.09-6.32-2.12-9.56-3.08,.03-.02,.06-.03,.09-.05Zm-6.16,1.84c4.94,1.35,9.77,2.84,14.47,4.48-.05,.15-.11,.29-.16,.44l-3.39,1.96c-.5,.29-.82,.81-.85,1.38s.23,1.13,.7,1.46c.5,.36,1.03,.72,1.53,1.09-1.34,4.11-2.56,8.23-3.67,12.36l-8.61,4.97-.03-.02v-28.13Zm7.46,27.78c-.28,1.13-.54,2.26-.79,3.39-.23,.24-.45,.48-.68,.72-.92-.56-1.82-1.13-2.72-1.7l4.19-2.42Zm-7.46,4.39c1.2,.76,2.41,1.51,3.63,2.25-1.16,1.24-2.34,2.48-3.49,3.73,0,0,0,0-.01,.01-.04,.04-.08,.09-.12,.13v-6.13Zm2.65,8.27c1.29-1.41,2.6-2.82,3.91-4.21,.05,.03,.1,.06,.15,.09,.27,.16,.57,.24,.88,.24,.23,0,.46-.05,.68-.14,.5-.22,.87-.67,.99-1.21,.17-.79,.36-1.59,.54-2.39,2.59-2.69,5.21-5.35,7.87-7.97,1.58,.64,3.15,1.29,4.67,1.95-9.81,8.89-19.33,18.37-28.34,28.22-.2,.22-.4,.44-.59,.66v-19.79l3.21-1.85v8.74c0,.71,.44,1.34,1.1,1.59,.2,.07,.4,.11,.6,.11,.48,0,.95-.2,1.28-.58,1.01-1.16,2.04-2.31,3.07-3.47Zm-3.92-44.3c-.51-.13-1.05-.02-1.47,.3-.42,.32-.66,.82-.66,1.35v28.13c-3.48-2.3-6.85-4.64-10.1-7v-25.21c2.65,.16,5.28,.35,7.89,.58,1.74,.67,3.46,1.36,5.16,2.08-.27-.07-.55-.15-.82-.22Zm-25.25-18.5l23.31,13.46c-.55-.05-1.1-.1-1.65-.15-6.94-2.66-14.17-5.03-21.66-7.04v-6.27Z"/><path class="cls-1" d="M211.84,96.07c3.74,1.42,7.39,2.94,10.84,4.51,.22,.1,.46,.15,.7,.15,.41,0,.82-.15,1.13-.43,6.32-5.65,12.92-11.2,19.62-16.47,.41-.32,.65-.81,.65-1.34v-5.65c0-.61-.36-1.19-.89-1.49-.53-.3-1.17-.3-1.7,0l-30.6,17.67c-.57,.33-.9,.95-.84,1.61,.05,.65,.48,1.22,1.09,1.45Zm29.55-16.33v1.92c-6.24,4.94-12.39,10.1-18.31,15.36-2.18-.97-4.43-1.92-6.72-2.84l25.03-14.45Z"/><path class="cls-1" d="M499.18,374.95c-.08-.44-.16-.87-.24-1.31,0,0,0,0,0,0-.92-4.61-2.37-8.56-4.46-12.11-11.99-19.31-28.37-35.44-48.69-47.95,0,0,0,0,0,0-6.27-3.86-12.97-7.41-19.89-10.55-.61-.28-1.33-.17-1.83,.28-10.5,9.39-20.69,19.48-30.29,29.98-1.21,1.35-2.39,2.7-3.57,4.04-.27,.31-.42,.71-.42,1.12v5.75c0,.65,.37,1.24,.96,1.53,9.27,4.51,18.99,8.87,29.69,13.33,22.51,9.37,45.43,17.48,65.14,24.36,.18,.06,.37,.09,.56,.09,.29,0,.59-.08,.85-.23l11.38-6.57c.62-.36,.95-1.06,.83-1.76Zm-52.59-56.85c18.67,11.99,33.8,27.19,44.98,45.19,1.29,2.19,2.31,4.57,3.1,7.22l-48.08-27.73v-24.68Zm-53.42,25.04v-4.05c1.03-1.18,2.07-2.35,3.11-3.52,9.26-10.13,19.09-19.88,29.21-28.99,6.14,2.82,12.08,5.98,17.69,9.39v26.53c-.05,.06-.09,.13-.14,.2-.04,.06-.07,.13-.09,.19l-22.01,12.71c-9.97-4.17-19.08-8.25-27.78-12.46Zm92.78,36.81c-18.57-6.47-39.92-14.04-61.04-22.71l19.96-11.52,50.21,28.96-9.14,5.28Z"/><path class="cls-1" d="M409.78,57.77c.24,.11,.49,.17,.74,.17,.37,0,.75-.12,1.05-.36,1.38-1.09,2.77-2.16,4.16-3.23,.45-.35,.7-.89,.66-1.46-.04-.57-.35-1.08-.85-1.36l-4.18-2.41c-.53-.3-1.17-.3-1.7,0-.53,.3-.85,.86-.85,1.47v5.65c0,.65,.37,1.25,.96,1.53Z"/><path class="cls-1" d="M226.13,308.87l27.06,15.61c.26,.15,.56,.23,.85,.23s.59-.08,.85-.23c.53-.3,.85-.86,.85-1.47v-61.35c0-.61-.32-1.17-.85-1.47l-15-8.66c-.49-.28-1.1-.3-1.61-.05-.51,.25-.86,.75-.93,1.31-.79,6.23-1.76,12.33-2.88,18.32-4.96-2.22-9.74-4.46-14.4-6.72-.53-.26-1.15-.22-1.65,.09-.5,.31-.8,.86-.8,1.44v30.38c0,.61,.32,1.17,.85,1.47,.26,.15,.56,.23,.85,.23s.59-.08,.85-.23l9.52-5.5c-1.33,4.98-2.77,9.86-4.34,14.6-.25,.77,.06,1.6,.76,2.01Zm10.89-32.92c2.64,1.16,5.34,2.32,8.1,3.49l-10.16,5.87c.73-3.08,1.42-6.2,2.06-9.36Zm-15.98,17.39v-24.73c4.15,1.99,8.4,3.96,12.79,5.92-.88,4.44-1.85,8.81-2.92,13.1l-9.88,5.7Zm12.81-3.47l15.94-9.2c.56-.32,.89-.94,.85-1.58-.04-.65-.45-1.21-1.04-1.46-4.11-1.71-8.07-3.41-11.92-5.1,1.04-5.5,1.96-11.09,2.73-16.78l11.94,6.89v57.42l-23.31-13.44c1.77-5.42,3.37-11.02,4.82-16.74Z"/><path class="cls-1" d="M394.96,269.05c-.46,.32-.73,.84-.73,1.4v7.49c0,.61,.32,1.17,.85,1.47,.26,.15,.56,.23,.85,.23s.59-.08,.85-.23l7.87-4.54c.57-.33,.9-.96,.84-1.62s-.49-1.22-1.1-1.45c-2.62-.97-5.24-1.95-7.86-2.94-.52-.2-1.11-.13-1.57,.19Zm2.67,3.86c.73,.28,1.46,.55,2.19,.82l-2.19,1.27v-2.09Z"/><path class="cls-1" d="M333.11,352.74c-.17-.73-.8-1.26-1.54-1.31-3.33-.22-6.67-.74-9.93-1.54-.77-.19-1.57,.18-1.92,.88-1.84,3.64-3.82,7.28-5.88,10.83-.39,.67-.28,1.51,.27,2.05,.33,.33,.76,.5,1.2,.5,.29,0,.58-.07,.85-.23l16.15-9.33c.65-.37,.98-1.13,.81-1.86Zm-13.29,5.14c.79-1.46,1.56-2.92,2.32-4.38,1.32,.29,2.64,.54,3.98,.75l-6.29,3.63Z"/><path class="cls-1" d="M343.77,384.6c-1.44-.36-2.63-.69-3.74-1.05-3.18-1.11-6.39-2.22-9.61-3.34-.52-.18-1.1-.1-1.55,.23-.45,.32-.71,.84-.71,1.4,.06,5.93-.45,12.26-.98,18.23-.06,.66,.27,1.29,.84,1.62l1.64,.95c.26,.15,.56,.23,.85,.23s.59-.08,.85-.23l6.92-3.99c.26-.15,.47-.36,.62-.62,2.1-3.61,4.11-7.32,5.97-11,.23-.46,.24-1.01,.03-1.48-.22-.47-.63-.82-1.14-.94Zm-7.58,11.32l-5.51,3.18c.42-4.88,.81-9.96,.88-14.89,2.47,.86,4.93,1.71,7.37,2.56,.01,0,.02,0,.04,.01,.61,.2,1.24,.39,1.91,.57-1.49,2.87-3.06,5.74-4.69,8.56Z"/><path class="cls-1" d="M293.5,105.73c4.21,1.91,8.32,3.98,12.31,6.18-2.08,1.78-4.14,3.58-6.17,5.39-.43,.38-.63,.96-.55,1.53,.09,.57,.46,1.05,.98,1.29,6.8,3.08,13.36,6.56,19.51,10.34,.27,.17,.58,.25,.89,.25,.29,0,.57-.07,.83-.22,.54-.3,.87-.87,.87-1.48v-26.99c0-.65-.37-1.25-.96-1.53-.59-.29-1.28-.21-1.79,.19-3.17,2.5-6.31,5.06-9.42,7.66l-12.91-7.45c-.63-.37-1.43-.29-1.97,.2-.69,.61-1.37,1.22-2.05,1.83-.43,.38-.63,.96-.55,1.53,.09,.57,.46,1.05,.98,1.29Zm19.91,10.59c.27,.17,.58,.26,.9,.26,.28,0,.57-.07,.83-.21,.54-.3,.87-.87,.87-1.49v-2.08c0-.61-.32-1.17-.85-1.47l-2-1.15c1.86-1.55,3.73-3.1,5.62-4.62v20.45c-4.78-2.83-9.78-5.47-14.93-7.89,1.69-1.49,3.42-2.96,5.14-4.43,1.49,.86,2.97,1.74,4.42,2.64Z"/><path class="cls-1" d="M398.87,184.18c.54-.31,.87-.9,.85-1.53-.02-.63-.39-1.19-.95-1.47-1.1-.54-2.2-1.08-3.29-1.62-.7-.35-1.54-.17-2.05,.42-1.92,2.24-3.86,4.56-5.77,6.88-.52,.63-.52,1.55,.01,2.18,.33,.39,.81,.6,1.3,.6,.29,0,.58-.07,.85-.23l9.06-5.23Z"/><path class="cls-1" d="M258.99,392.73c-1.53-.62-3.05-1.23-4.55-1.85-11.01-4.53-16.77,3.88-20.56,11.72-.39,.8-.09,1.77,.68,2.21l3.65,2.11c.26,.15,.56,.23,.85,.23s.59-.08,.85-.23l19.3-11.14c.56-.33,.89-.94,.85-1.59s-.46-1.21-1.06-1.46Zm-19.93,10.76l-1.41-.81c4.6-8.89,9.03-11.31,15.5-8.64,.45,.18,.89,.36,1.34,.55l-15.43,8.91Z"/><path class="cls-1" d="M192.46,307.38c-.54-.6-1.42-.74-2.12-.34l-32.12,18.55c-.53,.3-.85,.86-.85,1.47v.24c0,.61,.38,1.2,.9,1.5,.35,.2,.74,.26,1.12,.2l15.49,8.94c.27,.15,.56,.23,.85,.23,.52,0,1.02-.24,1.36-.67,5.75-7.58,12.27-16.17,18.73-24.34,.52-.66,.48-1.61-.1-2.22-1.08-1.14-2.18-2.34-3.26-3.56Zm-17.18,26.87l-12.64-7.3,28.2-16.28c.46,.51,.93,1.02,1.4,1.52-5.85,7.42-11.7,15.12-16.96,22.05Z"/><path class="cls-1" d="M335.37,214.41c2.88,1.52,5.82,3.02,8.75,4.47,.24,.12,.5,.18,.76,.18,.49,0,.96-.21,1.29-.6,1.3-1.52,2.61-3.04,3.94-4.56,.27-.31,.42-.71,.42-1.12v-45c0-.77-.52-1.45-1.27-1.64-3.15-.83-6.44-1.61-9.76-2.34-.51-.11-1.04,.02-1.44,.35-.4,.33-.63,.83-.62,1.35,.24,12.89,.13,29.9-2.95,47.12-.13,.73,.23,1.46,.88,1.8Zm5.5-46.83c2.12,.48,4.21,.99,6.25,1.51v43.05c-.9,1.03-1.8,2.07-2.68,3.1-2.14-1.07-4.28-2.17-6.39-3.27,2.76-16.14,3.01-31.95,2.82-44.39Z"/><path class="cls-1" d="M268.37,179.48c.14,0,.28-.02,.42-.05,.66-.17,1.16-.72,1.26-1.39,.16-1.04,.34-2.07,.52-3.11,.77,.41,1.54,.83,2.32,1.24,.25,.13,.52,.2,.79,.2,.26,0,.51-.06,.75-.17,.49-.24,.83-.69,.93-1.23,.46-2.59,.85-5.16,1.19-7.72,.9,.48,1.8,.97,2.72,1.45,.25,.13,.52,.2,.79,.2,.26,0,.51-.06,.75-.17,.49-.24,.83-.69,.93-1.23,3.13-17.51,3.25-34.73,3-47.78-.01-.79-.57-1.46-1.34-1.63-1.13-.25-2.26-.48-3.39-.71-.41-.08-.83-.01-1.19,.19l-8.38,4.84c-.34,.2-.6,.51-.74,.88-.09,.25-.18,.5-.27,.76-.63-.12-1.24-.24-1.87-.35-.79-.14-1.57,.29-1.88,1.04-3.77,9.34-6.92,18.85-9.44,28.38-2.25-1.54-4.46-3.08-6.61-4.64-.54-.4-1.27-.43-1.85-.1l-.13,.08c-.41,.24-.71,.64-.81,1.11-.1,.47,0,.96,.28,1.35,2.24,3.13,4.44,6.28,6.64,9.42,.17,.25,.35,.5,.53,.75-.13,.57-.26,1.14-.38,1.71-3.77-2.49-7.41-5.02-10.91-7.57-.67-.49-1.61-.42-2.2,.17-.59,.59-.67,1.52-.19,2.2,2.32,3.25,4.61,6.52,6.9,9.78,4.29,6.12,8.73,12.46,13.27,18.5,.33,.43,.83,.68,1.36,.68,.14,0,.28-.02,.42-.05,.66-.17,1.16-.72,1.26-1.39,.43-2.87,.94-5.74,1.49-8.6,.57,.77,1.14,1.55,1.72,2.32,.33,.43,.83,.68,1.36,.68Zm4.03-7.42c-.42-.22-.83-.45-1.25-.67,.39-2.15,.81-4.28,1.26-6.39,.31,.17,.62,.34,.93,.51-.27,2.17-.58,4.36-.94,6.56Zm7.56-51.24c.47,.1,.93,.19,1.4,.29,.2,12.13,.02,27.64-2.58,43.47-.6-.32-1.19-.64-1.79-.97,1.52-13.46,1.56-26.23,1.37-36.44-.01-.79-.57-1.46-1.34-1.63-1.26-.28-2.56-.54-3.86-.8l6.8-3.93Zm-8.33,7.08c1.13,.22,2.25,.45,3.35,.69,.16,9.5,.07,21.08-1.22,33.27-3.51-1.94-6.92-3.89-10.19-5.83,2.06-9.43,4.77-18.87,8.06-28.12Zm-3.94,.98c-3.05,8.85-5.58,17.86-7.53,26.87-.32-.21-.63-.43-.95-.64,2.28-8.8,5.12-17.58,8.48-26.23Zm-12.36,27.73s0,.02,0,.03c-.01-.02-.03-.04-.04-.06,.02,.01,.03,.02,.05,.03Zm5.76,23.96c-3.68-5-7.29-10.16-10.81-15.17-.41-.59-.83-1.18-1.24-1.77,4.16,2.82,8.49,5.6,12.94,8.31,.19,.27,.39,.54,.58,.8-.53,2.59-1.02,5.21-1.47,7.84Zm1.12-14.15c-1.44-2.03-2.87-4.06-4.28-6.07,.13-.58,.26-1.15,.4-1.73,3.42,2.26,6.94,4.49,10.55,6.67-.3,1.45-.59,2.92-.86,4.39-1.97-1.08-3.9-2.17-5.81-3.26Zm5.18,6.79c-.02,.11-.04,.21-.06,.32-.14-.19-.28-.39-.41-.58,.16,.09,.31,.17,.47,.26Z"/><path class="cls-1" d="M229.53,323.4c-.45-.52-1.16-.73-1.82-.52-3.77,1.22-7.16,.9-8.47,.52,.35-3.37,.78-6.78,1.33-10.4,.07-.45-.05-.91-.32-1.27-4.5-5.99-8.93-12.3-13.2-18.4-2.21-3.15-4.42-6.3-6.66-9.44-.51-.71-1.52-.89-2.28-.46-.53,.3-.85,.87-.85,1.47v61.4c0,.61,.32,1.17,.85,1.47,.26,.15,.56,.23,.85,.23s.59-.08,.85-.23l32.12-18.55c.44-.26,.75-.7,.83-1.2,.08-.5-.07-1.02-.41-1.4-.95-1.07-1.89-2.14-2.81-3.23Zm-28.88,19.96v-53.22c1.21,1.71,2.41,3.43,3.61,5.14,4.16,5.93,8.45,12.05,12.84,17.92-.55,3.74-.99,7.27-1.34,10.78,0,.06,0,.11,0,.17,0,.4,.13,1.18,.99,1.81,1.72,1.25,6.36,1.68,10.91,.49,.26,.3,.51,.59,.77,.89l-27.78,16.04Z"/><path class="cls-1" d="M423.34,62.58c1.12,.23,2.23,.46,3.34,.7,.12,.03,.24,.04,.36,.04,.39,0,.77-.13,1.08-.39,.4-.33,.63-.83,.62-1.35-.02-.88-.03-1.75-.06-2.63-.01-.6-.34-1.15-.87-1.44-.52-.29-1.16-.29-1.68,0l-3.31,1.91c-.61,.35-.94,1.05-.83,1.75,.11,.7,.65,1.25,1.34,1.39Z"/><path class="cls-1" d="M387.31,85.53c1.4,.28,2.79,.57,4.14,.86,.12,.03,.24,.04,.36,.04,.39,0,.77-.13,1.08-.39,.4-.33,.63-.83,.62-1.35-.12-6.3-.35-12.67-.58-18.83l-.09-2.43c-.03-.78-.58-1.43-1.34-1.6-.76-.16-1.53,.21-1.88,.9-1.97,3.94-3.83,7.93-5.6,11.93l-9.02,5.21c-.54,.31-.86,.89-.85,1.51,.02,.87,.04,1.74,.06,2.61,.02,.79,.57,1.46,1.34,1.63,3.28,.71,6.52,1.49,9.62,2.3,.14,.04,.29,.06,.43,.06,.37,0,.74-.12,1.04-.35,.42-.32,.66-.82,.66-1.35v-.76Zm-6.48-3.3c-.14,.35-.16,.74-.06,1.1-1.05-.25-2.11-.49-3.18-.73,0-.09,0-.19,0-.28l4.22-2.44c-.32,.78-.66,1.57-.98,2.35Zm8.87-11.84c.14,4.04,.28,8.15,.37,12.23-.91-.19-1.83-.38-2.76-.56v-6.3s-.01-.06-.01-.09c.78-1.76,1.58-3.53,2.4-5.28Z"/><path class="cls-1" d="M365.39,211.64c-.41-.55-1.11-.8-1.78-.63-.66,.17-1.16,.72-1.26,1.4-.47,3.1-.85,6.06-1.18,8.96-.71-.92-1.43-1.86-2.16-2.83-.41-.55-1.11-.79-1.78-.63-.66,.17-1.16,.72-1.26,1.4-.6,4-1.07,7.76-1.44,11.48,0,.06,0,.11,0,.17,0,.4,.13,1.18,.99,1.81,.71,.51,1.91,.88,3.39,1.06l-10.31,5.95c-.44,.26-.75,.7-.83,1.2-.08,.5,.07,1.02,.41,1.4,1.1,1.24,2.22,2.46,3.33,3.63,.32,.34,.77,.53,1.24,.53,.02,0,.05,0,.07,0,.49-.02,.95-.26,1.26-.64,2.79-3.53,5.58-6.98,8.27-10.25,.41-.5,.48-1.18,.23-1.75,1.6-.12,3.29-.43,4.95-.96,.54-.17,.96-.61,1.11-1.15,.16-.55,.03-1.13-.34-1.57-.89-1.04-1.79-2.13-2.69-3.24,.56,.06,1.15,.09,1.77,.09,2.02,0,4.31-.31,6.53-1.02,.54-.17,.96-.61,1.11-1.15,.16-.55,.03-1.13-.34-1.57-2.96-3.48-6-7.3-9.28-11.67Zm-12.75,30.6c-.17-.19-.35-.38-.52-.57l1.8-1.04c-.43,.53-.85,1.07-1.28,1.6Zm5.37-12.03c.22-2.1,.47-4.21,.76-6.39,1.78,2.3,3.5,4.45,5.18,6.49-2.69,.45-4.93,.19-5.94-.1Zm6.37-6.9c.22-2.1,.47-4.21,.76-6.39,1.78,2.3,3.5,4.45,5.18,6.49-2.69,.45-4.93,.19-5.94-.1Z"/><path class="cls-1" d="M303.53,236.19c1.9-2.31,3.83-4.6,5.73-6.83,.34-.4,.48-.93,.37-1.44-.1-.51-.44-.95-.91-1.18-2.9-1.44-5.82-2.93-8.68-4.44-.48-.25-1.05-.26-1.54-.02-.49,.24-.83,.69-.93,1.23l-.09,.49c-.05,.29-.1,.59-.16,.9-.8,4.52-2.81,7.45-5.11,9.35-.03,.01-.06,.02-.09,.03-.25,.12-.46,.3-.62,.52-1.41,1.02-2.89,1.7-4.25,2.13-.54,.17-.96,.61-1.11,1.15-.16,.55-.03,1.13,.34,1.57,.82,.96,1.66,1.91,2.49,2.86-2.14,3.72-5.37,5.54-8.1,6.42-.54,.17-.96,.61-1.11,1.15-.16,.55-.03,1.13,.34,1.57,2.02,2.38,4.11,4.71,6.19,6.92,.32,.34,.77,.53,1.24,.53,.02,0,.05,0,.07,0,.49-.02,.95-.26,1.26-.64,4.92-6.22,9.5-11.81,14-17.09,.34-.4,.48-.93,.37-1.44-.1-.51-.44-.95-.91-1.18-.54-.27-1.07-.54-1.61-.81l2.32-1.34c.18-.1,.33-.23,.46-.39Zm-16.09,18.6c-1.07-1.16-2.13-2.34-3.18-3.54,3.86-1.82,6.77-4.81,8.52-8.73l4.44-2.56c.56,.28,1.11,.57,1.67,.85-3.7,4.38-7.47,8.98-11.45,13.98Zm9.68-18.7c-.41-.21-.83-.43-1.24-.64,2.26-2.4,3.84-5.46,4.62-9.07,1.58,.82,3.17,1.63,4.76,2.43-1.39,1.64-2.79,3.31-4.17,4.99l-3.98,2.3Z"/><path class="cls-1" d="M288.63,217.51c4.41-2.69,7.32-7.11,8.33-12.81,.06-.31,.11-.62,.17-.93l.08-.48c.13-.73-.23-1.46-.88-1.8-6.42-3.38-12.59-6.84-18.32-10.28-.47-.28-1.05-.32-1.55-.1-.5,.22-.87,.67-.99,1.21-.51,2.39-.97,4.8-1.41,7.23-.81-.48-1.63-.96-2.43-1.43-.47-.28-1.05-.32-1.55-.1-.5,.22-.87,.67-.99,1.21-.94,4.41-1.76,8.93-2.43,13.42-.07,.45,.05,.91,.32,1.27,3.33,4.42,6.4,8.29,9.41,11.83,.33,.39,.81,.6,1.29,.6,.17,0,.35-.03,.52-.08,4.7-1.52,8.26-4.55,10.41-8.75Zm-10.32-22.16c4.86,2.87,10,5.75,15.33,8.57-.01,.06-.02,.11-.03,.17-.53,3.03-1.61,5.34-2.96,7.12,.03-.18,.06-.36,.1-.54l.08-.48c.13-.73-.23-1.46-.88-1.8-4.4-2.31-8.66-4.66-12.75-7.02,.35-2.02,.72-4.03,1.12-6.02Zm-.08,27.29c-2.59-3.09-5.25-6.44-8.1-10.2,.52-3.41,1.13-6.82,1.81-10.19,.5,.3,1.02,.59,1.53,.89-.14,.87-.3,1.73-.43,2.59-.07,.45,.05,.91,.32,1.27,3.33,4.42,6.4,8.29,9.41,11.83,.15,.17,.33,.31,.53,.41-1.57,1.65-3.37,2.71-5.07,3.39Zm-1.72-17.1c.03-.19,.07-.39,.1-.58,3.45,1.97,7.01,3.93,10.67,5.87,0,.05-.02,.1-.03,.15,0,0,0,.01,0,.02-.27,1.55-.69,2.9-1.22,4.1-.48,.25-.95,.47-1.42,.65-2.59-3.09-5.25-6.44-8.1-10.2Z"/><path class="cls-1" d="M437,96.18l.22,.16c.3,.22,.65,.33,1,.33,.44,0,.87-.17,1.2-.49,.59-.59,.67-1.52,.18-2.2l-.22-.31c-.43-.6-1.2-.85-1.9-.63-.7,.23-1.18,.88-1.18,1.62v.14c0,.54,.26,1.05,.7,1.37Z"/><path class="cls-1" d="M409.34,426.26c-.72-.25-1.52,0-1.96,.63-1.82,2.61-3.47,4.87-5.03,6.92-.57,.74-.43,1.81,.31,2.38,1.37,1.06,3.04,2.28,4.96,3.24,.24,.12,.5,.18,.76,.18,.31,0,.62-.09,.89-.25,.5-.31,.81-.86,.81-1.45,0-2.93,.12-6.08,.39-9.92,.05-.76-.41-1.47-1.13-1.72Zm-2.62,8.69c-.22-.15-.43-.3-.64-.44,.22-.3,.45-.61,.68-.92-.02,.46-.03,.91-.04,1.36Z"/><path class="cls-1" d="M354.83,322.44c-.5-.23-1.09-.21-1.57,.07l-11.37,6.57c-.58,.33-.9,.97-.84,1.63,.06,.66,.51,1.23,1.13,1.45,4,1.39,7.99,2.78,11.95,4.15l.32,.11c.18,.06,.37,.09,.56,.09,.35,0,.7-.11,.99-.32,.45-.32,.71-.84,.71-1.4-.04-4.11-.34-7.74-.92-11.1-.09-.55-.45-1.01-.95-1.25Zm-8.03,7.72l5.99-3.46c.22,1.79,.37,3.68,.45,5.7-2.14-.74-4.29-1.49-6.44-2.24Z"/><path class="cls-1" d="M415.58,179.11c.1,.51,.44,.95,.91,1.18,1.16,.58,2.33,1.15,3.5,1.72,.24,.11,.49,.17,.74,.17,.31,0,.63-.09,.9-.26,.5-.31,.8-.86,.8-1.44v-5.75c0-.71-.44-1.34-1.1-1.59-.66-.25-1.41-.06-1.88,.47-1.18,1.35-2.34,2.7-3.5,4.05-.34,.4-.48,.93-.37,1.44Z"/><path class="cls-1" d="M325.44,326.68c.29,0,.59-.08,.85-.23l.35-.2c.53-.3,.83-.88,.83-1.49,0-.09,0-.19-.02-.28v-30.36c0-.65-.37-1.24-.96-1.53-1.16-.56-2.32-1.13-3.47-1.71-.7-.35-1.54-.17-2.05,.42-4.52,5.3-9.13,10.92-14.09,17.19-.52,.66-.48,1.61,.1,2.22,5.71,6.05,11.42,11.16,17.46,15.63,.3,.22,.65,.33,1.01,.33Zm-1.4-4.9c-4.64-3.63-9.11-7.69-13.58-12.33,4.27-5.38,8.29-10.28,12.23-14.92,.45,.22,.9,.44,1.35,.66v26.59Z"/><path class="cls-1" d="M52.76,69.82c.02,.79,.57,1.46,1.34,1.63,11.12,2.42,21.8,5.58,31.77,9.38,.2,.07,.4,.11,.61,.11,.29,0,.59-.08,.85-.23l29.74-17.17,3.35,1.94h0s0,0,0,0c.81,.47,1.85,.19,2.32-.62,.47-.81,.19-1.85-.62-2.32l-3.3-1.91V.03c0-.61-.38-1.2-.91-1.5-.53-.3-1.17-.3-1.7,0L62.5,29.53c-.25,.15-.47,.36-.62,.61-3.46,5.89-6.7,11.83-9.61,17.65-.13,.25-.19,.54-.18,.82l.09,2.33c.23,6.18,.46,12.57,.58,18.87Zm11.83-37.57L115.42,2.91V60.56l-29.1,16.8c-9.51-3.58-19.65-6.59-30.19-8.95-.13-5.89-.34-11.83-.56-17.59l-.07-1.9c2.77-5.51,5.82-11.11,9.08-16.68Z"/><path class="cls-1" d="M369.42,56.96c.12,.03,.24,.04,.36,.04,.63,0,1.23-.35,1.52-.94,2.88-5.75,6.08-11.63,9.5-17.45,.39-.67,.29-1.51-.26-2.06-.54-.55-1.39-.66-2.06-.27l-9.94,5.74c-.54,.31-.87,.89-.85,1.52,.1,3.94,.24,7.88,.38,11.83,.03,.78,.58,1.43,1.34,1.6Zm5.3-14.58c-1.19,2.12-2.35,4.24-3.47,6.35-.05-1.43-.09-2.85-.13-4.28l3.59-2.07Z"/><path class="cls-1" d="M337.9,406.71c-1.45-.36-2.64-.69-3.72-1.04-3.19-1.11-6.4-2.23-9.63-3.34-.52-.18-1.1-.1-1.55,.23-.45,.32-.71,.84-.71,1.4,.06,6.54-.56,13.58-1.17,20.4-.29,3.21-.58,6.53-.81,9.77-.05,.76,.41,1.47,1.13,1.72,.19,.07,.38,.1,.57,.1,.54,0,1.07-.26,1.39-.73,5.76-8.24,11.01-17.02,15.6-26.08,.23-.46,.24-1.01,.03-1.48s-.63-.82-1.14-.94Zm-13.68,21.23c.1-1.11,.19-2.21,.29-3.3,.54-6.08,1.1-12.33,1.18-18.33,2.47,.86,4.93,1.71,7.41,2.57,.61,.2,1.24,.39,1.91,.57-3.29,6.34-6.91,12.53-10.8,18.48Z"/><path class="cls-1" d="M185.57,441.58l.03-84.3c0-.61-.32-1.17-.85-1.47-.53-.3-1.17-.3-1.7,0l-13.07,7.55c-.48,.28-.8,.77-.84,1.33-1.38,16.29-3.75,31.54-7.11,45.9-.34-.48-.68-.96-1.01-1.44-2.29-3.27-4.59-6.55-6.92-9.81-.11-.15-.23-.28-.38-.39l-.21-.16c-.52-.38-1.2-.44-1.77-.15-.57,.29-.93,.88-.93,1.52v35.48c-2.41-1.68-5.16-3.21-8.59-4.06-2.44-.49-4.91-1.02-7.4-1.6,.05-1.13,.09-2.25,.11-3.36l11.89-6.87c.5-.29,.81-.8,.85-1.38,.03-.57-.23-1.12-.69-1.46-5.87-4.35-11.44-9.33-17.01-15.24-.34-.36-.82-.55-1.31-.53-.49,.02-.95,.26-1.26,.64-5.39,6.82-10.65,13.7-16.08,20.85l-.78,.45v-2.12c0-.54-.26-1.05-.69-1.37-.44-.32-1-.42-1.51-.25-.75,.23-1.49,.45-2.22,.66,4.3-9.8,7.97-20.05,11.04-30.79l3.55-2.05c.53-.3,.85-.86,.85-1.47v-.29c0-.61-.32-1.17-.85-1.47l-1.82-1.05c.32-1.25,.64-2.5,.95-3.76l17.94,10.36c.26,.15,.56,.23,.85,.23,.27,0,.54-.06,.78-.19,.52-.27,.86-.78,.91-1.36,.54-6.05,1.05-12.47,.99-18.56,0-.51-.24-.97-.62-1.28,.21,.02,.43,.04,.64,.06,.04,0,.07,0,.11,0,.3,0,.59-.08,.85-.23l29.93-17.28c.53-.3,.85-.86,.85-1.47v-.29c0-.61-.32-1.17-.85-1.47l-10.43-6.01c-.91-4.79-2.41-8.9-4.55-12.55-2.34-3.77-4.93-7.52-7.69-11.15-.52-.68-1.46-.87-2.2-.44l-18.67,10.78v-49.85c0-.61-.32-1.17-.85-1.47l-3.55-2.05v-6.51l11.62,6.7v9.75c0,.71,.44,1.34,1.1,1.59,2.63,1,5.25,1.98,7.88,2.95,.19,.07,.39,.11,.59,.11,.29,0,.59-.08,.85-.23l32.27-18.63c.42-.24,.72-.66,.82-1.14,.1-.48-.02-.98-.31-1.36-10.87-14.3-24.54-26.6-40.6-36.56-.52-.33-1.18-.34-1.72-.04-.54,.3-.87,.87-.87,1.49v33.34c-3.99-1.59-7.87-3.17-11.62-4.74v-28.68c0-.59-.3-1.13-.8-1.44-6.39-3.96-13.21-7.59-20.29-10.79-.61-.28-1.33-.17-1.83,.28-10.5,9.39-20.68,19.47-30.28,29.97,0,0,0,0-.01,.01-1.04,1.17-2.07,2.33-3.1,3.5,0,0,0,0,0,0-1.34,1.53-2.66,3.06-3.97,4.6-.34,.4-.48,.93-.37,1.44,.1,.51,.44,.95,.91,1.18,1.1,.55,2.21,1.09,3.32,1.63,1.35,.66,2.72,1.31,4.09,1.97v14.98c0,.59,.31,1.14,.81,1.45,19.86,12.23,35.88,28,47.57,46.82,.4,.68,.77,1.39,1.13,2.12l-5.67,3.27c.08-.57,.16-1.14,.24-1.72,.09-.68-.24-1.34-.84-1.69l-38.35-22.14s-.01,0-.02-.01c0,0-.01,0-.02-.01-.53-.3-1.17-.3-1.7,0l-31.91,18.42-5.9-3.4c-.67-.38-1.51-.27-2.05,.27-.37,.37-.55,.9-.48,1.42,.07,.52,.38,.99,.84,1.25l4.2,2.42-18.07,10.43c-.53,.3-.85,.86-.85,1.47v2.08c0,.59,.3,1.14,.8,1.44,10.39,6.44,19.74,13.88,27.96,22.22-.8,1-1.61,2.02-2.43,3.06,0,0,0,0,0,0-3.91,4.95-7.84,10.04-11.61,14.97l-21.69,12.52c-.53,.3-.85,.86-.85,1.47v.24c0,.61,.38,1.2,.91,1.51,.34,.2,.74,.26,1.12,.2l49.35,28.49c-3.7,6.76-7.77,13.33-12.14,19.58-.18,.25-.28,.55-.3,.86-.18,2.67-.3,5.02-.36,7.2-.71-.48-1.38-.98-1.98-1.45-.36-.28-.81-.4-1.26-.34-.45,.06-.86,.29-1.13,.65-2.33,3.05-4.77,6.08-7.23,8.96-10.79,12.03-24.77,23.73-38.37,32.1-.5,.31-.81,.86-.81,1.45v2.15c0,.61,.32,1.17,.85,1.47,.26,.15,.56,.23,.85,.23s.59-.08,.85-.23l88.61-51.16s.03,.03,.05,.04l.45,.26c.26,.15,.56,.23,.85,.23s.59-.08,.85-.23c.24-.14,.42-.34,.56-.57,4.34,1.19,8.57,2.24,12.71,3.15v29.45c0,.62,.33,1.18,.87,1.48,.26,.14,.54,.22,.83,.22,.31,0,.62-.08,.89-.25,13.59-8.36,27.55-19.99,38.46-32-1.83,4.25-3.77,8.42-5.84,12.51-.23,.46-.24,1.01-.03,1.48s.63,.82,1.14,.94c2.31,.57,4.65,1,7.02,1.3v24.88c0,.62,.34,1.19,.88,1.49,.26,.14,.54,.21,.83,.21,.45,0,.9-.18,1.23-.52,4.02-4.2,7.33-8.27,10.11-12.44,2.21-2.9,4.37-5.75,6.52-8.58,1.67-2.2,3.32-4.38,4.96-6.53,2.94-.65,5.95-1.44,9.08-2.41,.71-.22,1.2-.88,1.2-1.62v-9.35c1.37-1.75,2.73-3.5,4.11-5.24,.52-.66,.48-1.61-.1-2.22-1.34-1.42-2.68-2.91-4.01-4.41Zm-17.37-92.32l-5.38,3.1c-.05-2.27-.19-4.42-.42-6.44l5.79,3.34Zm-28.92-77.9c2.66,1.04,5.37,2.09,8.15,3.15v3.32l-8.15-4.7v-1.77Zm0,5.69l9,5.19c.26,.15,.56,.23,.85,.23s.59-.08,.85-.23c.53-.3,.85-.86,.85-1.47v-7.44c0-.71-.44-1.34-1.1-1.59-3.59-1.36-7.06-2.7-10.46-4.04v-31.6c14.02,9.07,26.09,20,35.91,32.55l-29.9,17.26c-2-.74-4.01-1.49-6.01-2.25v-6.62Zm-3.4-7.03v1.15l-6.54-3.77c2.14,.87,4.33,1.75,6.54,2.62Zm-63.97-8.99l-1-.57v-4.23c.33-.38,.67-.75,1-1.12v5.93Zm35.21,162.23v1.8s-4.59,2.65-4.59,2.65c.59-1.21,1.17-2.43,1.73-3.66,.95-.25,1.9-.51,2.86-.79Zm-5.27-2.11c-5.09,1.25-9.89,2.02-14.47,2.29-.04-1.03-.1-2.05-.17-3.03l1.42-.82s.07,.02,.11,.03c.14,.03,.27,.05,.41,.05,.63,0,1.22-.35,1.52-.93,.08-.15,.15-.3,.22-.45l16.05-9.27c-1.59,4.12-3.28,8.16-5.08,12.12Zm-1.82,3.92c-.56,1.17-1.11,2.35-1.69,3.5-.89-.24-1.67-.47-2.41-.7-1.35-.47-2.71-.94-4.07-1.41,2.65-.32,5.37-.78,8.17-1.39Zm-5.1-73.07c-.47-.18-1-.13-1.44,.12l-6.21,3.59v-1.42l24.12-13.93c-.86,5.61-1.87,11.12-3.01,16.52-4.48-1.61-8.97-3.23-13.45-4.89Zm12.73,8.24c-.53,2.36-1.08,4.69-1.66,7l-15.95-9.21,4.45-2.57c4.39,1.62,8.78,3.21,13.16,4.78Zm-2.54,10.42c-.33,1.25-.67,2.49-1.02,3.72l-16.83-9.7v-4.32l17.85,10.3Zm-1.97,7.1c-.61,2.06-1.23,4.1-1.88,6.12l-13.99-8.07v-7.2l15.87,9.15Zm-2.97,9.41c-1.15,3.39-2.37,6.73-3.65,10.03l-2.31,1.33c-2.29-.81-4.6-1.64-6.94-2.48v-16.32l12.9,7.44Zm-2.46,16.21c2.57,.91,5.1,1.79,7.59,2.66l-11.78,6.8c1.46-3.1,2.86-6.25,4.19-9.46Zm-7.36-2.61l-3.08,1.78v-2.88c1.03,.37,2.05,.74,3.08,1.1Zm4.12,1.55c-1.93,4.63-3.99,9.15-6.17,13.54l-.18,.1c-.36-.1-.71-.19-1.04-.29,.13-.24,.2-.51,.2-.78v-8.42l7.19-4.15Zm14.44,1.39c-3.23-1.13-6.54-2.28-9.92-3.48,.09-.23,.18-.45,.27-.68l13.61-7.86c-1.23,4.08-2.55,8.08-3.96,12.01Zm5.32-16.72l-13.05,7.54c.92-2.51,1.82-5.03,2.66-7.58h0c.81-2.44,1.58-4.93,2.32-7.43l8.75,5.05c-.22,.82-.46,1.62-.68,2.43Zm1.57-5.85l-8.66-5c.35-1.23,.69-2.47,1.03-3.72l8.57,4.95c-.3,1.26-.62,2.51-.94,3.76Zm1.74-7.23l-8.49-4.9c.64-2.52,1.25-5.05,1.83-7.62,2.89,1.03,5.76,2.05,8.63,3.05-.61,3.2-1.27,6.35-1.98,9.47Zm19.59,11.31l-16.51-9.53c.77-3.32,1.49-6.69,2.15-10.11,5.08,1.78,10.13,3.53,15.11,5.26-.01,4.7-.35,9.61-.75,14.37Zm3.89-20.25c-2.46-.18-4.91-.53-7.34-1.03,2.49-5.05,4.8-10.28,6.96-15.63,6.13,2.15,12.22,4.27,18.23,6.35l-17.85,10.31Zm18.37-13.73c-5.77-2-11.61-4.03-17.49-6.1,1.16-3,2.29-6.03,3.34-9.11l13.44,7.75c.37,2.31,.61,4.77,.72,7.46Zm-30.74-11.46v-7.57l19.07-11.01c2.36,3.17,4.57,6.42,6.58,9.65,1.48,2.52,2.62,5.32,3.45,8.47l-12.62-7.28c-.44-.26-.98-.3-1.45-.12-.48,.18-.85,.57-1.01,1.05-1.24,3.73-2.57,7.4-3.97,11.03-3.39-1.19-6.78-2.4-10.18-3.62,.08-.19,.13-.4,.13-.61Zm8.8,7.4c-2.38,5.9-4.98,11.64-7.77,17.16,0,.02-.01,.03-.02,.05-2.08-.72-4.17-1.46-6.27-2.19,1.12-6.17,2.08-12.5,2.87-19,3.74,1.35,7.47,2.67,11.19,3.99Zm-34.69-122.91c6.29,2.89,12.37,6.13,18.09,9.63v26.29c-6.19-2.63-12.08-5.25-17.71-7.88-.82-.38-1.81-.05-2.23,.76-.42,.81-.13,1.8,.66,2.26l19.28,11.12v6.51l-42.22-24.38c-.17-.1-.36-.16-.55-.19,7.92-8.39,16.19-16.48,24.68-24.11Zm-27.45,29.84c.87-.68,1.74-1.35,2.61-2.03l42.94,24.79v5.43c-16.61-6.34-31.1-12.42-44.22-18.54l-1.33-.77v-8.89Zm0,25.21v-12.43c13.77,6.42,29.03,12.79,46.65,19.47,.2,.07,.4,.11,.6,.11,.34,0,.68-.1,.97-.3,.46-.32,.73-.84,.73-1.4v-5.94l1,.58v49.05c-.06,.03-.13,.04-.19,.08l-.71,.41c-.37-.74-.75-1.47-1.17-2.17-11.83-19.05-27.94-35.01-47.88-47.45Zm47.94,56c.12,.38,.23,.75,.34,1.14-.07,.69-.14,1.38-.21,2.06-1.16-.42-2.32-.84-3.48-1.26l3.36-1.94Zm-7.94,3.87c2.55,.94,5.11,1.87,7.67,2.8-.77,6.52-1.71,12.87-2.83,19.06-2.84-1-5.69-2.01-8.54-3.02,1.32-6.19,2.47-12.52,3.42-18.98,.09,.05,.18,.11,.28,.15Zm-37.67-26.4l34.82,20.1c-.14,1.07-.3,2.12-.45,3.18l-26.39,15.23-7.99-4.61v-33.9Zm3.28,92.09s0,0,0,0c.98,.4,1.96,.8,2.95,1.2v7.83c-.2,.14-.35,.33-.47,.54-2.02-.7-4.04-1.41-6.08-2.11-.07-3.04-.31-5.83-.69-8.45,1.34,.04,2.75,.37,4.29,1Zm-4.9-4.41c-.41-1.94-.93-3.76-1.55-5.49,3.16,1.17,6.3,2.33,9.4,3.45v3.98c-.55-.22-1.11-.45-1.66-.67-2.28-.94-4.33-1.32-6.19-1.27Zm7.88,21.84c.02,.41,.05,.82,.07,1.24-.73,0-1.46,0-2.18-.02l2.11-1.22Zm-6.27-71.69l6.23,3.6v8.49l-6.23-3.59v-8.5Zm0,12.42l6.23,3.59v7.2l-6.23-3.59v-7.2Zm-1.72,10.14l7.95,4.58v17.05c-3.71-1.35-7.48-2.74-11.27-4.16-.29-.56-.57-1.12-.89-1.66-2.01-3.24-4.21-6.47-6.53-9.61l10.74-6.2Zm-21.81-6.99c1.27-1.57,2.52-3.11,3.78-4.64l8.01-4.62c2.13,1.03,4.3,2.06,6.44,3.06l1.9,1.09v8.89c-.05,.06-.09,.13-.14,.2-.04,.06-.07,.13-.09,.19l-10.9,6.29c-2.82-3.62-5.82-7.11-8.99-10.47Zm8.02,14.82c-3.85-3.17-7.63-6.67-11.4-10.59,.41-.52,.82-1.03,1.23-1.54,3.31,3.53,6.44,7.21,9.35,11.03,0,0,0,0,0,0,.28,.36,.54,.73,.82,1.1Zm12.1-68.25v31.98l-27.7-15.99,27.7-15.99Zm-50.02,29.04v-.16l18.92-10.92,31.1,17.95v8.5l-.26-.15s-.09-.05-.13-.07c-2.42-1.13-4.86-2.29-7.27-3.47-.51-.25-1.11-.23-1.59,.06l-9.06,5.23c-.18,.1-.33,.23-.46,.39-1.24,1.51-2.48,3.03-3.73,4.58-8.13-8.2-17.33-15.55-27.51-21.94Zm24.38,31.31c5.59,5.78,11.2,10.67,17.07,14.93-6.87-2.64-13.81-5.39-20.71-8.26-.49-.2-1.04-.17-1.5,.1l-.21,.12c1.78-2.3,3.57-4.6,5.36-6.88Zm-10.77,13.94l6.6-3.81c8.59,3.57,17.24,6.94,25.74,10.14,1.08,2.33,1.92,4.87,2.53,7.7-4.63,1.6-7.81,6.11-10.22,10.75l-30.22-17.45c1.8-2.37,3.67-4.83,5.58-7.34Zm-19.55,11.28l11.93-6.89c-.62,.81-1.23,1.62-1.84,2.42-.29,.39-.41,.89-.31,1.36,.1,.48,.39,.89,.82,1.14l33.45,19.31c.26,.15,.55,.23,.85,.23,.17,0,.34-.02,.5-.08,.45-.14,.83-.46,1.03-.88,2.8-5.79,5.5-9.16,8.58-10.46,.39,2.77,.61,5.78,.64,9.08,0,.72,.46,1.35,1.14,1.59,2.82,.98,5.64,1.96,8.46,2.94,.02,.16,.03,.32,.05,.48l-7.79,4.5c-2.12-.28-4.22-.67-6.28-1.18-.77-.19-1.57,.18-1.92,.88-.52,1.04-1.06,2.07-1.6,3.1l-47.71-27.54Zm52.89,27.41l-1.86,1.08c.23-.44,.48-.87,.7-1.31,.39,.09,.77,.16,1.16,.24Zm-52.74,63.11c8.72-6.76,17.07-14.45,24.09-22.29,2.16-2.53,4.29-5.15,6.35-7.8,1.07,.77,2.27,1.55,3.6,2.22,.53,.26,1.15,.23,1.65-.07,.5-.31,.81-.86,.81-1.45,0-2.81,.11-5.83,.36-9.45,4.33-6.21,8.34-12.74,12.02-19.45l.31,.18c.26,.15,.56,.23,.85,.23s.59-.08,.85-.23l7.19-4.15c2.54,.28,5.13,.4,7.77,.37,.2,.35,.51,.64,.91,.78,3.22,1.12,6.43,2.23,9.66,3.36,.39,.12,.78,.25,1.19,.36l-16.82,9.71c-.53,.3-.83,.88-.83,1.49,0,.09,0,.19,.02,.28v.98c0,.74,.47,1.39,1.17,1.62,3.07,1,6.08,1.93,9.03,2.8l-70.18,40.52Zm75.42-43.54l-1.15,.66c-3.22-.92-6.5-1.9-9.87-2.97l23.16-13.37c-1.5,1.98-3.01,3.97-4.54,5.98-.02,.03-.04,.06-.06,.09-2.15,3.22-4.63,6.39-7.53,9.61Zm13.26-11.53v3.88s-4.96,2.86-4.96,2.86c.7-.96,1.39-1.92,2.03-2.89,.99-1.3,1.95-2.57,2.93-3.85Zm.3,15.95c-2.9-.65-5.84-1.36-8.83-2.15l8.83-5.1v7.24Zm21.42-44.3c4.61,4.76,9.23,8.93,14.04,12.65l-8.05,4.65c-.17-.48-.54-.88-1.05-1.05l-.32-.11c-3.96-1.37-7.94-2.76-11.94-4.15-.47-.16-.98-.11-1.41,.13l-1.18,.68c3.31-4.33,6.59-8.58,9.91-12.8Zm-7.7,15.45c3.48,1.21,6.95,2.41,10.4,3.61,0,.05,0,.09,0,.14l-5.47,3.16c-3.67-.98-7.41-2.07-11.26-3.25l6.34-3.66Zm10.3,7.73c0,.19,0,.37-.01,.55-.22-.05-.44-.11-.67-.16l.68-.39Zm-20.62,.28c.42-.55,.83-1.09,1.25-1.65,3.36,1.05,6.64,2.03,9.85,2.93l-11.1,6.41v-7.7Zm0,11.62l15.73-9.08c1.58,.41,3.14,.8,4.69,1.18-.23,3.68-.55,7.41-.88,11.07-.27,3.05-.55,6.21-.77,9.3-1.32,1.88-2.55,3.58-3.72,5.16-.13-.11-.27-.21-.4-.32-3.42-2.73-6.95-5.55-12.27-6.88-.79-.16-1.58-.33-2.37-.49v-9.95Zm39.94,24.38c-1.39-.18-2.76-.42-4.13-.7,1.44-2.91,2.81-5.88,4.13-8.87v9.57Zm0-20.86c-1.38,1.72-2.77,3.43-4.19,5.08-10.1,11.26-23,22.23-35.76,30.45v-25.64c.54,.11,1.09,.23,1.63,.34,4.52,1.13,7.76,3.72,10.9,6.22,.6,.48,1.19,.95,1.79,1.42,.3,.23,.67,.35,1.04,.35,.07,0,.15,0,.22-.01,.45-.06,.85-.29,1.13-.65,1.59-2.09,3.27-4.39,5.12-7.03,.18-.25,.28-.55,.3-.86,.22-3.21,.52-6.51,.8-9.7,.31-3.49,.63-7.05,.86-10.58,2.31,.53,4.59,1.02,6.85,1.47,3.77,.94,6.65,2.9,9.32,4.98v4.17Zm3.41-38.69c1.35,1.92,2.7,3.84,4.04,5.75,.9,1.28,1.81,2.58,2.72,3.88-1.96,7.77-4.21,15.29-6.78,22.56v-32.19Zm13.44,65.97c-2.15,2.84-4.33,5.71-6.54,8.61-.02,.03-.04,.06-.06,.09-1.98,2.97-4.24,5.89-6.85,8.85v-20.22c1.44,.1,2.89,.16,4.36,.16,3.78,0,7.69-.34,11.76-1-.89,1.17-1.77,2.32-2.66,3.51Zm14.54-9.76c-1.22,.37-2.42,.7-3.61,1.01,1.21-1.58,2.41-3.15,3.61-4.7v3.69Zm0-9.26c-2.94,3.78-5.86,7.6-8.83,11.49-6.83,1.41-13.15,1.89-19.17,1.45v-18c.53-1.32,1.04-2.64,1.54-3.97,.27-.35,.56-.7,.83-1.06,.39-.51,.44-1.17,.19-1.72,2.56-7.06,4.84-14.33,6.82-21.85,2.47,3.49,4.98,6.98,7.53,10.38-.55,3.74-.99,7.27-1.34,10.78,0,.06,0,.11,0,.17,0,.4,.13,1.18,.99,1.81,1.72,1.25,6.36,1.68,10.91,.49,.18,.21,.36,.41,.54,.62v9.42Zm0-13.68c-.16,0-.33,.03-.49,.08-3.77,1.22-7.16,.9-8.47,.52,.35-3.37,.79-6.78,1.33-10.4,.07-.45-.05-.91-.32-1.27-3.25-4.32-6.45-8.8-9.58-13.25,3.71-15.12,6.31-31.2,7.81-48.43l9.75-5.63-.02,78.39Zm3.4,9.32v-1.26c.18,.19,.35,.39,.53,.58-.18,.23-.35,.45-.53,.68Z"/><path class="cls-1" d="M121.46,76.51v2.33c0,.9,.71,1.65,1.61,1.7,11.85,.64,23.46,1.96,34.53,3.94,.1,.02,.2,.03,.3,.03,.68,0,1.31-.41,1.58-1.06,2.59-6.42,5.51-12.9,8.69-19.24,.13-.25,.19-.54,.18-.82-.14-3.94-.28-7.87-.38-11.8-.02-.6-.35-1.15-.87-1.44-.52-.29-1.16-.29-1.68,.01l-43.1,24.88c-.53,.3-.85,.86-.85,1.47Zm43.18-21.99c.08,2.85,.18,5.69,.29,8.54-2.93,5.88-5.65,11.87-8.09,17.83-10.16-1.76-20.77-2.98-31.57-3.64l39.37-22.73Z"/></svg>