<?xml version="1.0" encoding="UTF-8"?><svg id="Capa_1" xmlns="http://www.w3.org/2000/svg" viewBox="0 0 500 500"><defs><style>.cls-1{fill:#5757f7;}</style></defs><path class="cls-1" d="M464.63,245.95l-37.9-21.88,.02-50.74c0-2.31-1.23-4.45-3.23-5.6l-.77-.45c-2-1.15-4.46-1.15-6.46,0-.89,.51-1.63,1.22-2.17,2.05l-17.28,9.98v-25.79c0-2.31-1.23-4.44-3.23-5.6l-48.36-27.92v-50.7c0-2.31-1.23-4.44-3.23-5.6L252.88,12.25s-.03-.02-.04-.02c-.01,0-.02-.01-.03-.02-2-1.15-4.45-1.14-6.45,0l-89.18,51.49c-2,1.15-3.23,3.29-3.23,5.6v44.48l-93.64,54.06c-2,1.15-3.23,3.29-3.23,5.6v26.14s-21.71,12.53-21.71,12.53c-2,1.15-3.23,3.29-3.23,5.6v102.98c0,2.32,1.33,4.51,3.34,5.66,.85,.49,1.78,.76,2.73,.83l18.81,10.86v41.19c-.01,2.31,1.22,4.44,3.22,5.6,2,1.16,4.47,1.16,6.47,0l35.68-20.6,22.8,13.17c1,.58,2.12,.87,3.23,.87s2.23-.29,3.23-.87l11.06-6.38v21.18c0,2.32,1.32,4.5,3.33,5.65,.85,.49,1.79,.77,2.74,.84l86.54,49.96v33.48c0,2.31,1.23,4.44,3.23,5.6l.09,.05c1,.58,2.12,.87,3.23,.87s2.23-.29,3.23-.87l178.34-102.96c.95-.55,1.72-1.33,2.28-2.24l38.9-22.46c2-1.15,3.23-3.29,3.23-5.6v-102.98c0-2.31-1.23-4.44-3.23-5.6Zm-50.82-61.52v32.17s-16.99-9.8-16.99-9.8v-12.56l16.99-9.81Zm-40.95,213.74l-38.86-22.44v-42.15l.29-.17c1.19-.69,2.1-1.73,2.65-2.95l35.31-20.39,41.51,23.94v40.54s-40.9,23.61-40.9,23.61Zm-245.05-121.93l16.08,9.27c-.75,1.07-1.18,2.35-1.18,3.7v36.8l-40.33,23.28-32.44-18.73v-20.93s57.86-33.4,57.86-33.4Zm-57.85,18.47l.03-87.67,51.38-29.67v87.65l-51.41,29.68ZM166.88,121.25l67.81-39.15v39.44l-67.81,39.15v-39.44Zm140.83,25.16v-33.15l24.6,14.2v33.13l-24.6-14.19Zm18.55,25.63l-18.55,10.71v-21.41l18.55,10.7Zm-31.48-33.08l-22.32-12.87,22.32-12.89v25.76Zm0,14.93v36.33l-44.54,25.72-31.77-18.34v-3.25l26-15.01c2-1.15,3.19-3.31,3.19-5.62,0-.24-.01-.49-.04-.73v-32.56l11.91-6.88,35.25,20.33Zm-49.89,128.32l31.69,18.3v51.31l-2.64,1.52-29.06-16.76v-54.37Zm-10.2-134.31v22.15l-16.22,9.36v-22.15l16.22-9.36Zm-29.15,5.63v33.35l-2.81,1.62-29.08-16.79,31.91-18.42c0,.08-.02,.16-.02,.24Zm35.51,78.34c-1.89-.87-4.1-.79-5.93,.27l-11.7,6.76v-21.18c0-.94-.21-1.84-.59-2.67l23.68,13.67-5.46,3.16Zm-35.51-13.29v30.64l-46.37,26.77v-47.41l31.85-18.39,14.53,8.39Zm3.4,43.61c.5,.28,1.02,.48,1.56,.62v46.2l-41.35-23.85,39.79-22.97Zm23.02-10.14v7.76l-6.72-3.88,6.72-3.88Zm12.93-3.09l31.69,18.3v18.31l-31.69-18.3v-18.31Zm44.62,59l9.09,5.25c1,.58,2.12,.87,3.23,.87s2.23-.29,3.23-.87l16.01-9.25v20.74l-31.57,18.23v-34.97Zm76.31-58.65v13.89l-28.29,16.33v-46.54l28.29,16.32Zm-41.22,30.74l-35.09-20.26v-4.52l35.09-20.26v45.03Zm-6.91,10.94l-15.86,9.15-12.32-7.11v-18.31l28.18,16.27Zm19.84,3.48l28.29-16.33v20.74l-28.29,16.33v-20.74Zm46.37-80.2v30.55l-5.15-2.97v-30.56l5.15,2.97Zm-18.08,20.12l-19.27-11.12,19.27-11.13v22.24Zm-86.01,11.56c-2,1.15-3.23,3.29-3.23,5.6v.78l-22.56-13.02,47.2-27.25,18.66,10.76-40.06,23.13Zm-101.73-43.22l-28.61,16.52c-2,1.15-3.23,3.29-3.23,5.6v47.1l-11.93-6.88v-87.61l43.78,25.27Zm-22.44,134.27l10.07,5.81-10.07,5.81v-11.63Zm3.52-12.9v-29.76l45.28,26.12-25.8,14.9-19.48-11.25Zm61.03,2.19c2-1.15,3.23-3.29,3.23-5.6v-50.87l8.53,4.92v61.81l-25.61,14.79-14.77-8.53,28.61-16.52Zm18.2,21.47l22.62,13.04-19.13,11.04-22.6-13.05,19.12-11.04Zm9.86,35.34l25.69-14.83,41.08,23.69-66.77,38.55v-47.41Zm49.24-28.43l23.58-13.61v27.22l-23.58-13.61Zm81.25-55.76v-28.24l14.85-8.57c2-1.16,3.23-3.29,3.23-5.6v-34.77l16.97,9.8-.03,87.57-35.03-20.2Zm5.15-141.65v29.52l-11.83,6.83c-1.07,.02-2.13,.31-3.08,.86l-36.18,20.89-25.1-14.48v-3.2l34.3-19.8c2-1.15,3.23-3.29,3.23-5.6v-37.34l38.66,22.32ZM256.12,29.04l76.19,43.99v39.5l-27.83-16.07-.07-.04s-.02-.01-.03-.02c-1.99-1.13-4.44-1.13-6.43,.02l-38.43,22.19-3.41-1.96V29.04Zm-89.24,43.99L243.19,28.98v35.8c-1.73-.58-3.65-.41-5.27,.52l-71.04,41.02v-33.29Zm-96.88,104.15l83.95-48.47v43.56c0,.59,.09,1.17,.25,1.73l-23.12-13.35s-.04-.02-.07-.04c0,0-.02-.01-.03-.02-2-1.13-4.44-1.13-6.43,.02l-54.55,31.49v-14.94Zm-24.93,44.26l11.99-6.93-.03,87.67-11.97,6.91v-87.65Zm6.77,98.68l5.2-3v6s-5.2-3-5.2-3Zm18.11,47.92v-22.53s19.52,11.26,19.52,11.26l-19.52,11.27Zm58.48-3.7l-13.11-7.57,27.4-15.82v15.13l-14.29,8.25Zm27.22-.78l23-13.28,14.77,8.53-37.77,21.81v-17.05Zm6.77,28.08l43.93-25.36,28.98,16.73v50.73l-72.91-42.1Zm85.84,53.81l82.52-47.64c2-1.15,3.23-3.29,3.23-5.6v-1.53l26.73,15.43-112.48,64.94v-25.6Zm178.44-78.33v-25.62s22.2,12.8,22.2,12.8l-22.2,12.82Zm28.25-24.26l-28.24-16.28,.03-87.57,28.21,16.29v87.57Z"/></svg>