<?xml version="1.0" encoding="UTF-8"?><svg id="Capa_1" xmlns="http://www.w3.org/2000/svg" viewBox="0 0 500 500"><defs><style>.cls-1{fill:#5757f7;}</style></defs><path class="cls-1" d="M379.17,319.79V179.12c0-.09-.03-.17-.03-.25-.01-.39-.07-.78-.15-1.16-.03-.13-.05-.26-.09-.39-.14-.48-.32-.95-.58-1.4-.26-.45-.58-.85-.92-1.21-.09-.1-.2-.19-.3-.28-.29-.27-.59-.5-.92-.71-.07-.05-.13-.11-.2-.16l-122.78-70.89c-1.99-1.15-4.44-1.15-6.42,0l-122.78,70.89c-1.99,1.15-3.21,3.27-3.21,5.56v141.77c0,.09,.03,.17,.03,.25,.01,.39,.07,.78,.15,1.16,.03,.13,.05,.26,.09,.39,.14,.48,.32,.95,.58,1.4,0,0,0,0,0,0,.28,.49,.63,.93,1.03,1.33,.25,.25,.55,.44,.83,.64,.17,.12,.3,.27,.48,.37l.04,.02s0,0,0,0l122.73,70.86c.08,.04,.16,.06,.24,.1,.34,.18,.7,.33,1.08,.44,.13,.04,.26,.09,.39,.12,.49,.12,.99,.2,1.51,.2s1.02-.08,1.51-.2c.13-.03,.26-.08,.39-.12,.38-.12,.73-.26,1.08-.44,.08-.04,.16-.05,.24-.1l122.45-70.7c1.13-.54,2.13-1.38,2.8-2.54,.78-1.36,.98-2.87,.74-4.3Zm-68.15,29.32l-54.62-31.54v-56.45l103.56,59.73-48.94,28.26ZM133.62,190.31l48.42,27.93v63.57l-48.42,27.96v-119.45Zm226.28-11.2l-103.5,59.76v-56.05l54.96-31.73,48.54,28.02Zm-164.89,46.6l42.11,24.29-42.11,24.31v-48.6Zm6.4-11.14l42.14-24.33v48.64l-42.14-24.31Zm42.14,46.55v49.03l-42.46-24.51,42.46-24.51Zm12.85-93.14v-48.63l42.12,24.32-42.12,24.32Zm-12.85-24.43v31.85l-48.66,28.09v-56.05l48.66-28.09v24.2Zm-61.51,59.85l-42.06-24.26,42.06-24.28v48.54Zm.12,93.16v48.63l-42.12-24.32,42.12-24.32Zm12.85,.39l48.54,28.02v55.66l-48.54-28.02v-55.66Zm61.39,59.48v-24.04l41.78,24.12-41.78,24.12v-24.2Zm6.43-106.44l103.5-59.76v119.45l-103.5-59.69Z"/></svg>