<?xml version="1.0" encoding="UTF-8"?><svg id="Capa_1" xmlns="http://www.w3.org/2000/svg" viewBox="0 0 500 500"><defs><style>.cls-1{fill:none;}.cls-2{fill:#5757f7;}</style></defs><polygon class="cls-1" points="243.58 261.13 188.77 292.77 243.58 324.41 243.58 261.13"/><polygon class="cls-1" points="189.15 207.49 243.58 238.88 243.58 176.06 189.15 207.49"/><polygon class="cls-1" points="256.42 238.87 359.93 179.11 299.11 144 256.42 168.65 256.42 238.87"/><polygon class="cls-1" points="286.26 136.58 256.42 119.36 256.42 153.81 286.26 136.58"/><polygon class="cls-1" points="243.58 161.23 243.58 119.36 182.61 154.55 182.61 196.42 243.58 161.23"/><polygon class="cls-1" points="326.88 213.03 262.85 250 366.35 309.69 366.35 190.24 326.88 213.03 326.88 213.03"/><polygon class="cls-1" points="237.15 250 182.76 218.63 182.76 281.4 237.15 250"/><polygon class="cls-1" points="256.42 380.64 285.85 363.65 256.42 346.66 256.42 380.64"/><polygon class="cls-1" points="256.42 331.83 298.7 356.23 359.99 320.85 256.42 261.12 256.42 331.83"/><polygon class="cls-1" points="169.77 161.97 140.01 179.15 169.77 196.31 169.77 161.97"/><polygon class="cls-1" points="182.76 304.13 182.76 345.53 243.58 380.64 243.58 339.24 182.76 304.13"/><polygon class="cls-1" points="169.77 211.14 133.65 190.31 133.65 309.76 169.77 288.9 169.77 211.14"/><polygon class="cls-1" points="140.07 320.89 169.91 338.11 169.91 303.66 140.07 320.89"/><path class="cls-2" d="M400.69,329.49l-21.49-12.39V182.82l21.34-12.32c3.07-1.77,4.12-5.7,2.35-8.78-1.77-3.07-5.7-4.12-8.78-2.35l-21.34,12.32-60.82-35.11,14.92-8.61c3.07-1.77,4.12-5.7,2.35-8.78-1.77-3.07-5.7-4.12-8.78-2.35l-21.34,12.32-42.69-24.65v-24.64c0-3.55-2.88-6.42-6.42-6.42s-6.42,2.88-6.42,6.42v24.64l-60.96,35.2v-17.87c0-3.55-2.88-6.42-6.42-6.42s-6.42,2.88-6.42,6.42v25.28l-42.61,24.6-21.43-12.36c-3.08-1.77-7-.72-8.77,2.36-1.77,3.07-.72,7,2.36,8.77l21.49,12.39v134.27l-21.34,12.32c-3.07,1.77-4.12,5.7-2.35,8.78,1.19,2.06,3.35,3.21,5.57,3.21,1.09,0,2.19-.28,3.21-.86l21.34-12.32,42.69,24.64v24.65c0,3.55,2.88,6.42,6.42,6.42s6.42-2.88,6.42-6.42v-17.23l60.82,35.11v24.64c0,3.55,2.88,6.42,6.42,6.42s6.42-2.88,6.42-6.42v-24.64l42.28-24.41,21.9,12.64c1.01,.58,2.12,.86,3.21,.86,2.22,0,4.38-1.15,5.57-3.21,1.77-3.07,.72-7-2.35-8.78l-15.47-8.93,61.29-35.39,21.43,12.36c1.01,.58,2.11,.86,3.2,.86,2.22,0,4.38-1.15,5.57-3.22,1.77-3.07,.72-7-2.36-8.77Zm-34.34-19.8l-103.5-59.69,64.02-36.96s0,0,0,0l39.47-22.79v119.45Zm-129.21-59.69l-54.39,31.4v-62.77l54.39,31.37Zm-48-42.51l54.43-31.42v62.82l-54.43-31.39Zm54.43,53.64v63.28l-54.8-31.64,54.8-31.64Zm116.35-82.01l-103.5,59.76v-70.23l42.69-24.65,60.82,35.11Zm-73.67-42.53l-29.84,17.23v-34.46l29.84,17.23Zm-42.69-17.23v41.87l-60.96,35.2v-41.87l60.96-35.2Zm-73.81,42.61v34.34l-29.76-17.16,29.76-17.18Zm-36.12,28.34l36.12,20.83v77.76l-36.12,20.85v-119.45Zm6.42,130.57l29.84-17.23v34.45l-29.84-17.23Zm42.69,24.64v-41.4l60.82,35.11v41.4l-60.82-35.11Zm73.67,35.11v-33.98l29.43,16.99-29.43,16.99Zm42.28-24.41l-42.28-24.41v-70.71l103.56,59.73-61.29,35.38Z"/></svg>