<?xml version="1.0" encoding="UTF-8"?><svg id="Capa_1" xmlns="http://www.w3.org/2000/svg" viewBox="0 0 500 500"><defs><style>.cls-1{fill:#5757f7;}</style></defs><path class="cls-1" d="M499.5,386.48l-120.3-69.38V182.82l120.06-69.31c3.07-1.77,4.12-5.7,2.35-8.77-1.77-3.07-5.7-4.12-8.78-2.35l-120.06,69.31-110.17-63.61,113.63-65.61c3.07-1.77,4.12-5.7,2.35-8.77-1.77-3.07-5.7-4.12-8.78-2.35l-113.39,65.46V-11.12c0-3.26-2.88-5.9-6.42-5.9s-6.42,2.64-6.42,5.9V104.24l-110.41,63.75V35.99c0-3.55-2.88-6.42-6.42-6.42s-6.42,2.88-6.42,6.42V167.79L6.92,102.39c-3.07-1.77-7-.72-8.77,2.35-1.77,3.07-.72,7,2.36,8.77l119.81,69.1v134.84L.74,386.49c-3.07,1.77-4.12,5.7-2.35,8.77,1.19,2.06,3.35,3.21,5.57,3.21,1.09,0,2.19-.28,3.21-.86l113.39-65.46v130.93c0,3.55,2.88,6.42,6.42,6.42s6.42-2.88,6.42-6.42v-130.14l110.17,63.61v114.06c0,3.26,2.88,5.9,6.42,5.9s6.42-2.64,6.42-5.9v-106.64l113.63,65.6c1.01,.58,2.12,.86,3.21,.86,2.22,0,4.38-1.15,5.57-3.21,1.77-3.07,.72-7-2.35-8.77l-114.56-66.14,110.93-64.04,120.24,69.35c1.01,.58,2.11,.86,3.2,.86,2.22,0,4.38-1.15,5.57-3.22,1.77-3.07,.72-7-2.36-8.77Zm-133.15-76.79l-103.5-59.69,103.5-59.76v119.45Zm-232.71-119.38l103.5,59.69-103.5,59.76v-119.45Zm6.36-11.16l103.57-59.79v119.52l-103.57-59.73Zm103.57,201.49l-103.51-59.76,103.51-59.76v119.52Zm12.85-141.77V119.36l103.51,59.76-103.51,59.76Zm0,141.77v-119.52l103.57,59.73-103.57,59.79Z"/></svg>