<?xml version="1.0" encoding="UTF-8"?><svg id="Capa_1" xmlns="http://www.w3.org/2000/svg" viewBox="0 0 500 500"><defs><style>.cls-1{fill:#5757f7;}</style></defs><path class="cls-1" d="M375.99,173.55l-122.78-70.89c-1.99-1.15-4.44-1.15-6.42,0l-122.78,70.89c-1.99,1.15-3.21,3.27-3.21,5.56v141.77c0,2.3,1.22,4.42,3.21,5.56l122.78,70.88c.99,.57,2.1,.86,3.21,.86s2.22-.29,3.21-.86l122.78-70.88c1.99-1.15,3.21-3.27,3.21-5.56V179.12c0-2.3-1.22-4.42-3.21-5.56Zm-58.53-18.19l41.66,24.13-41.66,24.13v-48.26Zm-60.91-35.13l48.06,28.53v54.86l-48.06-27.83v-55.56Zm-73.32,224.74l-42.13-24.38,42.13-24.4v48.78Zm-48.58-35.49l.04-126.26,109.01-63.13v57.54l-59.31,103.04-49.75,28.81Zm109.49,70.74l-48.06-27.81v-55.7l48.06,27.83v55.68Zm3.79-68.84l-49.79-28.83,54.28-94.3,49.79,28.83-54.28,94.3Zm117.51,5.4l-108.46,62.81v-58.19l58.63-101.87,49.86-28.88-.04,126.13Z"/></svg>