<?xml version="1.0" encoding="UTF-8"?><svg id="Capa_1" xmlns="http://www.w3.org/2000/svg" viewBox="0 0 500 500"><defs><style>.cls-1{fill:#5757f7;}</style></defs><path class="cls-1" d="M499.35,202.68c0-.26-.04-.52-.1-.78-.02-.09-.03-.17-.06-.26-.09-.32-.21-.63-.39-.94-.17-.3-.39-.56-.61-.8-.06-.07-.13-.12-.2-.19-.19-.18-.39-.33-.61-.47-.05-.03-.09-.08-.14-.1l-81.67-47.15c-1.32-.76-2.95-.76-4.27,0l-34.71,20.04v-16.34c0-2.36-1.91-4.27-4.27-4.27s-4.27,1.91-4.27,4.27v16.01l-34.14-19.71c-1.32-.76-2.95-.76-4.27,0l-40.54,23.41c-.12,.06-.25,.1-.37,.17l-34.43,19.88v-16.25c0-2.36-1.91-4.27-4.27-4.27s-4.27,1.91-4.27,4.27v16.3l-33.4-19.28c-.63-.74-1.5-1.27-2.51-1.45l-39.44-22.77c-1.32-.76-2.95-.76-4.27,0l-38.7,22.34-38.7-22.34c-1.32-.76-2.95-.76-4.27,0L2.76,199.14c-1.32,.76-2.14,2.17-2.14,3.7v94.31c0,1.53,.81,2.94,2.14,3.7l81.67,47.15c.66,.38,1.4,.57,2.14,.57s1.48-.19,2.14-.57l38.7-22.34,38.7,22.34c.66,.38,1.4,.57,2.14,.57s1.48-.19,2.14-.57l40.41-23.33c.33-.13,.63-.32,.91-.52l34.03-19.65v16.3c0,2.36,1.91,4.27,4.27,4.27s4.27-1.91,4.27-4.27v-15.99l34.51,19.92c.43,.25,.89,.39,1.35,.47l39.48,22.8c.66,.38,1.4,.57,2.14,.57s1.48-.19,2.14-.57l34.14-19.71v16.01c0,2.36,1.91,4.27,4.27,4.27s4.27-1.91,4.27-4.27v-16.34l34.71,20.04c.66,.38,1.4,.57,2.14,.57s1.48-.19,2.14-.57l81.67-47.15c1.32-.76,2.14-2.17,2.14-3.7v-94.31c0-.06-.02-.11-.02-.16Zm-331.11-42.06l36.57,21.11v37.27l-13.79-7.95s0,0,0,0l-20.62-11.89s-.01,0-.02-.01l-34.43-19.88,32.29-18.64Zm-81.67,178.75L9.17,294.69v-89.37l77.4-44.69,32.29,18.64-34.43,19.88c-1.32,.76-2.14,2.17-2.14,3.7v44.85l-38.41,22.18c-2.04,1.18-2.74,3.79-1.56,5.84,.79,1.37,2.23,2.14,3.71,2.14,.72,0,1.46-.18,2.13-.57l34.14-19.71v39.59c0,1.53,.81,2.94,2.14,3.7l34.43,19.88-32.29,18.64Zm4.27-44.69v-42.05l38.99-22.51c2.04-1.18,2.74-3.79,1.56-5.84-1.18-2.04-3.8-2.75-5.84-1.56l-34.71,20.04v-37.45l36.56-21.11,36.56,21.11v89.37l-36.56,21.11-36.56-21.11Zm114.04,23.53l-36.65,21.16-32.29-18.64,34.43-19.88c1.32-.76,2.14-2.17,2.14-3.7v-86.91l32.29,18.62v44.92c0,.2,.05,.4,.08,.6v43.83Zm8.47-131.54l28.05,16.2-28.05,16.2v-32.39Zm.08,126.61v-32.04l27.75,16.02-27.75,16.02Zm32.21-23.32l-32.21-18.6v-37.53l32.21,18.58v37.55Zm0-47.41l-27.95-16.12,27.95-16.14v32.26Zm8.71-37.24l77.4-44.69,32.29,18.64-34.43,19.88c-1.32,.76-2.14,2.17-2.14,3.7v86.91l-14.23-8.21s0,0,0,0l-58.89-33.97v-42.27Zm77.4,134.06l-77.4-44.69v-37.24l75.25,43.4s0,0,.01,0l.03,.02s0,0,0,0l34.39,19.86-32.29,18.64Zm36.28-26.21l-27.73-16.01,27.73-16.01v32.02Zm0-41.89l-32,18.48v-84.44l32-18.48v84.44Zm45.39-110.65l73.13,42.22-68.85,39.75v-39.75c0-1.53-.81-2.94-2.14-3.7l-34.43-19.88,32.29-18.64Zm-36.85,25.88l32.58,18.81v42.22l-32.58,18.81v-79.83Zm0,89.7l32.58-18.81v37.28l-32.58,18.81v-37.29Zm114.25,18.48l-77.4,44.69-32.29-18.64,34.43-19.88c1.32-.76,2.14-2.17,2.14-3.7v-44.69l73.13-42.22v84.44Z"/></svg>