<?xml version="1.0" encoding="UTF-8"?><svg id="Capa_1" xmlns="http://www.w3.org/2000/svg" viewBox="0 0 500 500"><defs><style>.cls-1{fill:#5757f7;}</style></defs><path class="cls-1" d="M283.64,412.01l-61.25-35.36c-1.99-1.15-4.44-1.15-6.42,0l-61.53,35.52c-1.99,1.15-3.21,3.27-3.21,5.56s1.22,4.42,3.21,5.56l61.25,35.36c.99,.57,2.1,.86,3.21,.86s2.22-.29,3.21-.86l61.53-35.52c1.99-1.15,3.21-3.27,3.21-5.56s-1.22-4.42-3.21-5.56Zm-64.74,33.67l-48.4-27.94,48.68-28.11,48.4,27.94-48.68,28.11Z"/><path class="cls-1" d="M406.81,76.93s-.09-.03-.14-.06c-.04-.03-.07-.06-.11-.09l-61.39-35.44c-1.99-1.15-4.44-1.15-6.42,0l-58.18,33.59-58.18-33.59s-.11-.04-.16-.06c-.45-.24-.92-.45-1.41-.58,0,0,0,0,0,0-.49-.13-.99-.18-1.49-.19-.13,0-.26,0-.4,.01-.39,.01-.77,.06-1.15,.15-.13,.03-.26,.05-.39,.09-.48,.14-.95,.32-1.4,.58-.01,0-.02,0-.03,.01,0,0,0,0,0,0l-60.82,35.15c-.22,.1-.45,.15-.66,.28-.2,.12-.36,.29-.55,.42l-60.73,35.1s0,0,0,0c0,0-.01,.01-.02,.02-.45,.26-.84,.58-1.2,.92-.1,.1-.19,.2-.29,.31-.26,.28-.49,.58-.69,.9-.08,.12-.15,.23-.22,.36-.23,.43-.43,.88-.56,1.35,0,.01,0,.02-.01,.03-.13,.49-.19,1-.2,1.51,0,.06-.02,.11-.02,.16v141.69c0,.53,.08,1.03,.2,1.53,.03,.14,.08,.27,.13,.4,.12,.37,.26,.71,.44,1.05,.07,.13,.13,.25,.2,.37,.26,.43,.56,.83,.91,1.19,0,0,0,0,0,0,.36,.36,.77,.66,1.21,.93,.05,.03,.08,.07,.13,.1l60.3,34.65c.33,.29,.68,.55,1.07,.78,0,0,0,0,0,0,0,0,0,0,0,0l61.39,35.44c.5,.29,1.02,.5,1.56,.65,.54,.14,1.09,.22,1.64,.22s1.11-.07,1.65-.21c.14-.04,.26-.12,.4-.16,.39-.13,.79-.27,1.15-.47,0,0,.02,0,.02,0l61.05-35.25s0,0,0,0l.18-.1s.05-.04,.07-.06c.03-.02,.06-.02,.08-.03l60.46-34.9c.28-.11,.58-.2,.85-.35l.2-.11s0,0,0,0l61.51-35.51c1.99-1.15,3.21-3.27,3.21-5.56V82.48c0-2.29-1.22-4.41-3.2-5.56Zm-255.56,16.66v48.49l-42-24.22,42-24.27Zm.12,190.15l-42.06-24.17,42.06-24.11v48.28Zm0-63.09l-48.54,27.82v-119.49l21.21,12.23s.04,.03,.07,.04l27.27,15.73v63.67Zm12.73-127.08l42.09,24.3-42.09,24.3v-48.61Zm.12,70.79l42.12,24.32-42.12,24.32v-48.63Zm0,71.28l41.77,24.12-41.77,24.12v-48.24Zm48.54,83.68l-42.12-24.32,42.12-24.32v48.63Zm0-70.49l-42.46-24.51,42.46-24.51v49.03Zm0-71.28l-42.12-24.32,42.12-24.32v48.63Zm0-70.72l-42.23-24.38,42.23-24.41v48.79Zm74.35-13.29l42,24.25-42,24.25v-48.5Zm-61.51-35.51l41.97,24.24-41.97,24.23V58.03Zm0,63.47l48.66-28.09v56.05l-48.66,28.09v-56.05Zm48.66,42.79v48.74l-42.23-24.36,42.23-24.38Zm-48.66,155.03v-48.24l41.77,24.12-41.77,24.12Zm54.96-31.73l-54.96-31.73v-56.05l51.87,29.92s0,0,0,0l51.63,29.84-48.55,28.03Zm6.54-67.14v-63.57l48.43-27.96,.11,119.58-48.54-28.05Zm54.85-110.07l-48.45-28.08,48.44-27.97,48.54,28.03-48.53,28.02Zm55.2,110.04l-48.67,28.1-.11-126.99,48.78-27.94v126.84Z"/></svg>