<?xml version="1.0" encoding="UTF-8"?><svg id="Capa_1" xmlns="http://www.w3.org/2000/svg" viewBox="0 0 500 500"><defs><style>.cls-1{fill:#5757f7;}</style></defs><path class="cls-1" d="M376.11,315.32l-113.26-65.32,113.13-65.32c3.07-1.77,4.13-5.7,2.35-8.78-1.77-3.07-5.71-4.12-8.78-2.35l-113.14,65.32v-56.05l58.18-33.59c3.07-1.77,4.13-5.7,2.35-8.78-1.77-3.07-5.7-4.13-8.78-2.35l-51.75,29.88v-59.76c0-3.55-2.88-6.42-6.42-6.42s-6.42,2.88-6.42,6.42v67.18l-48.66,28.09v-60.29c0-3.55-2.88-6.42-6.42-6.42s-6.42,2.88-6.42,6.42v60.2l-20.73-11.96s0,0,0,0l-31.03-17.89c-3.08-1.78-7-.72-8.77,2.35-1.77,3.07-.72,7,2.35,8.77l58.18,33.55v63.56l-58.06,33.52c-3.07,1.77-4.13,5.7-2.35,8.78,1.19,2.06,3.35,3.21,5.57,3.21,1.09,0,2.19-.28,3.21-.86l51.75-29.88v59.76c0,3.55,2.88,6.42,6.42,6.42s6.42-2.88,6.42-6.42v-59.37l48.54,28.03v66.78c0,3.55,2.88,6.42,6.42,6.42s6.42-2.88,6.42-6.42v-59.36l51.87,29.95c1.01,.58,2.12,.86,3.21,.86,2.22,0,4.38-1.15,5.57-3.21,1.77-3.07,.72-7-2.35-8.78l-58.3-33.66v-56.45l82.24,47.43s0,0,0,0l31.03,17.89c1.01,.58,2.12,.86,3.2,.86,2.22,0,4.38-1.15,5.57-3.22,1.77-3.07,.72-7-2.35-8.77Zm-181.07-89.6l42.11,24.29-42.11,24.31v-48.6Zm48.54,84.44l-42.46-24.51,42.46-24.51v49.03Zm0-71.27l-42.14-24.31,42.14-24.33v48.64Z"/></svg>