<?xml version="1.0" encoding="UTF-8"?><svg id="Capa_1" xmlns="http://www.w3.org/2000/svg" viewBox="0 0 500 500"><defs><style>.cls-1{fill:#5757f7;}</style></defs><path class="cls-1" d="M498.83,304.76l-119.56-69.03v-29.74c0-2.3-1.22-4.42-3.21-5.56l-122.78-70.89c-1.99-1.15-4.44-1.15-6.42,0l-113.14,65.32V122.5L250.06,55.32l119.57,69.03c3.07,1.78,7,.72,8.78-2.35,1.77-3.07,.72-7-2.35-8.78L253.27,42.34c-1.99-1.15-4.44-1.15-6.42,0L124.07,113.22c-1.99,1.15-3.21,3.27-3.21,5.56v46.06L1.81,233.58c-1.21,.53-2.28,1.42-2.99,2.66-1.77,3.07-.72,7,2.35,8.77l58.24,33.59-.05,63.53L1.3,375.65c-3.07,1.77-4.13,5.7-2.35,8.78,1.19,2.06,3.35,3.21,5.57,3.21,1.09,0,2.19-.28,3.21-.86l51.75-29.88v59.76c0,3.55,2.88,6.42,6.42,6.42s6.42-2.88,6.42-6.42v-59.36l48.54,28.02v66.78c0,3.55,2.88,6.42,6.42,6.42s6.42-2.88,6.42-6.42v-59.37l51.87,29.95c1.01,.58,2.12,.86,3.21,.86,2.22,0,4.38-1.15,5.57-3.21,1.77-3.07,.72-7-2.35-8.78l-58.3-33.66v-19l109.93,63.47v29.74c0,3.55,2.88,6.42,6.42,6.42s6.42-2.88,6.42-6.42v-29.74l119.57-69.03c1.99-1.15,3.21-3.27,3.21-5.56v-97.2l113.14,65.32c3.07,1.77,7,.72,8.78-2.35,1.77-3.07,.72-7-2.35-8.78ZM250.06,142.53l116.35,67.18v26.03l-119.57,69.03c-1.99,1.15-3.21,3.27-3.21,5.56v9.99l-60.4-34.87,70.04-40.44c3.07-1.77,4.13-5.7,2.35-8.78-1.77-3.07-5.7-4.13-8.78-2.35l-61.39,35.44s0,0,0,0l-15.08,8.7-36.68-21.18v-13.7l58.18-33.59c3.07-1.77,4.13-5.7,2.35-8.78s-5.7-4.13-8.78-2.35l-51.75,29.88v-18.61l116.35-67.18ZM17.3,239.48l42.17-24.35-.04,48.64-20.8-12s0,0,0,0l-21.33-12.3Zm97.13,70.85l-42.11,24.31v-48.6l42.11,24.29Zm19.28-11.13v-27.52l23.83,13.76-23.83,13.76Zm-12.85-38.64v38.65l-42.14-24.31,42.14-24.33v9.99Zm0-56.67v31.85l-48.59,28.05,.05-56.08,48.54-28.03v24.2Zm101.51,153.86s0,0,0,0l-82.23-47.42,30.25-17.46,73.25,42.29v34.87l-21.27-12.27Zm-143.97-11.78l42.46-24.51v49.03l-42.46-24.51Zm55.3-1.91v-22.61l109.93,63.4v22.68l-109.93-63.47Zm122.78,63.47v-25.19c.13-.74,.13-1.49,0-2.22v-66.08l109.93-63.47v93.49l-109.93,63.47Z"/></svg>