<?xml version="1.0" encoding="UTF-8"?><svg id="Capa_1" xmlns="http://www.w3.org/2000/svg" viewBox="0 0 500 500"><defs><style>.cls-1{fill:#5757f7;}</style></defs><path class="cls-1" d="M376.02,315.28c-1.92-1.11-56.16-32.4-113.17-65.31l112.94-65.2c1.99-1.15,3.21-3.27,3.21-5.56s-1.22-4.41-3.21-5.56l-121.42-70.1c-.36-.33-.75-.63-1.19-.88-1.99-1.15-4.44-1.15-6.42,0l-122.78,70.89c-1.99,1.15-3.21,3.27-3.21,5.56s1.23,4.42,3.21,5.56c0,0,24.52,14.15,58.05,33.5v63.62l-58.06,33.52c-1.99,1.15-3.21,3.27-3.21,5.56s1.22,4.42,3.21,5.56l122.68,70.83c.94,.56,2.02,.89,3.19,.92,.03,0,.08,0,.12,0,.04,0,.07,0,.11,0,1.17-.02,2.26-.35,3.2-.91,3.99-2.3,120.94-69.83,122.71-70.85,1.94-1.1,3.18-3.14,3.25-5.39,.07-2.36-1.16-4.57-3.21-5.76Zm-119.63-76.41v-56.05l54.39-31.4c.13-.08,.26-.16,.38-.25l48.56,28.04-103.33,59.66Zm-19.24,11.11l-42.15,24.33v-48.65c13.32,7.69,27.64,15.95,42.15,24.32Zm-35.7-35.44l42.1-24.31v48.6c-14.49-8.36-28.79-16.61-42.1-24.29Zm42.1,46.58v49.03l-42.46-24.51,42.46-24.51Zm54.79-117.36l-41.95,24.22v-48.44l41.95,24.22Zm-54.79,31.64l-48.66,28.09v-56.05l48.66-28.09v56.05Zm-103.5,3.71l41.99-24.25v48.48c-18.01-10.39-32.91-18.99-41.99-24.23Zm42.11,117.45v48.63l-42.12-24.32,42.12-24.32Zm12.85,56.05v-55.66l48.54,28.02v55.66l-48.54-28.03Zm61.39-20.21l41.78,24.12c-11.86,6.85-25.67,14.82-41.78,24.12v-48.24Zm54.62,16.7l-54.62-31.54v-56.48c43.42,25.06,85.24,49.19,103.57,59.76-8.02,4.63-22.57,13.03-48.95,28.26Z"/></svg>