<?xml version="1.0" encoding="UTF-8"?><svg id="Capa_1" xmlns="http://www.w3.org/2000/svg" viewBox="0 0 500 500"><defs><style>.cls-1{fill:#5757f7;}</style></defs><path class="cls-1" d="M396.44,149.92l-81.85-47.26c-1.99-1.15-4.44-1.15-6.42,0l-37.71,21.77-37.71-21.77c-1.99-1.15-4.43-1.15-6.42,0l-122.78,70.89c-1.99,1.15-3.21,3.27-3.21,5.56v141.77c0,.09,.03,.17,.03,.25,.01,.39,.07,.77,.15,1.15,.03,.14,.05,.27,.09,.4,.14,.47,.32,.94,.58,1.39,.28,.49,.63,.95,1.04,1.35,.25,.25,.55,.44,.83,.64,.17,.12,.3,.27,.48,.37l.04,.03s0,0,0,0l122.73,70.86c.18,.11,.38,.15,.57,.24,.1,.05,.21,.09,.31,.13,.75,.29,1.53,.49,2.33,.49s1.57-.2,2.33-.49c.11-.04,.21-.08,.31-.13,.19-.09,.39-.13,.57-.24l122.78-70.89c1.99-1.15,3.21-3.27,3.21-5.56v-43.56l37.7-21.77c1.99-1.15,3.21-3.27,3.21-5.56v-94.51c0-2.3-1.22-4.42-3.21-5.56Zm-166.9-34.28l28.07,16.21-31.26,18.05s-.01,0-.02,0l-81.85,47.26c-1.99,1.15-3.21,3.27-3.21,5.56v90.81l-28.08,16.22v-126.93l116.35-67.18Zm116.35,154.26l-34.52,19.93-75.43-43.55v-87.1l34.51-19.92,75.44,43.55v87.09Zm-122.78-19.79v93.94s0,.02,0,.04v36.55l-103.51-59.76,31.29-18.08c1.99-1.15,3.21-3.27,3.21-5.56v-90.81l68.99-39.83v83.39s.02,.08,.02,.12Zm12.85,11.02l62.56,36.12-62.56,36.12v-72.24Zm109.93,56.04l-109.93,63.47v-32.43l78.62-45.39,31.3-18.07v32.43Zm40.91-70.88l-28.06,16.2v-83.38c0-2.3-1.22-4.42-3.21-5.56l-72.22-41.7,28.07-16.21,75.43,43.55v87.1Z"/></svg>