<?xml version="1.0" encoding="UTF-8"?><svg id="Capa_1" xmlns="http://www.w3.org/2000/svg" viewBox="0 0 500 500"><defs><style>.cls-1{fill:#5757f7;}</style></defs><path class="cls-1" d="M396.56,149.92l-81.85-47.26c-1.99-1.15-4.44-1.15-6.42,0l-37.71,21.77-37.71-21.77c-1.99-1.15-4.43-1.15-6.42,0l-122.78,70.89c-1.99,1.15-3.21,3.27-3.21,5.56v141.77c0,2.3,1.22,4.42,3.21,5.56l122.78,70.89c.99,.57,2.1,.86,3.21,.86s2.22-.29,3.21-.86l122.78-70.89c1.99-1.15,3.21-3.27,3.21-5.56v-43.56l37.7-21.77c1.99-1.15,3.21-3.27,3.21-5.56v-94.51c0-2.3-1.22-4.42-3.21-5.56Zm-50.55,167.25l-116.35,67.18-109.87-63.43,31.24-18.12c1.98-1.15,3.2-3.27,3.2-5.56v-90.81l68.99-39.83v83.39c0,2.3,1.22,4.42,3.21,5.56l78.56,45.35v-94.6c-11.19-6.62-51.92-30.14-78.27-45.14-.16-.09-.33-.19-.49-.28-1.03-.58-2.04-1.16-3.01-1.71-2.31-1.31-4.48-2.54-6.48-3.67l-72.15,41.65c-1.99,1.15-3.21,3.27-3.21,5.56v90.81l-28.08,16.28v-127l116.35-67.18,28.07,16.21-28.09,16.22c9.01,5.12,20.07,11.44,31.21,17.84,21.17,12.16,51.98,29.97,54.2,31.48,1.75,1.2,2.8,3.18,2.8,5.3v98.31l28.18-16.27v32.43Z"/></svg>