<?xml version="1.0" encoding="UTF-8"?><svg id="Capa_1" xmlns="http://www.w3.org/2000/svg" viewBox="0 0 500 500"><defs><style>.cls-1{fill:#5757f7;}</style></defs><path class="cls-1" d="M396.56,149.92l-81.85-47.26c-1.99-1.15-4.44-1.15-6.42,0l-37.71,21.77-37.71-21.77c-1.99-1.15-4.43-1.15-6.42,0l-122.78,70.89c-1.99,1.15-3.21,3.27-3.21,5.56v141.77c0,2.3,1.22,4.42,3.21,5.56l122.78,70.89c.18,.11,.38,.15,.57,.24,.1,.05,.21,.09,.31,.13,.75,.29,1.53,.49,2.33,.49s1.57-.2,2.33-.49c.11-.04,.21-.08,.31-.13,.19-.09,.39-.13,.57-.24l122.78-70.89c1.99-1.15,3.21-3.27,3.21-5.56v-43.56l37.7-21.77c1.99-1.15,3.21-3.27,3.21-5.56v-94.51c0-2.3-1.22-4.42-3.21-5.56ZM113.31,182.82l116.35-67.18,28.07,16.21-31.26,18.05s-.01,0-.02,0l-81.85,47.26c-1.99,1.15-3.21,3.27-3.21,5.56v94.51c0,.09,.02,.16,.03,.25,0,.23,.03,.45,.07,.68,.03,.2,.06,.4,.11,.59,.05,.2,.11,.39,.18,.59,.07,.2,.14,.4,.23,.59,.09,.18,.19,.36,.29,.53,.1,.18,.21,.35,.33,.52,.12,.17,.26,.33,.4,.48,.14,.16,.27,.31,.43,.45,.15,.14,.3,.26,.46,.38,.18,.14,.36,.27,.56,.39,.07,.04,.13,.1,.21,.14l42.92,24.04c.99,.56,2.07,.82,3.13,.82,2.25,0,4.43-1.18,5.61-3.29,1.73-3.1,.63-7.01-2.47-8.74l-39.63-22.2v-87.04l68.99-39.83v83.39c0,2.3,1.22,4.42,3.21,5.56l72.21,41.69-72.21,41.69c-.08,.05-.14,.11-.22,.16-.13,.09-.26,.18-.38,.28-.22,.17-.44,.33-.64,.52-.08,.08-.15,.16-.22,.24-.21,.23-.42,.46-.59,.72-.05,.07-.09,.15-.14,.22-.18,.28-.34,.56-.47,.86-.03,.08-.06,.16-.09,.24-.12,.31-.22,.63-.3,.95-.02,.08-.03,.16-.04,.24-.06,.35-.1,.69-.11,1.05,0,.03,0,.06,0,.09v36.13l-109.93-63.47V182.82Zm232.71,134.35l-109.93,63.47v-32.43l78.62-45.39,31.3-18.07v32.43Z"/></svg>