<?xml version="1.0" encoding="UTF-8"?><svg id="Capa_1" xmlns="http://www.w3.org/2000/svg" viewBox="0 0 500 500"><defs><style>.cls-1{fill:none;}.cls-2{fill:#5757f7;}</style></defs><path class="cls-1" d="M227.07,97.06l-17.32,10c-.7,.4-1.46,.6-2.22,.6-1.53,0-3.03-.8-3.85-2.22-1.23-2.12-.5-4.84,1.63-6.07l14.61-8.44-50.36-29.07v87.75l75.99,43.88V105.73l-17.13-9.89c-.35,.48-.8,.9-1.35,1.22Z"/><path class="cls-1" d="M254.44,396.84c0,2.45-1.99,4.44-4.44,4.44s-4.44-1.99-4.44-4.44v-90.32l-75.99,43.88v92.88l80.44,46.44,80.44-46.44v-92.88l-75.99-43.88v90.32Z"/><polygon class="cls-1" points="254.44 152.12 254.44 193.48 325.99 152.17 254.44 110.86 254.44 152.12"/><path class="cls-1" d="M174.01,54.16l156.43,90.31V56.73L250,10.29l-75.99,43.88Zm122.25,51.16c-.82,1.43-2.32,2.22-3.85,2.22-.75,0-1.52-.19-2.22-.59l-84.81-48.93c-2.12-1.23-2.85-3.94-1.63-6.07,1.23-2.12,3.94-2.85,6.07-1.63l84.81,48.93c2.12,1.23,2.85,3.94,1.63,6.07Zm-23.32-45l17.32-10c2.12-1.23,4.84-.5,6.07,1.63s.5,4.84-1.63,6.07l-17.32,10c-.7,.4-1.46,.6-2.22,.6-1.53,0-3.03-.8-3.85-2.22-1.23-2.12-.5-4.84,1.63-6.07Z"/><path class="cls-2" d="M296.02,244.66c-1.23-2.12-3.94-2.85-6.07-1.63l-41.02,23.68-39.41-22.73c-2.12-1.22-4.84-.5-6.07,1.63-1.23,2.12-.5,4.84,1.63,6.07l34.97,20.17-34.45,19.89c-2.12,1.23-2.85,3.94-1.63,6.07,.82,1.42,2.31,2.22,3.85,2.22,.75,0,1.52-.19,2.22-.6l38.89-22.46,41.54,23.96c.7,.4,1.46,.59,2.21,.59,1.54,0,3.03-.8,3.85-2.22,1.23-2.12,.5-4.84-1.63-6.07l-37.1-21.4,36.58-21.12c2.12-1.23,2.85-3.94,1.63-6.07Z"/><path class="cls-2" d="M294.63,99.26l-84.81-48.93c-2.12-1.23-4.84-.5-6.07,1.63-1.23,2.12-.5,4.84,1.63,6.07l84.81,48.93c.7,.4,1.46,.59,2.22,.59,1.53,0,3.03-.8,3.85-2.22,1.23-2.12,.5-4.84-1.63-6.07Z"/><path class="cls-2" d="M337.1,50.32L252.22,1.32c-1.37-.79-3.07-.79-4.44,0l-84.88,49c-1.37,.79-2.22,2.26-2.22,3.85v98.01c0,1.59,.85,3.05,2.22,3.85l82.66,47.72v45.68c0,2.45,1.99,4.44,4.44,4.44s4.44-1.99,4.44-4.44v-45.68l82.66-47.72c1.37-.79,2.22-2.26,2.22-3.85V54.16c0-1.59-.85-3.05-2.22-3.85Zm-91.54,101.81v41.36l-75.99-43.88V61.86l50.36,29.07-14.61,8.44c-2.12,1.23-2.85,3.94-1.63,6.07,.82,1.42,2.31,2.22,3.85,2.22,.75,0,1.52-.19,2.22-.6l17.32-10c.55-.32,1-.74,1.35-1.22l17.13,9.89v46.39Zm8.88,41.36V110.86l71.55,41.31-71.55,41.31Zm75.99-49L174.01,54.16,250,10.29l80.44,46.44v87.75Z"/><path class="cls-2" d="M337.1,343.98l-84.88-49c-.41-.23-.84-.39-1.29-.49-.03,0-.05-.01-.08-.02-.56-.11-1.14-.11-1.7,0-.03,0-.05,.01-.08,.02-.45,.1-.88,.25-1.29,.49l-84.88,49c-.23,.13-.44,.29-.65,.46-.05,.04-.1,.09-.15,.13-.19,.17-.36,.36-.51,.56-.02,.02-.03,.05-.05,.07-.14,.18-.25,.38-.36,.58-.03,.06-.06,.12-.09,.18-.11,.23-.2,.46-.26,.71,0,0,0,.01,0,.01-.06,.24-.1,.48-.12,.73,0,.07-.01,.14-.01,.21,0,.07-.01,.13-.01,.2v98.01c0,1.59,.85,3.05,2.22,3.85l84.88,49c.69,.4,1.45,.6,2.22,.6s1.53-.2,2.22-.6l84.88-49c.06-.03,.11-.07,.16-.11,.06-.04,.12-.08,.18-.12,.2-.14,.39-.29,.56-.46,0,0,.01-.01,.02-.02,.18-.18,.33-.37,.48-.58,.04-.06,.08-.11,.11-.17,.12-.19,.23-.39,.32-.6,.01-.03,.03-.05,.04-.08,.1-.23,.17-.47,.22-.72,.02-.07,.03-.13,.04-.2,.05-.26,.08-.52,.08-.79v-98.01c0-1.59-.85-3.05-2.22-3.85Zm-6.66,99.29l-80.44,46.44-80.44-46.44v-92.88l75.99-43.88v90.32c0,2.45,1.99,4.44,4.44,4.44s4.44-1.99,4.44-4.44v-90.32l75.99,43.88v92.88Z"/><path class="cls-2" d="M275.15,68.61c.75,0,1.52-.19,2.22-.6l17.32-10c2.12-1.23,2.85-3.94,1.63-6.07s-3.94-2.85-6.07-1.63l-17.32,10c-2.12,1.23-2.85,3.94-1.63,6.07,.82,1.42,2.31,2.22,3.85,2.22Z"/></svg>