<?xml version="1.0" encoding="UTF-8"?><svg id="Capa_1" xmlns="http://www.w3.org/2000/svg" viewBox="0 0 500 500"><defs><style>.cls-1{fill:#fff;}.cls-2{fill:#5757f7;}</style></defs><rect class="cls-2" y="0" width="500" height="500"/><g><path class="cls-1" d="M223.64,259.5c-1.99-1.15-3.21-3.27-3.21-5.56v-83.39l-68.99,39.83v87.04l39.63,22.2c3.1,1.73,4.2,5.65,2.47,8.74-1.18,2.1-3.36,3.29-5.61,3.29-1.06,0-2.14-.26-3.13-.82l-42.92-24.04c-.08-.04-.13-.1-.21-.14-.19-.12-.38-.25-.56-.39-.16-.12-.32-.25-.46-.38-.15-.14-.29-.29-.43-.45-.14-.16-.28-.31-.4-.48-.12-.17-.22-.34-.33-.52-.1-.18-.2-.35-.29-.53-.09-.19-.16-.39-.23-.59-.07-.19-.13-.39-.18-.59-.05-.19-.08-.39-.11-.59-.03-.23-.06-.45-.07-.68,0-.08-.03-.16-.03-.25v-94.51c0-2.3,1.22-4.42,3.21-5.56l81.85-47.26s.01,0,.02,0l34.07-19.67-30.88-17.83-119.33,68.89v137.79l112.9,65.18v-39.75s0-.06,0-.09c0-.35,.04-.7,.11-1.05,.01-.08,.02-.16,.04-.24,.07-.33,.17-.64,.3-.95,.03-.08,.06-.16,.09-.24,.13-.3,.29-.58,.47-.86,.05-.07,.09-.15,.14-.22,.18-.25,.38-.49,.59-.72,.07-.08,.14-.16,.22-.24,.2-.19,.41-.36,.64-.52,.13-.1,.25-.19,.38-.28,.08-.05,.14-.11,.22-.16l72.21-41.69-72.21-41.69Z"/><path class="cls-1" d="M393.77,153.86l-81.85-47.26c-1.99-1.15-4.44-1.15-6.42,0l-47.79,27.59h0s1.36,.77,1.36,.77l11.56,6.6,20.48-11.82,17.61-10.16,75.43,43.55v87.1l-37.94,21.9h0s0,14.84,0,14.84l-34.28,19.79-78.62,45.39v36.05l112.9-65.18v-36.05l47.57-27.47c1.99-1.15,3.21-3.27,3.21-5.56v-94.51c0-2.3-1.22-4.42-3.21-5.56Z"/></g></svg>