<?xml version="1.0" encoding="UTF-8"?><svg id="Capa_1" xmlns="http://www.w3.org/2000/svg" viewBox="0 0 500 500"><defs><style>.cls-1{fill:#fff;}.cls-2{fill:#5757f7;}</style></defs><rect class="cls-2" y="0" width="500" height="500"/><path class="cls-1" d="M396.56,149.92l-81.85-47.26c-1.99-1.15-4.44-1.15-6.42,0l-37.71,21.77-37.71-21.77c-1.99-1.15-4.44-1.15-6.42,0l-122.78,70.89c-1.99,1.15-3.21,3.27-3.21,5.56v141.77c0,.08,.03,.16,.03,.25,.01,.39,.07,.78,.16,1.17,.03,.13,.05,.26,.09,.38,.14,.48,.32,.96,.59,1.41,.03,.05,.07,.08,.09,.12,.27,.44,.57,.85,.94,1.22,.27,.26,.58,.46,.88,.67,.15,.11,.28,.24,.44,.34l.04,.02s0,0,.01,0l122.72,70.85c.18,.11,.39,.15,.58,.24,.1,.05,.2,.09,.31,.13,.75,.29,1.53,.5,2.33,.5s1.58-.2,2.33-.49c.11-.04,.21-.08,.31-.13,.19-.09,.39-.13,.57-.24l122.78-70.89c1.99-1.15,3.21-3.27,3.21-5.56v-43.56l37.7-21.77c1.99-1.15,3.21-3.27,3.21-5.56v-94.51c0-2.3-1.22-4.42-3.21-5.56Zm-173.34,100.08h0s.01,130.64,.01,130.64l-103.51-59.76,31.29-18.08c1.99-1.15,3.21-3.27,3.21-5.56v-90.81l68.99-39.83v83.39h0Zm12.85,11.13l62.58,36.13-62.57,36.12v-72.25Zm75.42,28.71l-75.43-43.55v-87.1l34.51-19.92,75.43,43.55v87.09l-34.52,19.93ZM229.66,115.65l28.07,16.21-31.26,18.05s-.01,0-.02,0l-81.85,47.26c-1.99,1.15-3.21,3.27-3.21,5.56v90.81l-28.08,16.22v-126.93l116.35-67.18Zm116.35,201.53l-109.93,63.47v-32.43s78.63-45.4,78.63-45.4l31.3-18.07v32.43Z"/></svg>