<?xml version="1.0" encoding="UTF-8"?><svg id="Capa_1" xmlns="http://www.w3.org/2000/svg" viewBox="0 0 500 500"><defs><style>.cls-1{fill:none;}.cls-2{fill:#fff;}.cls-3{fill:#5757f7;}</style></defs><rect class="cls-3" y="0" width="500" height="500"/><g><path class="cls-1" d="M276.89,136.76l72.22,41.7c1.99,1.15,3.21,3.27,3.21,5.56v83.38l28.06-16.2v-87.1l-75.43-43.55-28.07,16.21Z"/><polygon class="cls-2" points="229.54 353.12 229.54 385.74 339.47 322.27 339.47 289.65 308.17 307.73 229.54 353.12"/><path class="cls-2" d="M219.91,154.82s.01,0,.02,0l31.1-17.96-27.91-16.11-109.64,63.3,27.8,16.17,78.63-45.4Z"/><path class="cls-2" d="M219.89,260.47c-1.99-1.15-3.21-3.27-3.21-5.56v-83.39l-68.99,39.83v87.04l39.63,22.2c3.1,1.73,4.2,5.65,2.46,8.74-1.18,2.1-3.36,3.29-5.61,3.29-1.06,0-2.14-.26-3.13-.82l-42.92-24.04c-.08-.04-.14-.1-.21-.15-.19-.12-.37-.25-.55-.39-.16-.13-.32-.25-.47-.39-.15-.14-.28-.29-.42-.44-.14-.16-.28-.32-.41-.49-.12-.16-.22-.34-.32-.51-.11-.18-.21-.36-.3-.54-.09-.19-.16-.38-.23-.58-.07-.2-.14-.39-.18-.59-.05-.19-.08-.39-.11-.59-.03-.23-.06-.45-.07-.68,0-.08-.03-.16-.03-.25v-90.82l-28.08-16.33v127.27l109.93,63.47v-36.32s0-.05,0-.08c0-.36,.04-.71,.11-1.06,.01-.08,.02-.15,.04-.23,.07-.33,.18-.65,.3-.96,.03-.08,.06-.16,.09-.24,.13-.3,.29-.58,.47-.86,.05-.07,.09-.15,.14-.22,.17-.25,.38-.49,.59-.71,.08-.08,.14-.17,.22-.24,.19-.19,.41-.36,.63-.52,.13-.1,.25-.19,.39-.28,.08-.05,.14-.11,.22-.16l72.22-41.69-72.22-41.69Z"/><path class="cls-2" d="M390.02,154.83l-81.85-47.26c-.99-.57-2.1-.86-3.21-.86-1.11,0-2.22,.29-3.21,.86l-37.87,21.86-3.05,1.76c-1.99,1.15-3.21,3.27-3.21,5.56s1.22,4.42,3.21,5.56l78.65,45.41v90.8c0,2.3,1.22,4.42,3.21,5.56,.99,.57,2.1,.86,3.21,.86s2.22-.29,3.21-.86l3.21-1.85,37.7-21.77c1.99-1.15,3.21-3.27,3.21-5.56v-94.51c0-2.3-1.22-4.42-3.21-5.56Zm-9.64,96.37l-28.06,16.2v-83.38c0-2.3-1.22-4.42-3.21-5.56l-72.22-41.7,28.07-16.21,75.43,43.55v87.1Z"/></g></svg>