<?xml version="1.0" encoding="UTF-8"?><svg id="Capa_1" xmlns="http://www.w3.org/2000/svg" viewBox="0 0 500 500"><defs><style>.cls-1{fill:#fff;}.cls-2{fill:#5757f7;}</style></defs><rect class="cls-2" width="500" height="500"/><g><path class="cls-1" d="M218.17,260.62v-83.39l-68.99,39.83v87.04l36.94,20.69,68.38-39.48-33.12-19.12c-1.99-1.15-3.21-3.27-3.21-5.56Z"/><polygon class="cls-1" points="142.76 351.34 177.24 371.24 177.24 334.54 142.76 315.23 142.76 351.34"/><path class="cls-1" d="M105.28,191.91v93.39l31.05,17.93v-89.89c0-1.14,.3-2.23,.85-3.19l-31.75-18.33-.15,.09Z"/><polygon class="cls-1" points="312.88 347.63 343.93 329.7 343.93 293.65 312.88 311.58 312.88 347.63"/><path class="cls-1" d="M221.41,160.52l34.07-19.67-30.88-17.83-40.95,23.64v35.65l37.73-21.78s.01,0,.02,0Z"/><path class="cls-1" d="M391.51,160.54l-81.85-47.26c-1.99-1.15-4.44-1.15-6.42,0l-38.27,22.1h0s-9.45,5.51-9.45,5.51l12.8,7.4-37.29,21.53v87.1l75.43,43.55,37.46-21.63v14.79l47.6-27.44c1.99-1.15,3.21-3.27,3.21-5.56v-94.51c0-2.3-1.22-4.42-3.21-5.56Zm-9.64,96.37l-31.04,17.92-6.9,3.98v-86.9l-75.6-43.65,6.9-3.98,6.56-3.79,24.65-14.23,75.43,43.55v87.1Z"/></g></svg>