<?xml version="1.0" encoding="UTF-8"?><svg id="Capa_1" xmlns="http://www.w3.org/2000/svg" viewBox="0 0 500 500"><defs><style>.cls-1{fill:#fff;}.cls-2{fill:#5757f7;}</style></defs><rect class="cls-2" y=".86" width="500" height="500"/><g><polygon class="cls-1" points="230.06 348.12 230.06 380.74 339.99 317.27 339.99 284.65 308.68 302.72 230.06 348.12"/><path class="cls-1" d="M217.2,166.51l-68.99,39.83v90.81c0,.53-.08,1.03-.2,1.52-.03,.14-.08,.27-.12,.4-.11,.36-.26,.71-.43,1.04-.07,.13-.13,.25-.2,.37-.25,.41-.53,.8-.87,1.14-.01,.02-.02,.03-.04,.05-.36,.36-.77,.66-1.21,.93-.04,.03-.08,.07-.12,.09l-31.35,18.26,103.55,59.78v-36.72s0-.04,0-.06v-93.94s-.02-.08-.02-.12v-83.39Z"/><path class="cls-1" d="M223.64,115.74l-116.35,67.18v126.89l28.08-16.35v-90.82c0-2.3,1.22-4.42,3.21-5.56l81.85-47.26s.01,0,.02,0l31.1-17.96-27.91-16.11Z"/><polygon class="cls-1" points="230.06 333.28 292.62 297.16 230.06 261.04 230.06 333.28"/><path class="cls-1" d="M389.5,150.14l-81.85-47.26c-1.41-.82-3.06-1.04-4.61-.69-.63,.14-1.24,.36-1.82,.69l-37.08,21.41-1.19,.69h0s-9.45,5.51-9.45,5.51l12.45,7.2-36.75,21.22v.4l-.19,.11v87.1l75.67,43.69,35.3-20.66,1.92-1.11v14.43l.21,.23,6.9-3.98,40.48-23.34c1.37-.79,2.37-2.05,2.86-3.51,.22-.65,.35-1.34,.35-2.05v-94.51c0-2.3-1.22-4.42-3.21-5.56Zm-9.64,95.97v.4l-27.03,15.61-4,2.31-6.71,3.88v-.4s0-86.9,0-86.9l-75.25-43.45,6.37-3.68,.53-.31,6.03-3.48,24.65-14.23,.24,.14,75.18,43.41v86.7Z"/></g></svg>