<?xml version="1.0" encoding="UTF-8"?><svg id="Capa_1" xmlns="http://www.w3.org/2000/svg" viewBox="0 0 500 500"><defs><style>.cls-1{fill:#5757f7;}</style></defs><path class="cls-1" d="M396.44,149.92l-81.85-47.26c-1.99-1.15-4.44-1.15-6.42,0l-37.71,21.77-37.71-21.77c-1.99-1.15-4.44-1.15-6.42,0l-122.78,70.88c-1.99,1.15-3.21,3.27-3.21,5.56v141.77s0,.04,0,.06c0,.26,.02,.52,.05,.78,0,.02,0,.03,0,.05,.03,.24,.08,.47,.14,.7,.02,.06,.03,.12,.05,.19,.05,.19,.12,.38,.19,.56,.02,.06,.05,.12,.07,.18,.1,.23,.21,.46,.34,.69,.02,.04,.05,.08,.08,.12,.12,.2,.25,.4,.4,.59,.1,.13,.21,.25,.32,.37,.08,.09,.15,.18,.23,.26,.14,.14,.29,.26,.44,.38,.07,.06,.13,.12,.2,.17,.17,.13,.35,.24,.53,.35,.06,.03,.1,.08,.16,.11l.03,.02s.02,.01,.03,.02l122.72,70.85c.99,.57,2.1,.86,3.21,.86s2.22-.29,3.21-.86l122.78-70.88c1.99-1.15,3.21-3.27,3.21-5.56v-43.56l37.7-21.77c1.99-1.15,3.21-3.27,3.21-5.56v-94.51c0-2.3-1.22-4.42-3.21-5.56Zm-173.34,100.08v130.64s-103.49-59.76-103.49-59.76l31.29-18.08c1.99-1.15,3.21-3.27,3.21-5.56v-90.81l68.99-39.83v83.39Zm12.85,11.13l62.58,36.13-62.58,36.17v-72.3Zm-6.42-145.48l28.07,16.21-31.25,18.04s-.02,.01-.03,.02l-81.85,47.26c-1.99,1.15-3.21,3.27-3.21,5.56v90.81l-28.08,16.22v-126.93l116.35-67.18Zm116.35,201.53l-109.93,63.47v-32.37s78.62-45.45,78.62-45.45c0,0,0,0,0,0l31.3-18.07v32.43Zm40.91-70.88l-28.06,16.2v-83.38c0-2.3-1.22-4.42-3.21-5.56l-72.22-41.7,28.07-16.21,75.43,43.55v87.1Z"/></svg>