<?xml version="1.0" encoding="UTF-8"?><svg id="Capa_1" xmlns="http://www.w3.org/2000/svg" viewBox="0 0 500 500"><defs><style>.cls-1{fill:#5757f7;}</style></defs><path class="cls-1" d="M396.44,149.92l-81.85-47.26c-1.99-1.15-4.44-1.15-6.42,0l-37.71,21.77-37.71-21.77c-1.99-1.15-4.44-1.15-6.42,0l-122.78,70.88c-1.99,1.15-3.21,3.27-3.21,5.56v141.77c0,2.3,1.22,4.42,3.21,5.56l122.78,70.88c.18,.1,.38,.15,.57,.23,.11,.05,.22,.09,.33,.14,.75,.29,1.52,.49,2.32,.49s1.56-.2,2.31-.49c.11-.04,.23-.09,.34-.14,.19-.08,.38-.13,.56-.23l122.78-70.88c1.99-1.15,3.21-3.27,3.21-5.56v-43.56l37.7-21.77c1.99-1.15,3.21-3.27,3.21-5.56v-94.51c0-2.3-1.22-4.42-3.21-5.56Zm-160.49,111.2l62.58,36.13-62.57,36.12v-72.25Zm-122.77-78.3l116.35-67.18,28.07,16.21-31.27,18.05s-.01,0-.02,0l-81.85,47.26c-1.99,1.15-3.21,3.27-3.21,5.56v94.51c0,3.55,2.88,6.42,6.42,6.42s6.42-2.88,6.42-6.42v-90.81l68.99-39.83v214.03s-109.91-63.47-109.91-63.47V182.82Zm232.71,134.35l-109.93,63.47v-32.43s78.62-45.39,78.62-45.39l31.3-18.07v32.43Z"/></svg>