<?xml version="1.0" encoding="UTF-8"?><svg id="Capa_1" xmlns="http://www.w3.org/2000/svg" viewBox="0 0 500 500"><defs><style>.cls-1{fill:#5757f7;}</style></defs><path class="cls-1" d="M349.64,317.18l-109.93,63.47v-32.34l78.52-43.12s.04-.03,.06-.04c-.98,.55-2.07,.84-3.16,.84s-2.22-.29-3.21-.86l-9.88-5.7-62.34,34.23v-70.22l-9.64-5.56c-1.99-1.15-3.21-3.27-3.21-5.56v128.34l-109.93-63.47v-127.08l28.08,16.33v90.82c0,.09,.02,.17,.03,.25,0,.23,.03,.45,.07,.67,.03,.2,.06,.41,.11,.6,.05,.2,.11,.38,.18,.58,.07,.2,.14,.41,.23,.6,.08,.18,.18,.35,.28,.52,.11,.18,.21,.37,.34,.54,.12,.16,.25,.31,.38,.47,.14,.16,.28,.32,.44,.47,.14,.13,.29,.25,.45,.37,.19,.14,.38,.28,.58,.41,.07,.04,.13,.1,.2,.14l42.92,24.04c.99,.56,2.07,.82,3.13,.82,2.25,0,4.43-1.18,5.61-3.28,1.73-3.1,.63-7.01-2.47-8.74l-39.63-22.2v-86.95l69-37.89v-9.96c-.21-1.39,0-2.84,.76-4.15,.47-.82,1.12-1.47,1.84-1.98l-77.94,42.8-28.05-16.31,109.81-63.4,30.07,17.36,12.85-7.42-39.71-22.92c-1.99-1.15-4.44-1.15-6.42,0l-121.59,70.2c-1.43,.48-2.71,1.43-3.53,2.84-.59,1.01-.84,2.12-.84,3.21,0,.07-.03,.13-.03,.2v141.77c0,2.3,1.22,4.42,3.21,5.56l122.78,70.88c.18,.1,.38,.15,.56,.23,.11,.05,.22,.09,.34,.14,.75,.29,1.52,.49,2.31,.49s1.56-.2,2.31-.49c.11-.04,.23-.09,.34-.14,.19-.08,.38-.13,.56-.23l122.78-70.88c1.99-1.15,3.21-3.27,3.21-5.56v-41.25l-12.85,7.42v30.12Z"/><polygon class="cls-1" points="315.04 197.58 384.05 157.74 315.14 117.95 246.12 157.79 315.04 197.58"/><polygon class="cls-1" points="239.71 248.59 315.14 292.14 384.13 252.31 239.71 168.93 239.71 248.59"/><polygon class="cls-1" points="327.89 205 390.56 241.19 390.56 168.81 327.89 205"/></svg>