<?xml version="1.0" encoding="UTF-8"?><svg id="Capa_1" xmlns="http://www.w3.org/2000/svg" viewBox="0 0 500 500"><defs><style>.cls-1{fill:none;}.cls-2{fill:#5757f7;}</style></defs><path class="cls-1" d="M117.92,190.77v134.35l116.35,67.18,116.35-67.18V190.77l-116.35-67.18-116.35,67.18Zm122.02-27.4v91.33l78.8,45.49c3.07,1.77,4.12,5.7,2.35,8.78-1.19,2.06-3.35,3.21-5.57,3.21-1.09,0-2.19-.28-3.21-.86l-82.01-47.35c-1.99-1.15-3.21-3.27-3.21-5.56v-95.04c0-3.55,2.88-6.42,6.42-6.42s6.42,2.88,6.42,6.42Z"/><path class="cls-2" d="M227.1,163.37v95.04c0,2.3,1.22,4.42,3.21,5.56l82.01,47.35c1.01,.58,2.12,.86,3.21,.86,2.22,0,4.38-1.15,5.57-3.21,1.77-3.07,.72-7-2.35-8.78l-78.8-45.49v-91.33c0-3.55-2.88-6.42-6.42-6.42s-6.42,2.88-6.42,6.42Z"/><path class="cls-2" d="M360.27,181.5l-122.78-70.88c-1.99-1.15-4.44-1.15-6.42,0l-122.78,70.88c-1.99,1.15-3.21,3.27-3.21,5.56v141.77c0,2.3,1.22,4.42,3.21,5.56l122.78,70.89c.99,.57,2.1,.86,3.21,.86s2.22-.29,3.21-.86l122.78-70.89c1.99-1.15,3.21-3.27,3.21-5.56V187.06c0-2.3-1.22-4.42-3.21-5.56Zm-9.64,143.63l-116.35,67.18-116.35-67.18V190.77l116.35-67.18,116.35,67.18v134.35Z"/><path class="cls-2" d="M390.29,164.85l-121.6-70.13c-3.07-1.77-7-.72-8.77,2.35-1.77,3.07-.72,7,2.35,8.77l119.81,69.1v137.99c0,3.55,2.88,6.42,6.42,6.42s6.42-2.88,6.42-6.42V171.02c0-2.93-1.96-5.39-4.63-6.17Z"/></svg>