<?xml version="1.0" encoding="UTF-8"?><svg id="Capa_1" xmlns="http://www.w3.org/2000/svg" viewBox="0 0 500 500"><defs><style>.cls-1{fill:#5757f7;}</style></defs><path class="cls-1" d="M144.48,202.73v94.51c0,2.3,1.22,4.42,3.21,5.56l43.16,24.92c1.01,.58,2.12,.86,3.21,.86,2.22,0,4.38-1.15,5.57-3.21,1.77-3.07,.72-7-2.35-8.78l-39.95-23.07v-87.1l68.91-39.78v-10.37c-.18-1.36,.04-2.78,.78-4.06,.44-.76,1.04-1.35,1.71-1.85l-81.02,46.78c-1.99,1.15-3.21,3.27-3.21,5.56Z"/><path class="cls-1" d="M349.11,317.18l-109.93,63.47v-32.43c15.14-8.74,78.62-45.4,78.62-45.4l-.04-.07-.04,.02c-.07,.04-.16,.06-.23,.1-.34,.18-.7,.33-1.08,.45-.13,.04-.25,.09-.39,.12-.49,.12-.99,.2-1.51,.2s-1.02-.08-1.51-.2c-.13-.03-.26-.08-.39-.12-.38-.12-.74-.26-1.08-.45-.08-.04-.16-.05-.23-.1l-9.56-5.52c-21.43,12.37-71.24,41.13-72.21,41.7-1.98,1.15-3.2,3.27-3.2,5.55v36.13l-109.93-63.47V182.82l116.35-67.18,27.99,16.16,12.85-7.42-37.63-21.72c-1.99-1.15-4.44-1.15-6.42,0l-122.78,70.88c-1.99,1.15-3.21,3.27-3.21,5.56v141.77c0,2.3,1.22,4.42,3.21,5.56l122.78,70.88c.18,.1,.38,.15,.56,.23,.11,.05,.22,.09,.34,.14,.75,.29,1.52,.49,2.31,.49s1.56-.2,2.31-.49c.11-.04,.23-.09,.34-.14,.19-.08,.38-.13,.56-.23l122.78-70.88c1.99-1.15,3.21-3.27,3.21-5.56v-43.65l-12.85,7.42v32.52Z"/><path class="cls-1" d="M314.15,195.08c.12,0,.24-.04,.36-.04s.23,.03,.35,.04l27.74-16.01h0l12.85-7.42h0l28.07-16.2-69-39.84-28.07,16.21h0l-40.97,23.66,68.68,39.61Z"/><polygon class="cls-1" points="349.11 190.14 320.93 206.41 320.93 286.09 349.11 269.82 349.11 269.82 389.94 246.25 389.94 166.57 349.11 190.14 349.11 190.14"/><polygon class="cls-1" points="239.08 246.25 308.09 286.09 308.09 206.41 239.08 166.61 239.08 246.25"/></svg>