<?xml version="1.0" encoding="UTF-8"?><svg id="Capa_1" xmlns="http://www.w3.org/2000/svg" viewBox="0 0 500 500"><defs><style>.cls-1{fill:#5757f7;}</style></defs><polygon class="cls-1" points="256.33 245.26 325.34 285.68 325.41 204.89 256.33 164.48 256.33 245.26"/><polygon class="cls-1" points="338.26 204.8 338.19 285.67 379.2 261.65 379.2 180.82 338.26 204.8"/><polygon class="cls-1" points="331.75 193.56 372.69 169.58 303.69 129.17 262.71 153.17 331.75 193.56"/><path class="cls-1" d="M366.35,317.22l-109.93,64.39v-32.9l78.62-46.05c.23-.13,.42-.3,.63-.46l-.71,.42c-.08,.04-.16,.06-.24,.1-.34,.18-.7,.33-1.08,.45-.13,.04-.26,.09-.39,.12-.49,.12-.99,.2-1.51,.2h0c-.52,0-1.02-.08-1.51-.2-.13-.03-.25-.08-.38-.12-.38-.12-.74-.27-1.09-.45-.08-.04-.16-.05-.23-.1l-9.56-5.6-72.21,42.29c-.08,.05-.14,.11-.22,.16-.14,.09-.26,.19-.39,.28-.22,.17-.44,.34-.63,.53-.08,.08-.15,.16-.23,.25-.21,.23-.41,.47-.59,.72-.05,.07-.09,.15-.14,.23-.17,.28-.33,.56-.46,.87-.03,.08-.06,.17-.09,.25-.12,.32-.22,.63-.3,.96-.02,.08-.03,.16-.04,.24-.06,.35-.1,.7-.11,1.06,0,.03,0,.06,0,.09v36.65l-103.51-60.62,31.29-18.34c.05-.03,.09-.08,.14-.11,.43-.27,.84-.57,1.2-.93,.01-.01,.02-.03,.04-.05,.34-.35,.62-.74,.87-1.16,.08-.12,.14-.25,.2-.38,.18-.34,.32-.69,.43-1.06,.04-.14,.09-.27,.12-.41,.12-.5,.2-1.01,.2-1.55v-92.12l68.91-40.36v-10.52c-.18-1.38,.04-2.82,.78-4.11,.45-.78,1.06-1.38,1.73-1.89l-81.05,47.47c-1.99,1.16-3.21,3.32-3.21,5.64v92.12l-28.08,16.45V180.92l116.35-68.15,27.99,16.39,12.85-7.52-37.63-22.04c-1.99-1.16-4.44-1.16-6.42,0l-122.78,71.91c-1.99,1.16-3.21,3.32-3.21,5.64v143.82c0,.09,.03,.17,.03,.26,.01,.39,.07,.78,.15,1.17,.03,.14,.05,.27,.09,.4,.14,.49,.32,.97,.58,1.43,.02,.03,.05,.05,.06,.08,.27,.46,.59,.89,.97,1.27,.26,.26,.56,.46,.86,.67,.16,.11,.29,.26,.45,.35l.04,.02s0,0,.01,0l122.72,71.88c.18,.1,.38,.15,.56,.24,.11,.05,.22,.1,.34,.14,.75,.29,1.52,.5,2.31,.5s1.56-.2,2.31-.5c.11-.04,.23-.09,.34-.14,.19-.09,.38-.13,.56-.24l122.78-71.91c1.99-1.16,3.21-3.32,3.21-5.64v-44.28l-12.85,7.52v32.99Z"/></svg>