<?xml version="1.0" encoding="UTF-8"?><svg id="Capa_1" xmlns="http://www.w3.org/2000/svg" viewBox="0 0 500 500"><defs><style>.cls-1{fill:#fff;}.cls-2{fill:#5757f7;stroke:#5757f7;stroke-miterlimit:10;stroke-width:1.43px;}</style></defs><rect class="cls-2" y="0" width="500.43" height="500.43"/><path class="cls-1" d="M399.57,155.45c0-.08-.03-.16-.03-.24-.02-.39-.07-.78-.16-1.17-.03-.13-.05-.26-.09-.39-.14-.48-.32-.95-.58-1.41-.26-.46-.58-.85-.93-1.22-.09-.09-.19-.17-.28-.26-.3-.28-.61-.52-.95-.73-.07-.04-.12-.1-.19-.14l-81.85-47.26c-1.99-1.15-4.44-1.15-6.43,0l-37.66,21.79-37.66-21.74c-1.99-1.15-4.44-1.15-6.42,0l-122.78,70.88c-1.99,1.15-3.21,3.27-3.21,5.56v141.77c0,2.3,1.22,4.42,3.21,5.56l122.78,70.88c.18,.1,.38,.15,.56,.23,.11,.05,.22,.1,.34,.14,.75,.29,1.52,.49,2.31,.49s1.56-.2,2.31-.49c.11-.04,.23-.09,.34-.14,.19-.08,.38-.13,.56-.23l122.78-70.88c1.99-1.15,3.21-3.27,3.21-5.56v-43.58l37.7-21.79c1.99-1.15,3.21-3.27,3.21-5.57l-.08-94.51Zm-122.89-19.8l5.86,3.38,63.11,36.44-33.99,19.63c-.12,0-.23-.04-.35-.04s-.23,.03-.35,.04l-68.56-39.61,34.3-19.84Zm28.2,70.78v79.67l-69-39.83,.08-79.65,68.92,39.81Zm-75.33-90.76l28.04,16.19-31.25,18.08s0,0,0,0l-81.85,47.25c-1.99,1.15-3.21,3.27-3.21,5.56v90.87l-28.08,16.22v-127l116.35-67.18Zm-3.23,223.31c-1.98,1.15-3.2,3.27-3.2,5.55v36.13l-103.45-59.73,31.35-18.11s.09-.06,.14-.09c.11-.07,.22-.14,.33-.21,.08-.06,.16-.12,.23-.18,.08-.07,.17-.13,.25-.2,.09-.07,.17-.15,.25-.23,.07-.06,.13-.12,.19-.19,.08-.09,.17-.18,.24-.27,.06-.07,.11-.13,.17-.2,.07-.09,.14-.19,.21-.28,.05-.08,.11-.15,.16-.23,.06-.09,.11-.18,.16-.27,.05-.09,.11-.19,.15-.28,.04-.08,.08-.17,.12-.25,.05-.11,.1-.22,.14-.33,.03-.08,.06-.16,.09-.24,.04-.12,.08-.23,.11-.35,.02-.08,.04-.17,.07-.26,.03-.11,.05-.23,.07-.34,.02-.1,.03-.2,.05-.31,.01-.1,.03-.2,.04-.3,.01-.13,.02-.25,.02-.38,0-.06,0-.12,0-.18v-90.87l68.88-39.76-.09,83.34c0,2.3,1.22,4.42,3.21,5.57l72.3,41.74c-21.42,12.37-71.22,41.12-72.21,41.7Zm119.58-21.78l-109.93,63.47v-32.43c15.14-8.74,78.62-45.4,78.62-45.4h0s0,0,0,0l31.3-18.09v32.45Zm6.42-51l-34.6,19.99v-79.76l34.6-19.98v79.74Z"/></svg>