<?xml version="1.0" encoding="UTF-8"?><svg id="Capa_1" xmlns="http://www.w3.org/2000/svg" viewBox="0 0 500 500"><defs><style>.cls-1{fill:#fff;}.cls-2{fill:#5757f7;stroke:#5757f7;stroke-miterlimit:10;stroke-width:1.43px;}</style></defs><rect class="cls-2" width="500.43" height="500.43"/><path class="cls-1" d="M396.44,149.92l-81.85-47.26c-.99-.57-2.1-.86-3.21-.86-1.11,0-2.22,.29-3.21,.86l-37.71,21.77-37.7-21.77c-1.99-1.15-4.44-1.15-6.42,0l-122.78,70.88c-.07,.04-.11,.1-.18,.14-.34,.22-.67,.46-.97,.74-.09,.09-.19,.16-.28,.26-.35,.36-.67,.76-.93,1.21,0,0,0,0,0,0,0,.01-.01,.03-.02,.04-.25,.44-.43,.89-.56,1.35-.04,.14-.07,.29-.1,.44-.08,.37-.13,.73-.15,1.1,0,.1-.04,.19-.04,.29v141.77c0,2.3,1.22,4.42,3.21,5.56l122.76,70.88c.99,.57,2.1,.86,3.21,.86s2.22-.29,3.21-.86l122.79-70.88c1.99-1.15,3.21-3.27,3.21-5.56v-43.56l37.7-21.76c1.99-1.15,3.21-3.27,3.21-5.56v-94.51c0-2.3-1.22-4.42-3.21-5.56Zm-57.22,29.24l-27.93,16.12-68.92-39.8,27.92-16.12,68.93,39.8Zm-34.31,27.27l-.03,79.65-68.91-39.79v-79.69s68.94,39.82,68.94,39.82Zm-75.37-90.78l28.07,16.21-31.3,18.07s-.09,.07-.13,.1c-.43,.27-.84,.57-1.2,.92,0,0-.02,.02-.02,.03-.34,.35-.63,.74-.89,1.16-.07,.12-.14,.25-.2,.37-.18,.33-.32,.68-.44,1.05-.04,.13-.09,.26-.12,.4-.12,.49-.2,1-.2,1.53v83.38l-103.48-59.76,109.92-63.46Zm116.35,201.53l-116.37,67.18-116.34-67.18v-126.94l113.11,65.32s0,0,.01,0l72.21,41.69-72.21,41.69c-3.07,1.77-4.13,5.7-2.35,8.78,1.19,2.06,3.35,3.21,5.57,3.21,1.09,0,2.19-.28,3.21-.86l81.85-47.26,31.3-18.07v32.43Zm0-47.26l-.29,.17s-.04,.02-.05,.03l-27.82,16.06,.03-79.79,28.14-16.24v79.77Z"/></svg>