<?xml version="1.0" encoding="UTF-8"?><svg id="Capa_1" xmlns="http://www.w3.org/2000/svg" viewBox="0 0 500 500"><defs><style>.cls-1{fill:#fff;}.cls-2{fill:#5757f7;stroke:#5757f7;stroke-miterlimit:10;stroke-width:1.43px;}</style></defs><rect class="cls-2" x="-.43" y=".43" width="500" height="500"/><g><polygon class="cls-1" points="335.05 302.72 256.42 348.12 256.42 380.74 366.35 317.27 366.35 284.65 335.05 302.72"/><path class="cls-1" d="M243.58,380.74v-36.72s0-.04,0-.06v-93.94s-.02-.08-.02-.12v-83.39l-68.99,39.83v90.81c0,.53-.08,1.03-.2,1.52-.03,.14-.08,.27-.12,.4-.11,.36-.26,.71-.43,1.04-.07,.13-.13,.25-.2,.37-.25,.41-.53,.8-.87,1.14-.01,.02-.02,.03-.04,.05-.36,.36-.77,.66-1.21,.93-.04,.03-.08,.07-.12,.09l-31.35,18.26,103.55,59.78Z"/><path class="cls-1" d="M133.65,309.81l28.08-16.35v-90.82c0-2.3,1.22-4.42,3.21-5.56l81.85-47.26s.01,0,.02,0l31.1-17.96-27.91-16.11-116.35,67.18v126.89Z"/><polygon class="cls-1" points="256.42 261.04 256.42 333.28 318.99 297.16 256.42 261.04"/><path class="cls-1" d="M256.41,159.1v43.35c0,.05,.02,.1,.02,.16v43.6l75.41,43.54,34.52-19.93v-86.9l-75.6-43.65-34.35,19.83Z"/></g></svg>