<?xml version="1.0" encoding="UTF-8"?><svg id="Capa_1" xmlns="http://www.w3.org/2000/svg" viewBox="0 0 500 500"><defs><style>.cls-1{fill:#fff;}.cls-2{fill:#5757f7;stroke:#5757f7;stroke-miterlimit:10;stroke-width:1.43px;}</style></defs><rect class="cls-2" x="-.43" y=".43" width="500" height="500"/><g><polygon class="cls-1" points="235.97 260.8 235.97 333.04 298.53 296.92 235.97 260.8"/><path class="cls-1" d="M223.12,344.17v-.4s0-.04,0-.06v-93.94s-.02-.08-.02-.12v-83.39l-68.99,39.83v90.81c0,2.3-1.22,4.42-3.21,5.56l-31.29,18.08,103.51,59.76v-36.13Z"/><path class="cls-1" d="M311.65,194.74c-.12,0-.23-.04-.35-.04s-.24,.03-.36,.04c0,0-64.89-37.52-78.36-45.2-.9-.51-1.97-1.12-3.12-1.77l28.16-16.26-28.07-16.21-116.35,67.18v126.93l28.08-16.22v-90.81c0-2.3,1.22-4.42,3.21-5.56l72.34-41.76c27.53,15.88,88.06,51.01,88.06,51.01v102.02l-68.91,39.78v32.43l109.93-63.47v-32.43l-28.17,16.27v-94.6l78.64-45.4c.65-.37,1.84-1.25,3.3-2.41,0-4.88-1.69-7.95-6.23-10.42-1.6,.72-2.86,1.34-3.49,1.7l-78.28,45.2Z"/></g></svg>