<?xml version="1.0" encoding="UTF-8"?><svg id="Capa_1" xmlns="http://www.w3.org/2000/svg" viewBox="0 0 500 500"><defs><style>.cls-1{fill:none;}.cls-2{fill:#5757f7;}</style></defs><path class="cls-1" d="M222.96,344.6c0-.07,.02-.14,.02-.21,0-.24,.04-.47,.07-.7,.03-.19,.05-.39,.1-.57,.05-.21,.12-.4,.19-.6,.07-.2,.13-.39,.22-.58,.09-.19,.19-.36,.29-.54,.1-.18,.2-.36,.32-.52,.12-.17,.26-.32,.39-.48,.14-.16,.27-.32,.43-.46,.14-.13,.3-.25,.45-.37,.18-.14,.37-.28,.57-.41,.06-.04,.11-.09,.17-.12l72.35-41.69-72.21-41.69c-1.99-1.15-3.21-3.27-3.21-5.56v-83.39c-18.36,10.6-57.53,33.21-68.99,39.83v87.04l39.63,22.2c3.1,1.73,4.2,5.65,2.46,8.74-1.73,3.09-5.64,4.2-8.74,2.46l-42.92-24.04c-2.03-1.14-3.28-3.28-3.28-5.6v-90.8l-28.08-16.2v126.94l109.76,63.46v-36.12Z"/><polygon class="cls-1" points="314.59 302.91 314.59 302.91 235.8 348.31 235.8 380.74 345.9 317.26 345.9 284.83 314.59 302.91 314.59 302.91"/><path class="cls-1" d="M294.13,125.69q-21.95,12.67-23.67,12.67c-1,0-1.98-.23-2.87-.68q-.17-.09-38.04-21.95l-109.93,63.47,28.08,16.2c14.95-8.63,77.52-44.75,78.63-45.4,1.99-1.15,4.43-1.14,6.42,0,1.99,1.15,3.21,3.27,3.21,5.56v90.81l75.43,43.55,37.61-21.72c.08-.05,.16-.09,.24-.14l37.57-21.69v-87.1l-75.43-43.55-17.25,9.96Z"/><path class="cls-2" d="M396.44,150.01l-81.85-47.26c-1.99-1.15-4.44-1.15-6.42,0,0,0-28.08,16.21-37.71,21.77-9.64-5.57-37.7-21.77-37.7-21.77-1.99-1.15-4.44-1.15-6.42,0l-122.78,70.88c-.08,.04-.13,.11-.2,.16-.33,.2-.63,.44-.92,.7-.1,.1-.21,.18-.31,.29-.33,.35-.64,.73-.9,1.17-.01,.02-.02,.04-.04,.06-.25,.44-.43,.91-.57,1.38-.04,.13-.06,.26-.09,.4-.09,.39-.14,.77-.15,1.16,0,.08-.03,.16-.03,.25v141.77c0,2.29,1.22,4.41,3.21,5.56l122.61,70.88c.18,.11,.39,.15,.58,.24,.1,.05,.2,.09,.31,.13,.75,.3,1.53,.5,2.33,.5s1.58-.2,2.34-.5c.1-.04,.19-.08,.28-.12,.19-.09,.4-.13,.58-.24l122.94-70.88c1.99-1.15,3.21-3.27,3.21-5.57v-43.56l37.7-21.76c1.99-1.15,3.21-3.27,3.21-5.56v-94.51c0-2.3-1.22-4.42-3.21-5.56ZM113.19,190.33l28.08,16.2v90.8c0,2.32,1.26,4.47,3.28,5.6l42.92,24.04c3.1,1.74,7.01,.63,8.74-2.46,1.73-3.1,.63-7.01-2.46-8.74l-39.63-22.2v-87.04c11.46-6.62,50.62-29.23,68.99-39.83v83.39c0,2.3,1.22,4.42,3.21,5.56l72.21,41.69-72.35,41.69c-.06,.04-.11,.09-.17,.12-.2,.12-.38,.26-.57,.41-.15,.12-.31,.24-.45,.37-.15,.14-.29,.3-.43,.46-.14,.16-.28,.31-.39,.48-.12,.17-.22,.34-.32,.52-.1,.18-.21,.35-.29,.54-.09,.19-.15,.38-.22,.58-.07,.2-.14,.4-.19,.6-.04,.19-.07,.38-.1,.57-.03,.23-.06,.46-.07,.7,0,.07-.02,.14-.02,.21v36.12l-109.76-63.46v-126.94Zm232.7,126.94l-110.09,63.48v-32.43l78.78-45.4s0,0,0,0c0,0,0,0,0,0l31.3-18.07v32.43Zm40.91-70.88l-37.57,21.69c-.08,.04-.16,.09-.24,.14l-37.61,21.72-75.43-43.55v-90.81c0-2.29-1.22-4.41-3.21-5.56-1.99-1.15-4.43-1.15-6.42,0-1.11,.64-63.67,36.76-78.63,45.4l-28.08-16.2,109.93-63.47q37.86,21.86,38.04,21.95c.89,.45,1.88,.68,2.87,.68q1.72,0,23.67-12.67l17.25-9.96,75.43,43.55v87.1Z"/></svg>