<?xml version="1.0" encoding="UTF-8"?><svg id="Capa_1" xmlns="http://www.w3.org/2000/svg" viewBox="0 0 500 500"><defs><style>.cls-1{fill:none;}.cls-2{fill:#5757f7;}</style></defs><path class="cls-1" d="M223.12,344.1s0-.02,0-.04v-90.34l-69-39.84v83.37c0,2.3-1.22,4.42-3.21,5.56l-31.29,18.08,103.51,59.76v-36.55Z"/><path class="cls-1" d="M283.31,131.85l72.22,41.7c1.99,1.15,3.21,3.27,3.21,5.56v83.38l28.06-16.2v-87.1l-75.43-43.55-28.07,16.21Z"/><polygon class="cls-1" points="235.97 261.14 235.97 333.38 298.53 297.26 235.97 261.14"/><polygon class="cls-1" points="141.27 206.46 113.19 190.24 113.19 309.75 141.27 293.54 141.27 206.46"/><path class="cls-1" d="M147.68,195.32l78.65-45.41s.01,0,.02,0l31.26-18.05-28.07-16.21-109.93,63.47,28.07,16.21Z"/><polygon class="cls-1" points="314.59 302.82 235.97 348.21 235.97 380.64 345.9 317.18 345.9 284.74 314.59 302.82"/><polygon class="cls-1" points="223.11 238.87 223.11 166.61 160.53 202.74 223.11 238.87"/><path class="cls-2" d="M396.44,149.92l-81.85-47.26c-1.99-1.15-4.44-1.15-6.42,0l-37.71,21.77-37.71-21.77c-1.99-1.15-4.44-1.15-6.42,0l-122.78,70.88c-.08,.04-.13,.11-.21,.16-.33,.2-.63,.44-.92,.7-.1,.1-.21,.18-.31,.28-.34,.35-.65,.74-.9,1.18-.01,.02-.02,.03-.03,.05-.25,.44-.43,.9-.57,1.37-.04,.13-.06,.27-.09,.41-.09,.38-.14,.76-.15,1.15,0,.09-.03,.17-.03,.25v141.77c0,.09,.03,.17,.03,.25,.01,.39,.07,.77,.15,1.16,.03,.13,.05,.27,.09,.4,.14,.48,.32,.95,.58,1.41,.02,.03,.05,.05,.06,.08,.27,.45,.59,.88,.97,1.26,.26,.26,.56,.45,.86,.66,.16,.11,.29,.25,.45,.35l.04,.02s0,0,.01,0l122.72,70.85c.18,.1,.38,.15,.56,.23,.11,.05,.22,.09,.34,.14,.75,.29,1.52,.49,2.31,.49s1.56-.2,2.31-.49c.11-.04,.23-.09,.34-.14,.19-.08,.38-.13,.56-.23l122.78-70.88c1.99-1.15,3.21-3.27,3.21-5.56v-43.56l37.7-21.77c1.99-1.15,3.21-3.27,3.21-5.56v-94.51c0-2.3-1.22-4.42-3.21-5.56ZM113.19,190.24l28.08,16.21v87.08l-28.08,16.22v-119.51Zm37.72,112.56c1.99-1.15,3.21-3.27,3.21-5.56v-83.37l69,39.84v90.34s0,.02,0,.04v36.55l-103.51-59.76,31.29-18.08Zm85.06-41.67l62.56,36.12-62.56,36.12v-72.24Zm150.84-14.84l-28.06,16.2v-83.38c0-2.3-1.22-4.42-3.21-5.56l-72.22-41.7,28.07-16.21,75.43,43.55v87.1Zm-163.7-7.42l-62.58-36.13,62.58-36.13v72.26Zm6.44-123.22l28.07,16.21-31.26,18.05s-.01,0-.02,0l-78.65,45.41-28.07-16.21,109.93-63.47Zm6.42,265v-32.43l78.62-45.39,31.3-18.07v32.43l-109.93,63.47Z"/></svg>