<?xml version="1.0" encoding="UTF-8"?><svg id="Capa_1" xmlns="http://www.w3.org/2000/svg" viewBox="0 0 500 500"><defs><style>.cls-1{fill:none;}.cls-2{fill:#5757f7;}</style></defs><polygon class="cls-1" points="298.67 110.59 298.67 185.66 363.68 223.19 394.07 205.65 394.07 131.47 328.29 93.49 298.67 110.59"/><path class="cls-1" d="M367.17,234.38l-70.55,40.73c-.87,.5-1.82,.74-2.76,.74-1.91,0-3.77-.99-4.8-2.77-1.53-2.65-.62-6.03,2.03-7.56l61.88-35.73-62.6-36.14c-1.71-.99-2.77-2.82-2.77-4.8V116.8l-58.2,33.6v78.26c0,1.23-.42,2.36-1.09,3.28-.89,1.88-2.78,3.18-4.99,3.18-3.06,0-5.54-2.48-5.54-5.54v-81.46c0-1.26,.44-2.41,1.15-3.34,.48-.97,1.2-1.82,2.17-2.38l70.55-40.73c.38-.22,.78-.38,1.19-.5l24.39-14.08-23.43-13.53-100.28,57.9v115.8l100.28,57.9,100.28-57.9v-28.83l-25.42,14.68c-.41,.49-.89,.93-1.48,1.27Z"/><path class="cls-1" d="M339.36,87.1l63.01,36.38c1.71,.99,2.77,2.82,2.77,4.8v70.98l23.55-13.6V110.59l-65.01-37.53-24.32,14.04Z"/><path class="cls-2" d="M190.46,366.88l-104.89-60.49c-2.65-1.52-6.04-.62-7.56,2.03-1.53,2.65-.62,6.04,2.03,7.56l103.26,59.55v118.93c0,3.06,2.48,5.54,5.54,5.54s5.54-2.48,5.54-5.54v-122.32c0-2.49-1.65-4.57-3.91-5.27Z"/><path class="cls-2" d="M437,102.6l-70.55-40.73c-1.71-.99-3.82-.99-5.54,0l-32.63,18.84-31.73-18.32c-1.71-.99-3.82-.99-5.54,0l-103.2,59.58-59.36-34.23,62.27-35.95c2.65-1.53,3.56-4.92,2.03-7.56-1.53-2.65-4.92-3.56-7.56-2.03l-62.24,35.93V6.26c0-3.06-2.48-5.54-5.54-5.54s-5.54,2.48-5.54,5.54V78.17L49.5,42.19c-2.65-1.52-6.04-.62-7.56,2.03-1.53,2.65-.62,6.04,2.03,7.56l62.34,35.96-62.2,35.91c-2.65,1.53-3.56,4.92-2.03,7.56,1.03,1.78,2.89,2.77,4.8,2.77,.94,0,1.89-.24,2.76-.74l62.24-35.93v71.87c0,3.06,2.48,5.54,5.54,5.54s5.54-2.48,5.54-5.54V97.34l59.47,34.3v118.82c0,1.98,1.06,3.81,2.77,4.8l105.82,61.09c.86,.49,1.81,.74,2.77,.74s1.91-.25,2.77-.74l105.82-61.09c1.71-.99,2.77-2.82,2.77-4.8v-38.42l31.86-18.39c1.71-.99,2.77-2.82,2.77-4.8V107.39c0-1.98-1.06-3.81-2.77-4.8Zm-42.93,144.67l-100.28,57.9-100.28-57.9v-115.8l100.28-57.9,23.43,13.53-24.39,14.08c-.4,.12-.8,.28-1.19,.5l-70.55,40.73c-.97,.56-1.7,1.4-2.17,2.38-.71,.93-1.15,2.08-1.15,3.34v81.46c0,3.06,2.48,5.54,5.54,5.54,2.21,0,4.11-1.31,4.99-3.18,.68-.92,1.09-2.05,1.09-3.28v-78.26l58.2-33.6v72.06c0,1.98,1.05,3.81,2.77,4.8l62.6,36.14-61.88,35.73c-2.65,1.53-3.56,4.92-2.03,7.56,1.03,1.78,2.89,2.77,4.8,2.77,.94,0,1.89-.24,2.76-.74l70.55-40.73c.59-.34,1.07-.78,1.48-1.27l25.42-14.68v28.83Zm0-41.62l-30.39,17.54-65.01-37.53V110.59l29.62-17.1,65.78,37.98v74.18Zm34.62-19.99l-23.55,13.6v-70.98c0-1.98-1.06-3.81-2.77-4.8l-63.01-36.38,24.32-14.04,65.01,37.53v75.07Z"/></svg>