<?xml version="1.0" encoding="UTF-8"?><svg id="Capa_1" xmlns="http://www.w3.org/2000/svg" viewBox="0 0 500 500"><defs><style>.cls-1{fill:none;}.cls-2{fill:#5757f7;}</style></defs><path class="cls-1" d="M223.12,380.64v-36.55s0-.02,0-.04v-93.94s-.02-.08-.02-.12v-83.39l-68.99,39.83v87.04l39.63,22.2c3.1,1.73,4.2,5.65,2.47,8.74-1.18,2.1-3.36,3.28-5.61,3.28-1.06,0-2.14-.26-3.13-.82l-39.73-22.25-28.13,16.25,103.51,59.76Z"/><polygon class="cls-1" points="235.97 261.14 235.97 333.38 298.53 297.26 235.97 261.14"/><path class="cls-1" d="M141.27,293.54v-90.81c0-2.3,1.22-4.42,3.21-5.56l81.85-47.26s.01,0,.02,0l31.27-18.05-28.07-16.21-116.35,67.18v126.93l28.08-16.22Z"/><path class="cls-1" d="M283.31,131.85l72.22,41.7c1.99,1.15,3.21,3.27,3.21,5.56v83.38l28.06-16.2v-87.1l-75.43-43.55-28.07,16.21Z"/><polygon class="cls-1" points="235.97 348.21 235.97 380.64 345.9 317.18 345.9 284.75 314.59 302.82 235.97 348.21"/><path class="cls-2" d="M396.44,149.92l-81.85-47.26c-1.99-1.15-4.44-1.15-6.42,0l-37.71,21.77-37.71-21.77c-1.99-1.15-4.44-1.15-6.42,0l-122.78,70.88c-1.99,1.15-3.21,3.27-3.21,5.56v141.77c0,.09,.03,.17,.03,.25,.01,.39,.07,.77,.15,1.16,.03,.13,.05,.27,.09,.4,.14,.48,.32,.95,.58,1.41,.02,.03,.05,.05,.06,.08,.27,.45,.59,.88,.97,1.26,.26,.26,.56,.45,.86,.66,.16,.11,.29,.25,.45,.35l.04,.02s0,0,.01,0l122.72,70.85c.18,.1,.38,.15,.56,.23,.11,.05,.22,.09,.34,.14,.75,.29,1.52,.49,2.31,.49s1.56-.2,2.31-.49c.11-.04,.23-.09,.34-.14,.19-.08,.38-.13,.56-.23l122.78-70.88c1.99-1.15,3.21-3.27,3.21-5.56v-43.56l37.7-21.77c1.99-1.15,3.21-3.27,3.21-5.56v-94.51c0-2.3-1.22-4.42-3.21-5.56Zm-248.7,154.71l39.73,22.25c.99,.56,2.07,.82,3.13,.82,2.25,0,4.43-1.18,5.61-3.28,1.73-3.1,.63-7.01-2.47-8.74l-39.63-22.2v-87.04l68.99-39.83v83.39s.02,.08,.02,.12v93.94s0,.02,0,.04v36.55l-103.51-59.76,28.13-16.25Zm88.22-43.5l62.56,36.12-62.56,36.12v-72.24Zm-6.42-145.49l28.07,16.21-31.27,18.05s-.01,0-.02,0l-81.85,47.26c-1.99,1.15-3.21,3.27-3.21,5.56v90.81l-28.08,16.22v-126.93l116.35-67.18Zm116.35,201.53l-109.93,63.47v-32.43l78.62-45.39,31.3-18.07v32.43Zm40.91-70.88l-28.06,16.2v-83.38c0-2.3-1.22-4.42-3.21-5.56l-72.22-41.7,28.07-16.21,75.43,43.55v87.1Z"/></svg>