<?xml version="1.0" encoding="UTF-8"?><svg id="Capa_1" xmlns="http://www.w3.org/2000/svg" viewBox="0 0 500 500"><defs><style>.cls-1{fill:none;}.cls-2{fill:#5757f7;}</style></defs><polygon class="cls-1" points="159.98 202.42 223.11 238.87 223.11 207.09 187.5 186.53 159.98 202.42"/><polygon class="cls-1" points="223.12 333.37 223.12 253.72 153.16 213.32 153.17 293.44 223.12 333.37"/><polygon class="cls-1" points="275.95 284.21 275.95 310.3 298.53 297.26 275.95 284.21"/><path class="cls-1" d="M235.97,261.14v72.02l26.17-15.47c.21-.16,.43-.31,.67-.44l.29-.17v-40.28l-27.13-15.66Z"/><path class="cls-1" d="M147.13,195l37.16-21.45c1.99-1.14,4.44-1.14,6.42,0l32.4,18.7v-36.77c0-2.3,1.22-4.42,3.21-5.56l31.3-18.07-28.07-16.21-109.93,63.47,27.52,15.89Z"/><path class="cls-1" d="M314.59,302.82l-78.62,45.39v32.43l109.93-63.47v-32.43l-31.29,18.06s-.01,0-.02,.01Z"/><path class="cls-1" d="M223.12,348.16l-79.56-45.41c-2-1.14-3.24-3.27-3.24-5.58l-.02-91.28-27.11-15.66v126.93l109.93,63.47v-32.48Z"/><path class="cls-2" d="M396.44,149.92l-81.85-47.26c-1.99-1.15-4.44-1.15-6.42,0l-37.71,21.77-37.71-21.77c-1.99-1.15-4.44-1.15-6.42,0l-122.78,70.88c-.08,.04-.13,.11-.21,.16-.33,.2-.63,.44-.92,.7-.1,.1-.21,.18-.31,.28-.34,.35-.65,.74-.9,1.18-.01,.02-.02,.03-.03,.05-.25,.44-.43,.9-.57,1.37-.04,.13-.06,.27-.09,.41-.09,.38-.14,.76-.15,1.15,0,.09-.03,.17-.03,.25v141.77c0,2.3,1.22,4.42,3.21,5.56l122.78,70.88c.18,.1,.38,.15,.56,.23,.11,.05,.22,.09,.34,.14,.75,.29,1.52,.49,2.31,.49s1.56-.2,2.31-.49c.11-.04,.23-.09,.34-.14,.19-.08,.38-.13,.56-.23l122.78-70.88c1.99-1.15,3.21-3.27,3.21-5.56v-43.56l37.7-21.76c1.99-1.15,3.21-3.27,3.21-5.56v-94.51c0-2.3-1.22-4.42-3.21-5.56Zm-133.64,167.32c-.23,.13-.46,.28-.67,.44l-26.17,15.47v-72.02l27.13,15.66v40.28l-.29,.17Zm-39.7-78.37l-63.13-36.45,27.52-15.89,35.61,20.56v31.78Zm.02,14.85v79.65l-69.95-39.93v-80.13s69.95,40.4,69.95,40.4Zm52.82,30.5l22.59,13.04-22.59,13.04v-26.08Zm-46.4-168.57l28.07,16.21-31.3,18.07c-1.99,1.15-3.21,3.27-3.21,5.56v36.77l-32.4-18.7c-1.99-1.14-4.43-1.14-6.42,0l-37.16,21.45-27.52-15.89,109.93-63.47Zm-116.35,74.6l27.11,15.66,.02,91.28c0,2.31,1.24,4.44,3.24,5.58l79.56,45.41v32.48l-109.93-63.47v-126.93Zm232.71,126.93l-109.93,63.47v-32.43l78.62-45.39s.01,0,.02-.01l31.29-18.06v32.43Z"/></svg>