<?xml version="1.0" encoding="UTF-8"?><svg id="Capa_1" xmlns="http://www.w3.org/2000/svg" viewBox="0 0 500 500"><defs><style>.cls-1{fill:none;}.cls-2{fill:#5757f7;}</style></defs><path class="cls-1" d="M157.43,114l-75.43,43.55v87.1l31.96,18.45v-83.33c0-.09,.03-.17,.03-.25,.01-.39,.07-.78,.15-1.16,.03-.13,.05-.26,.09-.39,.14-.48,.32-.95,.58-1.4,.26-.45,.58-.84,.92-1.21,.1-.1,.2-.19,.3-.28,.29-.27,.59-.5,.92-.71,.07-.05,.13-.11,.21-.16l72.26-41.72-32.01-18.48Z"/><path class="cls-1" d="M237.42,152.89c1.75-3.03,5.58-4.08,8.64-2.41l28.15-16.25-31.04-17.92-109.93,63.47,27.66,15.97,39.32-22.7c1.99-1.15,4.44-1.15,6.42,0l33.07,19.09v-30.52c-3.01-1.79-4.03-5.67-2.28-8.72Z"/><polygon class="cls-1" points="403.4 165.46 403.4 165.46 400.43 167.17 403.4 165.46"/><polygon class="cls-1" points="372.36 183.37 394 170.88 372.36 183.37 372.36 183.37"/><polygon class="cls-1" points="393.92 156.09 396.9 154.37 396.9 154.37 393.92 156.09"/><polygon class="cls-1" points="365.85 172.3 365.85 172.3 387.5 159.8 365.85 172.3"/><polygon class="cls-1" points="359.52 190.79 359.52 190.79 331.34 207.06 359.52 190.79"/><polygon class="cls-1" points="353.01 179.71 325.27 195.73 353.01 179.71 353.01 179.71"/><path class="cls-1" d="M324.92,304.29c-3.45,0-6.24-2.72-6.39-6.13l-78.82-45.51v-45.68l-36.28-20.95-29.68,17.14,31.68,18.29c3.07,1.77,4.12,5.7,2.35,8.78-1.19,2.06-3.35,3.21-5.57,3.21-1.09,0-2.19-.28-3.21-.86l-29.92-17.28v33.6c.01,.15,.02,.3,.02,.45v43.6l75.41,43.54,37.73-21.78c3.07-1.77,7-.72,8.78,2.35,1.77,3.07,.72,7-2.35,8.78l-39.06,22.55v32.91l109.93-63.47v-35.86l-28.21,16.29c-.21,3.36-2.97,6.03-6.38,6.03Zm-76.21-9.02c-1.19,2.06-3.35,3.21-5.57,3.21-1.09,0-2.19-.28-3.21-.86l-40.94-23.64c-3.07-1.77-4.12-5.7-2.35-8.78,1.77-3.07,5.7-4.12,8.77-2.35l40.94,23.64c3.07,1.77,4.12,5.7,2.35,8.78Z"/><path class="cls-1" d="M159.07,301.98c-1.76-1.19-2.84-3.19-2.84-5.33v-88.77l-29.41-16.98v126.93l109.93,63.47v-34.45l-77.29-44.62c-.13-.08-.26-.16-.39-.24Z"/><path class="cls-2" d="M406.85,163.46l-3.45,1.99h0l-2.97,1.72-6.42,3.71-21.64,12.49h0l-12.85,7.42h0l-28.17,16.27v90.8c0,.13-.03,.26-.04,.39l28.21-16.29v35.86l-109.93,63.47v-32.91l39.06-22.55c3.07-1.77,4.12-5.7,2.35-8.78-1.78-3.07-5.7-4.12-8.78-2.35l-37.73,21.78-75.41-43.54v-43.6c0-.15,0-.3-.02-.45v-33.6l29.92,17.28c1.01,.58,2.12,.86,3.21,.86,2.22,0,4.38-1.15,5.57-3.21,1.77-3.07,.72-7-2.35-8.78l-31.68-18.29,29.68-17.14,36.28,20.95v45.68l78.82,45.51c0-.1-.03-.19-.03-.29v-90.8l-62.5-36.05-6.42-3.7-6.42-3.7-3.37-1.95s-.05-.04-.08-.05v30.52l-33.07-19.09c-1.99-1.15-4.44-1.15-6.42,0l-39.32,22.7-27.66-15.97,109.93-63.47,31.04,17.92-28.15,16.25s.09,.04,.13,.06l3.33,1.92,6.43,3.71,6.43,3.71,62.18,35.86c.12,0,.24-.04,.36-.04s.23,.03,.35,.04l27.74-16.01h0l12.85-7.42h0l21.65-12.5,6.42-3.71,2.97-1.72h0l3.45-1.99,3.21-1.85c.09-.05,.18-.08,.27-.12l-78.83-45.51-37.94,21.91-40.68-23.49c-1.99-1.15-4.44-1.15-6.42,0l-37.67,21.75-41.65-24.05c-1.99-1.15-4.43-1.15-6.42,0l-81.85,47.26c-1.99,1.15-3.21,3.27-3.21,5.56v94.51c0,2.3,1.22,4.42,3.21,5.56l41.6,24.02v43.6c0,2.3,1.22,4.42,3.21,5.56l122.78,70.88c.18,.1,.38,.15,.56,.23,.11,.05,.22,.09,.34,.14,.75,.29,1.52,.49,2.31,.49s1.56-.2,2.31-.49c.11-.04,.23-.09,.34-.14,.19-.08,.38-.13,.56-.23l122.78-70.88c1.99-1.15,3.21-3.27,3.21-5.56v-46.99l37.94-21.9v-91.22c-.11,.07-.2,.16-.32,.23l-3.13,1.81Zm-289.88,10.9c-.33,.21-.63,.44-.92,.71-.1,.09-.21,.18-.3,.28-.34,.36-.66,.75-.92,1.21-.26,.45-.44,.93-.58,1.4-.04,.13-.06,.26-.09,.39-.09,.39-.14,.77-.15,1.16,0,.09-.03,.16-.03,.25v83.33l-31.96-18.45v-87.1l75.43-43.55,32.01,18.48-72.26,41.72c-.08,.04-.13,.11-.21,.16Zm119.77,206.93l-109.93-63.47v-126.93l29.41,16.98v88.77c0,2.14,1.08,4.14,2.84,5.33,.12,.09,.25,.17,.39,.24l77.29,44.62v34.45Z"/><path class="cls-2" d="M246.36,286.49l-40.94-23.64c-3.07-1.77-7-.72-8.77,2.35-1.77,3.07-.72,7,2.35,8.78l40.94,23.64c1.01,.58,2.12,.86,3.21,.86,2.22,0,4.38-1.15,5.57-3.21,1.77-3.07,.72-7-2.35-8.78Z"/></svg>