<?xml version="1.0" encoding="UTF-8"?><svg id="Capa_1" xmlns="http://www.w3.org/2000/svg" viewBox="0 0 500 500"><defs><style>.cls-1{fill:#5757f7;}</style></defs><path class="cls-1" d="M368.34,317.14l-109.93,63.47v-32.43l75.41-43.54-12.85-7.42-72.21,41.69c-.08,.05-.14,.11-.22,.16-.14,.09-.26,.18-.39,.28-.22,.16-.44,.33-.63,.52-.08,.08-.15,.16-.23,.24-.21,.23-.41,.46-.59,.71-.05,.07-.09,.15-.14,.23-.17,.28-.33,.56-.46,.85-.03,.08-.06,.16-.09,.25-.12,.31-.22,.63-.3,.95-.02,.08-.03,.16-.04,.24-.06,.35-.1,.69-.11,1.05,0,.03,0,.06,0,.09v36.13l-103.51-59.76,28.13-16.25,39.73,22.25c.99,.56,2.07,.82,3.13,.82,2.25,0,4.43-1.18,5.61-3.28,1.73-3.1,.63-7.01-2.47-8.74l-39.63-22.2v-87.04l68.91-39.78v-10.37c-.08-.59-.09-1.19,0-1.79v-2.68l-78.54,45.34c-1.99,1.15-3.21,3.27-3.21,5.56v90.81l-28.08,16.22v-126.93l116.35-67.18,27.99,16.16,12.85-7.42-37.63-21.72c-1.99-1.15-4.44-1.15-6.42,0l-122.78,70.88c-1.99,1.15-3.21,3.27-3.21,5.56v42.48l-41.6,24.02c-1.99,1.15-3.21,3.27-3.21,5.56v94.51c0,2.3,1.22,4.42,3.21,5.56l81.85,47.26c.99,.57,2.1,.86,3.21,.86s2.22-.29,3.21-.86l40.67-23.48,38.64,22.31c.18,.1,.38,.15,.56,.23,.11,.05,.22,.09,.34,.14,.75,.29,1.52,.49,2.31,.49s1.56-.2,2.31-.49c.11-.04,.23-.09,.34-.14,.19-.08,.38-.13,.56-.23l122.78-70.88c1.99-1.15,3.21-3.27,3.21-5.56v-43.6l-12.85,7.43v32.47Zm-202.09,68.35l-75.43-43.55v-87.1l31.96-18.45v84.46c0,.09,.03,.17,.03,.25,.01,.39,.07,.77,.15,1.16,.03,.13,.05,.27,.09,.4,.14,.48,.32,.95,.58,1.41,.02,.03,.05,.05,.06,.08,.27,.45,.59,.88,.97,1.26,.26,.26,.56,.45,.86,.66,.16,.11,.29,.25,.45,.35l.04,.02s0,0,.01,0l71.23,41.13-31.04,17.92Z"/><polygon class="cls-1" points="337.04 302.78 336.45 303.12 337.04 302.78 337.04 302.78"/><polygon class="cls-1" points="258.32 246.21 327.33 286.05 327.36 206.39 258.32 166.57 258.32 246.21"/><polygon class="cls-1" points="340.17 286.12 409.17 246.21 409.17 166.53 340.21 206.35 340.17 286.12"/><polygon class="cls-1" points="333.75 115.56 264.7 155.43 333.74 195.25 402.75 155.4 333.75 115.56"/></svg>