<?xml version="1.0" encoding="UTF-8"?><svg id="Capa_1" xmlns="http://www.w3.org/2000/svg" viewBox="0 0 500 500"><defs><style>.cls-1{fill:none;}.cls-2{fill:#5757f7;}</style></defs><path class="cls-1" d="M311.49,303.68c-1.11,0-2.22-.29-3.21-.86l-81.36-46.97c-1.17-.56-2.14-1.45-2.79-2.57-.04-.06-.07-.13-.1-.19-.2-.37-.36-.76-.49-1.18-.04-.13-.08-.25-.12-.38-.09-.39-.14-.8-.16-1.22,0-.11-.04-.21-.04-.32v-94.51c0-2.3,1.22-4.42,3.21-5.56l31.3-18.07-28.07-16.21-116.35,67.18v134.35l116.35,67.18,116.35-67.18v-32.43l-31.3,18.07c-.99,.57-2.1,.86-3.21,.86Z"/><path class="cls-2" d="M396.56,149.92l-81.85-47.26c-1.99-1.15-4.44-1.15-6.42,0l-37.71,21.77-37.71-21.77c-1.99-1.15-4.44-1.15-6.42,0l-122.78,70.88c-1.99,1.15-3.21,3.27-3.21,5.56v141.77c0,2.3,1.22,4.42,3.21,5.56l122.78,70.88c.99,.57,2.1,.86,3.21,.86s2.22-.29,3.21-.86l122.78-70.88c1.99-1.15,3.21-3.27,3.21-5.56v-43.56l37.7-21.76c1.99-1.15,3.21-3.27,3.21-5.56v-94.51c0-2.3-1.22-4.42-3.21-5.56Zm-50.55,167.25l-116.35,67.18-116.35-67.18V182.82l116.35-67.18,28.07,16.21-31.3,18.07c-1.99,1.15-3.21,3.27-3.21,5.56v94.51c0,.11,.04,.21,.04,.32,.02,.42,.07,.83,.16,1.22,.03,.13,.08,.25,.12,.38,.13,.41,.29,.8,.49,1.18,.04,.06,.07,.13,.1,.19,.65,1.11,1.62,2.01,2.79,2.57l81.36,46.97c.99,.57,2.1,.86,3.21,.86s2.22-.29,3.21-.86l31.3-18.07v32.43Z"/></svg>