<?xml version="1.0" encoding="UTF-8"?><svg id="Capa_1" xmlns="http://www.w3.org/2000/svg" viewBox="0 0 500 500"><defs><style>.cls-1{fill:#5757f7;}</style></defs><path class="cls-1" d="M368.3,284.44v32.41l-109.93,63.47v-35.86l72.44-41.82-9.83-5.68-75.51-43.59v-97.37c-.08-.59-.09-1.19,0-1.79v-2.73l-78.58,45.37c-1.99,1.15-3.21,3.27-3.21,5.56v90.8l-28.08,16.22v-126.93l116.35-67.18,28.04,16.19,12.84-7.42h0s-37.67-21.75-37.67-21.75c-1.99-1.15-4.44-1.15-6.42,0l-122.78,70.88c-1.99,1.15-3.21,3.27-3.21,5.56v42.48l-41.6,24.02c-1.99,1.15-3.21,3.27-3.21,5.56v94.51c0,2.29,1.22,4.42,3.21,5.56l81.85,47.26c.99,.57,2.1,.86,3.21,.86s2.22-.29,3.21-.86l40.67-23.48,38.64,22.31c.99,.57,2.1,.86,3.21,.86s2.22-.29,3.21-.86l122.78-70.89c1.99-1.15,3.21-3.27,3.21-5.56v-43.55l-12.81,7.41-.04,.02Zm-195.46,18.32l72.69,41.96v35.6l-103.51-59.76,30.82-17.8Zm-6.63,82.45l-75.43-43.55v-87.09l31.96-18.45v84.46s0,.04,0,.06c0,.26,.02,.52,.05,.78,0,.02,0,.03,0,.05,.03,.23,.08,.47,.14,.7,.02,.06,.04,.13,.05,.19,.05,.19,.12,.37,.19,.56,.02,.06,.05,.13,.07,.19,.1,.23,.21,.45,.33,.68,.14,.25,.3,.49,.48,.72,.09,.12,.19,.22,.29,.33,.09,.1,.17,.21,.27,.3,.13,.13,.27,.24,.4,.35,.08,.07,.15,.14,.23,.2,.16,.12,.32,.22,.49,.33,.07,.04,.13,.09,.2,.13l.04,.02s0,0,.01,0l71.23,41.13-31.04,17.92Z"/><polygon class="cls-1" points="327.33 285.79 327.36 206.14 258.32 166.32 258.32 245.96 327.33 285.79"/><polygon class="cls-1" points="340.17 285.87 409.17 245.96 409.17 166.28 340.21 206.09 340.17 285.87"/><polygon class="cls-1" points="402.75 155.15 333.75 115.31 264.7 155.17 333.74 194.99 402.75 155.15"/></svg>