<?xml version="1.0" encoding="UTF-8"?><svg id="Capa_1" xmlns="http://www.w3.org/2000/svg" viewBox="0 0 500 500"><defs><style>.cls-1{fill:none;}.cls-2{fill:#5757f7;}</style></defs><path class="cls-1" d="M236.08,348.2v32.45l109.93-63.47v-32.52l-30.62,17.68c-.23,.18-.47,.34-.72,.48l-78.59,45.37Z"/><path class="cls-1" d="M113.31,182.84v134.35l109.93,63.47v-32.39l-78.69-45.43c-1.99-1.15-3.21-3.27-3.21-5.56v-90.83l-13.85-8c-3.07-1.77-4.12-5.7-2.35-8.78,1.77-3.07,5.7-4.12,8.78-2.35l13.88,8.01,77.6-44.8c.45-.37,.94-.68,1.46-.91l30.81-17.79-27.99-16.16-116.35,67.18Z"/><path class="cls-2" d="M223.14,238.84v-82.37c-.22-1.4,.01-2.89,.78-4.22,.39-.68,.89-1.25,1.46-1.73l-77.6,44.8,75.36,43.51Z"/><path class="cls-2" d="M346.01,284.67v32.52l-109.93,63.47v-32.45l75.35-43.5h0l-3.8-2.24-166.3-96.02v90.83c0,2.29,1.22,4.42,3.21,5.56l78.69,45.43v32.39l-109.93-63.47V182.84l116.35-67.18,27.99,16.16,12.85-7.42-37.63-21.72c-1.99-1.15-4.44-1.15-6.42,0l-122.78,70.88c-1.99,1.15-3.21,3.27-3.21,5.56v141.77c0,2.29,1.22,4.42,3.21,5.56l122.78,70.88c.99,.57,2.1,.86,3.21,.86s2.22-.29,3.21-.86l122.78-70.88c1.99-1.15,3.21-3.27,3.21-5.56v-43.65l-12.85,7.42Z"/><path class="cls-2" d="M311.41,115.62l-69.04,39.86,68.65,39.6c.13,0,.26-.02,.39-.02s.26,.01,.38,.02l68.62-39.62-69-39.84Z"/><polygon class="cls-2" points="304.99 286.1 304.99 206.42 235.99 166.63 235.99 246.26 304.99 286.1"/><polygon class="cls-2" points="386.84 246.26 386.84 166.58 317.84 206.42 317.84 286.1 386.84 246.26"/></svg>