<?xml version="1.0" encoding="UTF-8"?><svg id="Capa_1" xmlns="http://www.w3.org/2000/svg" viewBox="0 0 500 500"><defs><style>.cls-1{fill:none;}.cls-2{fill:#5757f7;}</style></defs><path class="cls-1" d="M176.71,293.61c23.66,14.04,62.12,36.85,73.33,43.48l75.4-43.53v-79.68l-72.3,41.69c-1.99,1.15-4.44,1.14-6.42,0l-70-40.44v78.49Z"/><path class="cls-2" d="M375.99,173.55l-122.78-70.88c-2.02-1.16-4.51-1.15-6.51,.05l-80.83,48.34c-3.05,1.82-4.04,5.76-2.21,8.81,1.82,3.04,5.76,4.04,8.81,2.21l77.59-46.4,116.29,67.14v134.35l-116.35,67.18-116.35-67.18v-126.93l30.21,17.45v89.57c0,2.27,1.19,4.37,3.15,5.53l67.23,39.87q13.98,8.28,15.77,8.28c1.13,0,2.23-.3,3.21-.86l81.85-47.26c1.99-1.15,3.21-3.27,3.21-5.56v-94.51c0-.12-.03-.23-.03-.35-.01-.24-.03-.47-.07-.71-.03-.2-.08-.4-.13-.59-.05-.2-.11-.4-.19-.6-.08-.22-.18-.42-.28-.62-.06-.11-.09-.23-.15-.34-.04-.06-.09-.11-.13-.18-.12-.19-.26-.37-.4-.55-.12-.16-.24-.32-.38-.46-.14-.15-.3-.29-.46-.43-.15-.13-.31-.27-.47-.39-.17-.12-.36-.23-.55-.33-.17-.1-.33-.2-.51-.28-.2-.09-.41-.16-.62-.23-.18-.06-.36-.13-.55-.17-.2-.05-.41-.08-.63-.11-.22-.03-.43-.06-.64-.06-.08,0-.15-.02-.23-.02-.13,0-.25,.03-.38,.04-.22,.01-.44,.03-.66,.07-.22,.04-.42,.09-.63,.14-.19,.05-.38,.11-.57,.18-.22,.08-.43,.18-.64,.29-.11,.05-.22,.09-.33,.15l-78.72,45.39-67.88-39.22,71.1-41.24c3.07-1.78,4.11-5.71,2.33-8.78-1.78-3.07-5.71-4.11-8.78-2.33l-77.49,44.94-38.77-22.4c-1.99-1.15-4.44-1.15-6.43,0-1.99,1.15-3.21,3.27-3.21,5.56v141.77c0,2.3,1.22,4.42,3.21,5.56l122.78,70.88c.99,.57,2.1,.86,3.21,.86s2.22-.29,3.21-.86l122.78-70.88c1.99-1.15,3.21-3.27,3.21-5.56V179.12c0-2.3-1.22-4.42-3.21-5.56Zm-122.86,82.01l72.3-41.69v79.68l-75.4,43.53c-11.2-6.63-49.67-29.44-73.33-43.48v-78.49l70,40.44c1.99,1.15,4.44,1.15,6.42,0Z"/></svg>