<?xml version="1.0" encoding="UTF-8"?><svg id="Capa_1" xmlns="http://www.w3.org/2000/svg" viewBox="0 0 500 500"><defs><style>.cls-1{fill:#5757f7;}</style></defs><path class="cls-1" d="M254.88,352.52c-1.12,0-2.25-.29-3.25-.88l-119.92-70.05-39.31,22.69c-3.08,1.78-7.02,.72-8.8-2.36s-.72-7.02,2.36-8.8l39.36-22.72V131.99c0-2.3,1.23-4.43,3.22-5.58L251.66,55.32c1.99-1.15,4.45-1.15,6.44,0l123.12,71.08c1.99,1.15,3.22,3.28,3.22,5.58v142.17c0,2.3-1.23,4.43-3.22,5.58-1.99,1.15-4.45,1.15-6.44,0l-119.9-69.23-110.32,63.66,110.34,64.45,78.84-45.51c3.08-1.78,7.02-.72,8.8,2.36,1.78,3.08,.72,7.02-2.36,8.8l-82.08,47.38c-1,.57-2.11,.86-3.22,.86Zm0-155.89c1.11,0,2.22,.29,3.22,.86l113.46,65.51v-127.29l-116.68-67.37-116.68,67.37v127.26l113.46-65.47c1-.57,2.11-.86,3.22-.86Z"/><path class="cls-1" d="M254.88,447.31c-1.14,0-2.27-.3-3.28-.9l-79.94-47.39c-1.96-1.16-3.16-3.27-3.16-5.54v-94.1c0-2.28,1.21-4.39,3.17-5.55l79.86-46.99c3.07-1.81,7.01-.78,8.82,2.28s.78,7.01-2.28,8.82l-76.69,45.13v86.74l73.55,43.6,75.6-43.65v-91.06c0-3.56,2.88-6.44,6.44-6.44s6.44,2.88,6.44,6.44v94.78c0,2.3-1.23,4.43-3.22,5.58l-82.08,47.39c-1,.57-2.11,.86-3.22,.86Z"/></svg>