<?xml version="1.0" encoding="UTF-8"?><svg id="Capa_1" xmlns="http://www.w3.org/2000/svg" viewBox="0 0 500 500"><defs><style>.cls-1{fill:#5757f7;}</style></defs><path class="cls-1" d="M396.49,149.63l-81.85-47.26c-1.99-1.15-4.44-1.15-6.42,0l-38.27,22.1-37.24-21.5c-1.99-1.15-4.44-1.15-6.42,0l-122.78,70.89c-3.07,1.77-4.12,5.7-2.35,8.78,1.78,3.07,5.7,4.13,8.78,2.35l119.56-69.03,27.6,15.94-30.73,17.74-81.85,47.26c-1.87,1.08-3.03,3.03-3.16,5.17,0,.01,0,.02,0,.04,0,.12-.05,.23-.05,.35v94.51c0,2.3,1.23,4.42,3.21,5.56l77.8,44.87v33.11l-112.39-64.89c-3.07-1.77-7-.72-8.78,2.35-1.77,3.07-.72,7,2.35,8.78l122.78,70.88c.99,.57,2.1,.86,3.21,.86s2.22-.29,3.21-.86l122.78-70.88c1.99-1.15,3.21-3.27,3.21-5.56v-44.1l37.8-21.82c1.99-1.15,3.21-3.27,3.21-5.56v-94.51c0-2.3-1.22-4.42-3.21-5.56Zm-50.64,167.85l-110.68,63.9v-37.16c0-1.9-.84-3.7-2.29-4.92l-2.03-1.7c-.29-.24-.6-.46-.92-.64l-75.77-43.7v-79.26l33.88,19.54c1.01,.58,2.11,.86,3.2,.86,2.22,0,4.38-1.15,5.57-3.22,1.77-3.07,.72-7-2.36-8.77l-34.23-19.74,62.94-36.34v83.39c0,2.3,1.22,4.42,3.21,5.56l72.21,41.69-31.86,18.39c-3.07,1.77-4.12,5.7-2.35,8.78,1.19,2.06,3.35,3.21,5.57,3.21,1.09,0,2.19-.28,3.21-.86l41.49-23.95,31.21-18.02v32.97Z"/></svg>