<?xml version="1.0" encoding="UTF-8"?><svg id="Capa_1" xmlns="http://www.w3.org/2000/svg" viewBox="0 0 500 500"><defs><style>.cls-1{fill:#5757f7;}</style></defs><path class="cls-1" d="M376.1,173.55l-122.97-70.88c-1.99-1.15-4.44-1.15-6.42,0l-122.58,70.88c-1.99,1.15-3.21,3.27-3.21,5.56v141.77c0,2.3,1.22,4.42,3.21,5.56l122.78,70.88s.03,.01,.05,.02c.34,.19,.7,.31,1.07,.44,.16,.06,.32,.15,.48,.19,.26,.07,.53,.07,.8,.1,.27,.03,.54,.1,.81,.1,0,0,0,0,0,0s0,0,0,0c.14,0,.27-.05,.41-.05,.42-.03,.83-.06,1.24-.17,.16-.04,.3-.13,.46-.19,.38-.13,.77-.27,1.12-.48,.02-.01,.04-.02,.07-.03l80.83-48.34c3.05-1.82,4.04-5.76,2.21-8.81-1.82-3.04-5.76-4.04-8.81-2.21l-77.58,46.4-116.3-67.14V182.82l116.16-67.17,116.55,67.18v126.93l-29.1-16.81v-91.04c0-2.28-1.21-4.39-3.18-5.54l-80.74-47.26c-1.98-1.16-4.43-1.17-6.43-.04l-82.96,47.26c-2.01,1.14-3.24,3.27-3.24,5.58v94.51c0,2.28,1.21,4.39,3.18,5.54,1,.59,2.12,.88,3.25,.88s2.17-.27,3.14-.82l79.6-44.67,68.27,39.19-71.28,41.33c-3.07,1.78-4.11,5.71-2.33,8.78,1.19,2.06,3.35,3.2,5.56,3.2,1.09,0,2.2-.28,3.22-.87l77.49-44.94,38.77,22.4c1.99,1.15,4.44,1.15,6.43,0,1.99-1.15,3.21-3.27,3.21-5.56V179.12c0-2.3-1.23-4.42-3.22-5.57Z"/></svg>