<?xml version="1.0" encoding="UTF-8"?><svg id="Capa_1" xmlns="http://www.w3.org/2000/svg" viewBox="0 0 500 500"><defs><style>.cls-1{fill:#5757f7;}</style></defs><path class="cls-1" d="M376.99,173.53l-125.12-70.88c-2-1.13-4.45-1.11-6.42,.05l-120.43,70.88c-1.96,1.15-3.17,3.26-3.17,5.54v141.77c0,2.28,1.2,4.38,3.17,5.54l120.43,70.88c1.01,.59,2.13,.89,3.26,.89s2.18-.28,3.17-.84l83.79-47.47c3.09-1.75,4.17-5.67,2.42-8.76-1.75-3.09-5.67-4.18-8.76-2.42l-80.56,45.64-114.07-67.14V182.79l114.07-67.14,118.63,67.21v126.9l-36.7-21.2v-84.17l-81.85-47.26-81.85,47.26v94.51l81.85,47.26,77.96-45.01,43.8,25.31c1.99,1.15,4.44,1.15,6.42,0,1.99-1.15,3.21-3.27,3.21-5.56V179.12c0-2.31-1.24-4.45-3.26-5.59Z"/></svg>