<?xml version="1.0" encoding="UTF-8"?><svg id="Capa_1" xmlns="http://www.w3.org/2000/svg" viewBox="0 0 500 500"><defs><style>.cls-1{fill:none;}.cls-2{fill:#5757f7;}</style></defs><polygon class="cls-1" points="273.79 234.31 244.01 251.61 244.01 268.99 258.49 277.83 273.79 268.94 273.79 234.31"/><path class="cls-2" d="M367.21,173.55l-122.78-70.88c-1.99-1.15-4.44-1.15-6.42,0l-122.78,70.88c-1.99,1.15-3.21,3.27-3.21,5.56v141.77c0,2.3,1.22,4.42,3.21,5.56l122.78,70.88c.99,.57,2.1,.86,3.21,.86s2.22-.29,3.21-.86l122.78-70.88c1.99-1.15,3.21-3.27,3.21-5.56V179.12c0-2.3-1.22-4.42-3.21-5.56Zm-9.64,143.62l-116.35,67.18-116.35-67.18V182.82l116.35-67.18,67.98,39.25-71.26,42.34c-1.95,1.16-3.14,3.26-3.14,5.52v94.51c0,2.24,1.16,4.31,3.07,5.48l30.44,18.6-27.07,15.73-73.84-43.48v-87.13l77.03-44.33c3.07-1.77,4.13-5.7,2.36-8.77-1.77-3.07-5.7-4.13-8.77-2.36l-80.25,46.18c-1.99,1.15-3.22,3.27-3.22,5.57v94.51c0,2.28,1.2,4.38,3.16,5.53l80.25,47.25c1.01,.59,2.13,.89,3.26,.89s2.23-.29,3.23-.87l81.33-47.25c1.98-1.15,3.2-3.27,3.2-5.55v-94.51c0-.12-.03-.24-.04-.36-.01-.23-.03-.47-.07-.7-.03-.21-.08-.4-.14-.6-.05-.2-.11-.4-.18-.59-.08-.22-.18-.43-.29-.63-.06-.11-.09-.23-.15-.34-.03-.06-.08-.11-.12-.17-.12-.2-.26-.38-.4-.56-.12-.16-.24-.31-.38-.46-.14-.15-.3-.28-.45-.42-.16-.14-.32-.28-.49-.4-.16-.12-.34-.21-.52-.31-.18-.1-.36-.21-.55-.3-.18-.08-.38-.14-.57-.21-.2-.07-.4-.14-.61-.19-.18-.04-.37-.07-.56-.09-.24-.03-.47-.06-.71-.07-.07,0-.13-.02-.19-.02-.12,0-.23,.03-.35,.04-.24,.01-.47,.03-.71,.07-.2,.03-.4,.08-.59,.14-.2,.05-.4,.11-.6,.19-.22,.08-.43,.18-.64,.29-.11,.06-.22,.09-.33,.15l-71.68,41.64v-32.43l74.31-44.15,35.62,20.56v134.35Zm-76.63-3.16l-33.29-20.35v-39.97l68.48-39.78v79.66l-35.18,20.44Z"/></svg>