<?xml version="1.0" encoding="UTF-8"?><svg id="Capa_1" xmlns="http://www.w3.org/2000/svg" viewBox="0 0 500 500"><defs><style>.cls-1{fill:#5757f7;}</style></defs><path class="cls-1" d="M240.99,398.19c-1.11,0-2.22-.29-3.21-.86l-122.78-70.88c-1.99-1.15-3.21-3.27-3.21-5.56V179.12c0-2.3,1.23-4.42,3.21-5.56,1.99-1.15,4.44-1.15,6.42,0l38.77,22.4,77.49-44.94c3.07-1.78,7-.74,8.78,2.33,1.78,3.07,.73,7-2.33,8.78l-71.1,41.24,67.88,39.22,78.72-45.39c1.99-1.15,4.44-1.14,6.42,0,1.99,1.15,3.21,3.27,3.21,5.56v94.51c0,2.3-1.22,4.42-3.21,5.56l-81.85,47.26c-2.01,1.16-4.49,1.15-6.49-.04l-79.72-47.26c-1.95-1.16-3.15-3.26-3.15-5.53v-89.57l-30.21-17.45v126.93l116.35,67.18,116.35-67.18V182.82l-116.36-67.18-76.99,44.2c-3.08,1.77-7,.71-8.77-2.37-1.77-3.08-.7-7,2.37-8.77l80.2-46.04c1.99-1.14,4.43-1.14,6.41,0l122.78,70.88c1.99,1.15,3.21,3.27,3.21,5.56v141.77c0,2.3-1.22,4.42-3.21,5.56l-122.78,70.88c-.99,.57-2.1,.86-3.21,.86Zm-73.3-104.58l73.34,43.47,75.38-43.52v-79.68l-72.3,41.69c-1.99,1.15-4.44,1.14-6.42,0l-70-40.44v78.49Z"/></svg>