<?xml version="1.0" encoding="UTF-8"?><svg id="Capa_1" xmlns="http://www.w3.org/2000/svg" viewBox="0 0 500 500"><defs><style>.cls-1{fill:none;}.cls-2{fill:#5757f7;}</style></defs><polygon class="cls-1" points="217.18 346.59 250 365.54 282.82 346.59 250 327.64 217.18 346.59"/><path class="cls-1" d="M148.22,306.77l55.96,32.31,42.57-24.58c2.01-1.16,4.49-1.16,6.5,0l42.57,24.58,55.96-32.31v-117.53l-47.59-27.48-47.69,27.53v57.8c0,3.59-2.91,6.5-6.5,6.5s-6.5-2.91-6.5-6.5v-57.8l-47.69-27.53-47.59,27.48v117.53Zm41.68-62.92c1.79-3.11,5.77-4.18,8.88-2.38l51.62,29.77,50.16-28.96c3.11-1.79,7.08-.73,8.88,2.38,1.79,3.11,.73,7.08-2.38,8.88l-43.65,25.2,44.32,25.56c3.11,1.79,4.18,5.77,2.38,8.88-1.2,2.09-3.39,3.25-5.64,3.25-1.1,0-2.22-.28-3.24-.87l-50.82-29.31-50.96,29.42c-1.02,.59-2.14,.87-3.24,.87-2.25,0-4.43-1.17-5.64-3.25-1.79-3.11-.73-7.08,2.38-8.88l44.45-25.66-45.11-26.02c-3.11-1.79-4.18-5.77-2.38-8.88Z"/><polygon class="cls-1" points="243.5 134.23 208.81 154.26 243.5 174.29 243.5 134.23"/><polygon class="cls-1" points="256.5 134.23 256.5 174.29 291.19 154.26 256.5 134.23"/><path class="cls-1" d="M138.47,316.15c-2.01-1.16-3.25-3.31-3.25-5.63v-125.03c0-2.32,1.24-4.47,3.25-5.63l44.34-25.6-44.34-25.6c-2.01-1.16-3.25-3.31-3.25-5.63v-51.2L39.96,126.84l-.08,242.48,95.34,55v-41.67c0-2.32,1.24-4.47,3.25-5.63l52.71-30.43-52.71-30.43Z"/><path class="cls-1" d="M253.25,378.67c-1.01,.58-2.13,.87-3.25,.87s-2.24-.29-3.25-.87l-42.57-24.58-55.96,32.31v45.42l101.7,58.67,101.86-58.81v-45.28l-55.96-32.31-42.57,24.58Z"/><path class="cls-2" d="M192.28,252.73l45.11,26.02-44.45,25.66c-3.11,1.79-4.17,5.77-2.38,8.88,1.2,2.08,3.39,3.25,5.64,3.25,1.1,0,2.22-.28,3.24-.87l50.96-29.42,50.82,29.31c1.02,.59,2.14,.87,3.24,.87,2.25,0,4.43-1.17,5.64-3.25,1.79-3.11,.73-7.08-2.38-8.88l-44.32-25.56,43.65-25.2c3.11-1.79,4.17-5.77,2.38-8.88-1.79-3.11-5.77-4.17-8.88-2.38l-50.16,28.96-51.62-29.77c-3.11-1.79-7.08-.73-8.88,2.38-1.79,3.11-.73,7.08,2.38,8.88Z"/><path class="cls-2" d="M466.62,116.44h0c-3.59,0-6.5,2.91-6.5,6.5l-.08,246.24-95.26,55v-41.53c0-2.32-1.24-4.47-3.25-5.63l-52.71-30.43,52.71-30.43c2.01-1.16,3.25-3.31,3.25-5.63v-125.03c0-2.32-1.24-4.47-3.25-5.63l-44.34-25.6,44.34-25.6c2.01-1.16,3.25-3.31,3.25-5.63V0h-13V119.28l-47.59,27.48-47.69-27.53V62.08c0-3.59-2.91-6.5-6.5-6.5s-6.5,2.91-6.5,6.5v57.15l-47.69,27.53-47.59-27.48v-54.95L222.94,21.19l14.05,8.1-44.42,25.65c-3.11,1.79-4.17,5.77-2.38,8.88,1.2,2.08,3.39,3.25,5.64,3.25,1.1,0,2.22-.28,3.24-.87l50.93-29.4,51.01,29.42c1.02,.59,2.14,.87,3.24,.87,2.25,0,4.43-1.17,5.64-3.25,1.57-2.73,.94-6.12-1.33-8.12-.36-.34-.76-.64-1.2-.9l-44.29-25.55L307.43,3.64C308.88,2.8,309.88,1.48,310.36,0h-22.63l-37.68,21.75-14.05-8.1,17.33-10C254.79,2.8,255.79,1.48,256.26,0h-22.62l-10.65,6.15L212.34,0h-22.77c.48,1.48,1.48,2.8,2.93,3.64l17.43,10.05-61.71,35.63V0h-13V56.83L30.21,117.45c-2.01,1.16-3.25,3.31-3.25,5.63l-.08,249.99c0,2.32,1.24,4.47,3.25,5.63l105.09,60.63v60.67h13v-53.17l92.16,53.17h19.08l92.33-53.3v53.3h13v-60.81l105.01-60.63c2.01-1.16,3.25-3.31,3.25-5.63l.08-249.99c0-3.59-2.91-6.5-6.5-6.5Zm-210.12,17.79l34.69,20.03-34.69,20.03v-40.06Zm-13,0v40.06l-34.69-20.03,34.69-20.03Zm0,55.07v57.8c0,3.59,2.91,6.5,6.5,6.5s6.5-2.91,6.5-6.5v-57.8l47.69-27.53,47.59,27.48v117.53l-55.96,32.31-42.57-24.58c-2.01-1.16-4.49-1.16-6.5,0l-42.57,24.58-55.96-32.31v-117.53l47.59-27.48,47.69,27.53Zm39.32,157.28l-32.82,18.95-32.82-18.95,32.82-18.95,32.82,18.95Zm-144.35,30.43c-2.01,1.16-3.25,3.31-3.25,5.63v41.67l-95.34-55,.08-242.48,95.26-55v51.2c0,2.32,1.24,4.47,3.25,5.63l44.34,25.6-44.34,25.6c-2.01,1.16-3.25,3.31-3.25,5.63v125.03c0,2.32,1.24,4.47,3.25,5.63l52.71,30.43-52.71,30.43Zm213.31,54.66l-101.86,58.81-101.7-58.67v-45.42l55.96-32.31,42.57,24.58c1.01,.58,2.13,.87,3.25,.87s2.24-.29,3.25-.87l42.57-24.58,55.96,32.31v45.28Z"/></svg>