<?xml version="1.0" encoding="UTF-8"?><svg id="Capa_1" xmlns="http://www.w3.org/2000/svg" viewBox="0 0 500 500"><defs><style>.cls-1{fill:#5757f7;}</style></defs><path class="cls-1" d="M437.5,162.29l-121.57-70.19c-.4-.41-.85-.77-1.36-1.06l-81.85-47.26c-1.99-1.15-4.44-1.15-6.42,0l-81.83,47.24s-.03,.01-.05,.02l-81.85,47.26c-1.99,1.15-3.21,3.27-3.21,5.56v94.51c0,.08,.03,.15,.03,.23,0,.08-.03,.15-.03,.23v141.77c0,2.3,1.22,4.42,3.21,5.56l122.78,70.88c.99,.57,2.1,.86,3.21,.86s2.22-.29,3.21-.86l122.78-70.88s.06-.06,.1-.08c.03-.01,.05-.02,.08-.03l122.78-70.88c1.99-1.15,3.21-3.27,3.21-5.56V167.85c0-2.3-1.22-4.42-3.21-5.56ZM154.08,107.75l62.95,36.35-31.51,18.19s-.06,.05-.1,.07c-.03,.01-.06,.02-.08,.03l-31.27,18.05V107.75Zm150.85,.43v79.23l-34.92,20.16-34.1-19.69v-39.85l69.03-39.85Zm.02,119.56l-22.09-12.76,22.09-12.75v25.51Zm-109.79,37.87l27.98-16.15v31.88l-27.98,16.22v-31.94Zm-12.85,32.72l-21.93-12.65,21.93-12.66v25.31Zm0-94.63l-21.41-12.36,21.41-12.36v24.73Zm12.85-24.52l27.9,16.11v31.94l-27.9-16.11v-31.94Zm21.49,59.18l-21.49,12.41v-24.82l21.49,12.41Zm19.34-35.61l21.18,12.23-21.18,12.23v-24.45Zm-12.93-22.3l-21.66-12.51,21.66-12.51v25.01Zm-75.01,18.3l34.26,19.78v39.65l-34.68,20.02-68.6-39.61,69.02-39.85Zm-75.85,50.9l103.05,59.43-103.05,59.74v-119.17Zm110.4,70.02v120.95l-104.54-60.35,104.54-60.6Zm12.85,1.23l103.22,59.59-103.22,59.59v-119.19Zm39.21,7.8c-.34-.31-.71-.6-1.13-.84l-32.61-18.81,31.86-18.47c1.98-1.15,3.2-3.27,3.2-5.56v-42.99l34.02-19.64,34.9,20.15v126.72l-70.25-40.56Zm83.09-79.07l62.7,36.2-62.7,35.62v-71.82ZM229.51,56.76l69.4,40.06-69.02,39.85-69.4-40.06,69.02-39.85Zm-88.27,50.96v80.14l-69.03,39.85v-80.14l69.03-39.85Zm286.63,198.19l-110.11,63.57v-33.24l78.8-44.76c2-1.14,3.24-3.26,3.25-5.56s-1.22-4.43-3.21-5.59l-78.8-45.49v-91.33c0-.06-.02-.12-.02-.18v-35.32l110.08,63.56v134.35Z"/></svg>