<?xml version="1.0" encoding="UTF-8"?><svg id="Capa_1" xmlns="http://www.w3.org/2000/svg" viewBox="0 0 500 500"><defs><style>.cls-1{fill:#5757f7;}</style></defs><path class="cls-1" d="M476.4,23.1V476.9H22.6V23.1H476.4M499.5,0H-.5V500H499.5V0h0Z"/><path class="cls-1" d="M273.15,435.24c-1.39,0-2.78-.36-4.02-1.08l-152.73-88.62c-2.47-1.43-3.99-4.07-3.99-6.93V161.38c0-2.86,1.52-5.5,3.99-6.93l152.83-88.61c2.47-1.43,5.52-1.44,8-.02l77.91,44.6c3.84,2.2,5.17,7.09,2.97,10.93-2.2,3.84-7.09,5.17-10.93,2.97l-73.9-42.31-144.85,83.99v168l144.73,83.98,84.41-48.67-34.07-20.53-46.31,27.04c-2.53,1.47-5.66,1.45-8.16-.05l-99.56-59.81c-2.41-1.45-3.88-4.05-3.88-6.87v-118.15c0-2.86,1.52-5.5,3.99-6.93l99.56-57.73c3.83-2.22,8.73-.92,10.95,2.91,2.22,3.83,.92,8.73-2.91,10.95l-95.57,55.42v109.01l91.61,55.03,34.66-20.24-38.85-23.41c-2.41-1.45-3.88-4.05-3.88-6.86v-57.79c0-2.84,1.5-5.46,3.94-6.9l102.43-60.37c2.48-1.46,5.54-1.48,8.04-.05,2.5,1.43,4.04,4.08,4.04,6.95v118.15c0,2.85-1.51,5.48-3.97,6.92l-40.36,23.57,38.21,23.03c2.43,1.46,3.9,4.1,3.88,6.94-.03,2.83-1.55,5.44-4.01,6.86l-100.19,57.77c-1.24,.71-2.62,1.07-4,1.07Zm8.01-130.67l42.46,25.59,43.94-25.66v-99.54l-86.41,50.93v48.69Z"/></svg>