<?xml version="1.0" encoding="UTF-8"?><svg id="Capa_1" xmlns="http://www.w3.org/2000/svg" viewBox="0 0 500 500"><defs><style>.cls-1{fill:#5757f7;}</style></defs><path class="cls-1" d="M475.4,23.1V476.9H21.6V23.1H475.4M498.5,0H-1.5V500H498.5V0h0Z"/><path class="cls-1" d="M268.37,370.04c-1.12,0-2.25-.29-3.26-.88l-123.71-71.78c-2-1.16-3.23-3.3-3.23-5.61V148.22c0-2.31,1.23-4.45,3.23-5.61l123.79-71.78c2-1.16,4.47-1.17,6.48-.02l63.1,36.13c3.11,1.78,4.19,5.74,2.41,8.85-1.78,3.11-5.74,4.19-8.85,2.41l-59.86-34.27-117.33,68.03v136.08l117.23,68.02,68.37-39.42-27.6-16.63-37.51,21.9c-2.05,1.19-4.58,1.18-6.61-.04l-80.64-48.45c-1.95-1.17-3.15-3.28-3.15-5.56v-95.7c0-2.31,1.23-4.45,3.23-5.61l80.64-46.76c3.1-1.8,7.07-.74,8.87,2.36,1.8,3.1,.74,7.07-2.36,8.87l-77.41,44.89v88.3l74.2,44.58,28.07-16.39-31.47-18.96c-1.95-1.17-3.14-3.28-3.14-5.56v-46.81c0-2.3,1.22-4.42,3.19-5.59l82.97-48.9c2.01-1.18,4.49-1.2,6.51-.04,2.02,1.15,3.27,3.3,3.27,5.63v95.7c0,2.31-1.22,4.44-3.22,5.6l-32.69,19.09,30.95,18.65c1.97,1.18,3.16,3.32,3.14,5.62-.02,2.3-1.26,4.41-3.25,5.56l-81.15,46.79c-1,.58-2.12,.87-3.24,.87Zm6.49-105.85l34.4,20.73,35.59-20.78v-80.63l-69.99,41.25v39.44Z"/><g><path class="cls-1" d="M153.04,442.26v-33.51h21.41v5.9h-14.21v7.68h13.73v5.9h-13.73v8.11h14.21v5.9h-21.41Z"/><path class="cls-1" d="M181.12,442.26v-24.77h7.11v4.51h.29c1.1-2.78,3.31-5.09,7.3-5.09,4.75,0,8.06,3.31,8.06,9.31v16.03h-7.1v-15.07c0-3.12-1.39-4.8-4.18-4.8-2.21,0-4.37,1.2-4.37,3.6v16.27h-7.11Z"/><path class="cls-1" d="M210.64,442.26v-33.51h22.23v5.9h-15.03v7.68h13.44v5.9h-13.44v14.02h-7.2Z"/><path class="cls-1" d="M238.87,436.74h7.58v-24.48h-7.58v-5.52h14.69v30h7.58v5.52h-22.27v-5.52Z"/><path class="cls-1" d="M282.98,437.75h-.29c-1.1,2.78-3.31,5.09-7.3,5.09-4.75,0-8.06-3.31-8.06-9.31v-16.03h7.1v15.07c0,3.12,1.39,4.8,4.18,4.8,2.21,0,4.37-1.2,4.37-3.6v-16.27h7.1v24.77h-7.1v-4.51Z"/><path class="cls-1" d="M297.62,446.34h9.51v-23.33h-9.6v-5.52h16.71v27.22c0,4.18-2.45,7.15-7.54,7.15h-9.07v-5.52Zm8.79-35.38v-1.39c0-1.92,1.1-3.36,4.27-3.36s4.27,1.44,4.27,3.36v1.39c0,1.87-1.15,3.36-4.27,3.36s-4.27-1.49-4.27-3.36Z"/><path class="cls-1" d="M323.97,429.87c0-8.02,4.71-12.96,12.43-12.96s12.43,4.94,12.43,12.96-4.7,12.96-12.43,12.96-12.43-4.94-12.43-12.96Zm17.52,1.97v-3.94c0-3.65-1.92-5.71-5.09-5.71s-5.09,2.06-5.09,5.71v3.94c0,3.65,1.92,5.71,5.09,5.71s5.09-2.06,5.09-5.71Z"/></g></svg>