<?xml version="1.0" encoding="UTF-8"?><svg id="Capa_1" xmlns="http://www.w3.org/2000/svg" viewBox="0 0 500 500"><defs><style>.cls-1{fill:#5757f7;}</style></defs><path class="cls-1" d="M260.41,400.34c-1.13,0-2.25-.29-3.26-.88l-123.96-71.92c-2-1.16-3.24-3.3-3.24-5.62V178.08c0-2.32,1.23-4.46,3.24-5.62l124.04-71.92c2.01-1.16,4.48-1.17,6.49-.02l63.23,36.2c3.12,1.78,4.2,5.75,2.41,8.87-1.78,3.12-5.75,4.19-8.87,2.41l-59.98-34.34-117.56,68.17v136.36l117.47,68.16,68.51-39.5-27.65-16.66-37.58,21.95c-2.05,1.2-4.59,1.18-6.62-.04l-80.8-48.54c-1.96-1.18-3.15-3.29-3.15-5.57v-95.9c0-2.32,1.23-4.46,3.24-5.62l80.8-46.86c3.11-1.8,7.08-.74,8.88,2.36,1.8,3.11,.74,7.08-2.36,8.88l-77.56,44.98v88.47l74.35,44.67,28.13-16.42-31.53-19c-1.95-1.18-3.15-3.29-3.15-5.57v-46.9c0-2.3,1.22-4.43,3.2-5.6l83.13-49c2.01-1.18,4.5-1.2,6.53-.04,2.03,1.16,3.28,3.31,3.28,5.64v95.9c0,2.31-1.23,4.45-3.22,5.61l-32.76,19.13,31.02,18.69c1.97,1.19,3.17,3.33,3.15,5.63-.02,2.3-1.26,4.42-3.25,5.57l-81.31,46.89c-1,.58-2.13,.87-3.25,.87Zm6.5-106.06l34.47,20.77,35.67-20.83v-80.79l-70.13,41.33v39.52Z"/></svg>