<?xml version="1.0" encoding="UTF-8"?><svg id="Capa_1" xmlns="http://www.w3.org/2000/svg" viewBox="0 0 500 500"><defs><style>.cls-1{fill:#5757f7;}</style></defs><path class="cls-1" d="M375.65,137.76l-122.78-70.89c-1.78-1.03-3.97-1.03-5.75,0l-122.78,70.89c-1.78,1.03-2.88,2.93-2.88,4.98v211.63c0,2.05,1.1,3.95,2.88,4.98l122.78,70.89c.89,.51,1.88,.77,2.88,.77s1.99-.26,2.88-.77l30.34-17.52,35.93,20.72c.54,.31,1.14,.46,1.72,.46,1.19,0,2.35-.62,2.99-1.73,.95-1.65,.39-3.76-1.26-4.71l-32.47-18.73,85.53-49.38c1.78-1.03,2.88-2.93,2.88-4.98V142.74c0-2.05-1.1-3.95-2.88-4.98Zm-125.65-59.27l117.03,67.57v56.58l-105.5-60.91,32.2-18.59c2.75-1.59,3.69-5.1,2.1-7.85-1.59-2.75-5.1-3.7-7.85-2.1l-40.51,23.39c-.11,.06-.23,.1-.34,.17l-34.68,20.02v-37.71c0-1.91-1.54-3.45-3.45-3.45s-3.45,1.54-3.45,3.45v41.7l-72.57,41.9v-56.58l117.03-67.57Zm117.03,202.7l-38.45,22.2-32.15-18.67,37.15-21.45c1.65-.95,2.22-3.06,1.26-4.71-.95-1.65-3.07-2.21-4.71-1.26l-40.58,23.43-14.46-8.39,15.49-9.2c1.05-.63,1.7-1.76,1.69-2.99,0-1.23-.66-2.35-1.73-2.97l-37.09-21.41v-70.35c0-1.91-1.54-3.45-3.45-3.45s-3.45,1.54-3.45,3.45v66.36l-34.11-19.69v-42.05l30.95-17.87c.11-.06,.23-.1,.34-.17l6.29-3.63,117,67.55v65.27Zm-234.05-65.27l72.57-41.9v57.93l-35.75-20.76c-1.65-.96-3.76-.4-4.72,1.25-.96,1.65-.4,3.76,1.25,4.72l39.21,22.77v20c0,1.91,1.54,3.45,3.45,3.45s3.45-1.54,3.45-3.45v-16l34.11,19.8v17.52l-39.24,23.31c-1.64,.97-2.18,3.09-1.2,4.73,.64,1.09,1.79,1.69,2.97,1.69,.6,0,1.21-.16,1.76-.48l35.71-21.22v16.26l-35.69,20.61-77.88-44.97v-65.27Zm135.32,60.45l14.36,8.34-29.2,16.86v-16.38l14.85-8.82Zm-14.85,.8v-9.42l8.02,4.65-8.02,4.76Zm0-17.4v-16.03l28.54,16.48-13.73,8.16-14.81-8.6Zm-6.9-4.01l-34.11-19.8v-15.9l34.11,19.69v16.01Zm0,57.76v33.25l-28.79-16.62,28.79-16.62Zm6.9-3.98l36.08-20.83,32.15,18.67-68.23,39.4v-37.23Zm-120.48-15.06l64.08,37-31.78,18.35c-2.75,1.59-3.69,5.1-2.1,7.85,1.07,1.84,3,2.88,4.98,2.88,.98,0,1.96-.25,2.87-.77l37.53-21.67,37.99,21.94v23.56l-46.87-27.03c-1.65-.95-3.76-.39-4.71,1.27s-.39,3.76,1.26,4.71l50.32,29.02v25.06l-113.58-65.57v-56.58Zm120.48,122.15v-21.08l18.26,10.53-18.26,10.54Zm25.16-14.53l-25.16-14.51v-27.54l113.58-65.57v56.58l-88.41,51.04Z"/></svg>