<?xml version="1.0" encoding="UTF-8"?><svg id="Capa_1" xmlns="http://www.w3.org/2000/svg" viewBox="0 0 500 500"><defs><style>.cls-1{fill:#5757f7;}</style></defs><path class="cls-1" d="M275.92,455.62c-1.54,0-3.08-.4-4.46-1.2l-169.53-98.36c-2.74-1.59-4.43-4.52-4.43-7.69V151.64c0-3.17,1.69-6.1,4.43-7.69L271.57,45.58c2.74-1.59,6.12-1.6,8.88-.02l86.48,49.51c4.26,2.44,5.74,7.87,3.3,12.13-2.44,4.26-7.87,5.74-12.13,3.3l-82.03-46.96L115.28,156.76v186.48l160.65,93.21,93.69-54.02-37.82-22.79-51.4,30.01c-2.8,1.64-6.28,1.61-9.06-.06l-110.51-66.39c-2.68-1.61-4.31-4.5-4.31-7.62V184.44c0-3.17,1.69-6.1,4.43-7.69l110.51-64.08c4.25-2.46,9.69-1.02,12.15,3.23,2.46,4.25,1.02,9.69-3.23,12.15l-106.08,61.52v121l101.68,61.09,38.47-22.46-43.12-25.98c-2.67-1.61-4.3-4.5-4.3-7.61v-64.14c0-3.15,1.66-6.06,4.38-7.66l113.69-67.01c2.75-1.62,6.15-1.64,8.92-.06,2.77,1.58,4.48,4.53,4.48,7.72v131.15c0,3.16-1.68,6.08-4.41,7.68l-44.8,26.16,42.42,25.56c2.7,1.62,4.33,4.55,4.3,7.7-.03,3.15-1.72,6.04-4.45,7.61l-111.21,64.13c-1.37,.79-2.91,1.19-4.44,1.19Zm8.89-145.05l47.14,28.4,48.78-28.48v-110.49l-95.91,56.53v54.04Z"/></svg>