<?xml version="1.0" encoding="UTF-8"?><svg id="Capa_1" xmlns="http://www.w3.org/2000/svg" viewBox="0 0 500 500"><defs><style>.cls-1{fill:#fff;}.cls-2{fill:#5757f7;}</style></defs><rect class="cls-2" x="8.5" y="15" width="476" height="469" rx="22.97" ry="22.97"/><path class="cls-1" d="M270.64,416.72c-1.25,0-2.5-.32-3.62-.97l-137.45-79.75c-2.22-1.29-3.59-3.66-3.59-6.23V170.25c0-2.57,1.37-4.95,3.59-6.24l137.55-79.75c2.22-1.29,4.97-1.3,7.2-.02l70.12,40.14c3.45,1.98,4.65,6.38,2.67,9.84-1.98,3.45-6.38,4.65-9.84,2.67l-66.51-38.08-130.36,75.59v151.2l130.26,75.58,75.97-43.8-30.67-18.48-41.68,24.34c-2.27,1.33-5.09,1.31-7.35-.05l-89.6-53.83c-2.17-1.3-3.5-3.65-3.5-6.18v-106.34c0-2.57,1.37-4.95,3.59-6.23l89.6-51.96c3.45-2,7.85-.82,9.85,2.62,2,3.44,.82,7.85-2.62,9.85l-86.01,49.88v98.11l82.45,49.53,31.19-18.21-34.96-21.07c-2.16-1.3-3.49-3.65-3.49-6.17v-52.01c0-2.55,1.35-4.91,3.55-6.21l92.18-54.33c2.23-1.31,4.99-1.33,7.24-.05,2.25,1.28,3.63,3.67,3.63,6.26v106.34c0,2.56-1.36,4.93-3.57,6.22l-36.32,21.21,34.39,20.72c2.19,1.32,3.51,3.69,3.49,6.24-.02,2.55-1.4,4.9-3.61,6.17l-90.17,51.99c-1.11,.64-2.36,.96-3.6,.96Zm7.21-117.61l38.22,23.03,39.55-23.09v-89.59l-77.77,45.83v43.82Z"/><path class="cls-1" d="M455.45,23.1c11,0,19.95,8.95,19.95,19.95V456.95c0,11-8.95,19.95-19.95,19.95H41.55c-11,0-19.95-8.95-19.95-19.95V43.05c0-11,8.95-19.95,19.95-19.95H455.45M455.45,0H41.55C17.78,0-1.5,19.28-1.5,43.05V456.95c0,23.78,19.28,43.05,43.05,43.05H455.45c23.78,0,43.05-19.28,43.05-43.05V43.05C498.5,19.28,479.22,0,455.45,0h0Z"/></svg>