<?xml version="1.0" encoding="UTF-8"?><svg id="Capa_1" xmlns="http://www.w3.org/2000/svg" viewBox="0 0 500 500"><defs><style>.cls-1{fill:#5757f7;}</style></defs><path class="cls-1" d="M317.72,206.41v94.6l28.17-16.27v32.43l-109.93,63.47v-32.43l68.91-39.78v-102.02s-60.52-35.12-88.06-51.01l-72.34,41.76c-1.99,1.15-3.21,3.27-3.21,5.56v90.81l-28.08,16.22v-126.93l116.35-67.18,28.07,16.21-28.16,16.26c1.16,.65,2.22,1.26,3.12,1.77,13.47,7.67,78.36,45.2,78.36,45.2,.12,0,.24-.04,.36-.04s.23,.03,.35,.04l78.28-45.2c.62-.36,1.88-.98,3.49-1.7l-78.83-45.51c-1.99-1.15-4.43-1.15-6.42,0l-37.71,21.77-37.7-21.77c-1.99-1.15-4.44-1.15-6.42,0l-122.78,70.88c-1.99,1.15-3.21,3.27-3.21,5.56v141.77c0,.09,.03,.17,.03,.25,.01,.39,.07,.77,.15,1.16,.03,.14,.05,.27,.09,.4,.14,.47,.32,.93,.57,1.37,.29,.5,.64,.96,1.05,1.37,.25,.25,.55,.44,.84,.65,.16,.12,.3,.26,.48,.37l.04,.03s0,0,0,0l122.73,70.86c.18,.1,.38,.15,.56,.23,.11,.05,.22,.1,.34,.14,.75,.29,1.52,.49,2.31,.49s1.56-.2,2.31-.49c.11-.04,.23-.09,.34-.14,.19-.08,.38-.13,.56-.23l122.78-70.88c1.99-1.15,3.21-3.27,3.21-5.56v-43.56l37.7-21.76c1.99-1.15,3.21-3.27,3.21-5.56v-91.41c-1.45,1.16-2.65,2.04-3.3,2.41l-78.64,45.4Zm-81.75,54.73l62.56,36.12-62.56,36.12v-72.24Zm-12.85,82.92s0,.04,0,.06v36.53l-103.51-59.76,31.29-18.08c1.99-1.15,3.21-3.27,3.21-5.56v-90.81l68.99-39.83v83.39s.02,.08,.02,.12v93.94Z"/></svg>