<?xml version="1.0" encoding="UTF-8"?><svg id="Capa_1" xmlns="http://www.w3.org/2000/svg" viewBox="0 0 500 500"><defs><style>.cls-1{fill:#5757f7;}</style></defs><path class="cls-1" d="M396.56,149.92l-81.85-47.26c-1.99-1.15-4.44-1.15-6.42,0l-37.71,21.77-37.71-21.77c-1.99-1.15-4.44-1.15-6.42,0l-122.78,70.89c-1.99,1.15-3.21,3.27-3.21,5.56v141.77c0,2.3,1.22,4.42,3.21,5.56l122.78,70.89c.18,.11,.38,.15,.57,.24,.1,.05,.21,.09,.31,.13,.75,.29,1.53,.49,2.33,.49s1.57-.2,2.32-.49c.11-.04,.21-.08,.32-.13,.19-.09,.39-.13,.57-.24l122.78-70.89c1.99-1.15,3.21-3.27,3.21-5.56v-43.56l37.7-21.77c1.99-1.15,3.21-3.27,3.21-5.56v-94.51c0-2.3-1.22-4.42-3.21-5.56Zm-50.55,167.25l-109.93,63.47v-32.43l78.62-45.39,31.3-18.07v32.43Zm0-47.27l-34.52,19.93-75.43-43.55v-90.81c0-.05-.01-.1-.02-.16,0-.35-.04-.69-.1-1.03-.02-.09-.04-.17-.06-.26-.07-.32-.17-.63-.29-.94-.04-.1-.08-.19-.13-.28-.08-.19-.15-.38-.25-.56-.06-.11-.14-.19-.21-.29-.05-.07-.1-.14-.15-.21-.2-.28-.41-.54-.64-.78-.04-.04-.08-.08-.12-.11-.26-.25-.53-.48-.82-.68-.05-.03-.1-.06-.15-.09-.29-.19-.59-.36-.91-.49-.08-.03-.16-.06-.24-.09-.3-.12-.61-.22-.93-.29-.1-.02-.2-.03-.31-.05-.32-.05-.63-.09-.95-.1-.05,0-.09-.01-.13-.01-.08,0-.15,.02-.23,.02-.29,.01-.59,.04-.88,.09-.16,.03-.31,.07-.46,.1-.24,.06-.47,.13-.71,.22-.19,.07-.37,.16-.55,.25-.12,.06-.25,.1-.36,.16l-81.85,47.26c-1.99,1.15-3.21,3.27-3.21,5.56v94.51c0,.09,.02,.16,.03,.25,0,.23,.03,.45,.07,.68,.03,.2,.06,.4,.11,.59,.05,.2,.11,.39,.18,.59,.07,.2,.14,.4,.23,.59,.09,.18,.19,.36,.29,.53,.11,.18,.21,.35,.33,.52,.12,.17,.26,.33,.4,.48,.14,.16,.27,.31,.43,.45,.15,.14,.3,.26,.46,.38,.18,.14,.36,.27,.56,.39,.07,.04,.13,.1,.21,.14l42.91,24.04c.99,.56,2.07,.82,3.13,.82,2.25,0,4.43-1.18,5.61-3.29,1.73-3.1,.63-7.01-2.47-8.74l-39.63-22.2v-87.04l68.99-39.83v83.39c0,2.3,1.22,4.42,3.21,5.56l72.21,41.69-72.21,41.69c-.08,.05-.14,.11-.22,.16-.14,.09-.27,.19-.4,.29-.22,.16-.43,.33-.62,.51-.08,.08-.16,.17-.23,.25-.21,.22-.41,.45-.58,.7-.05,.08-.1,.16-.15,.24-.17,.27-.33,.54-.45,.84-.04,.09-.07,.18-.1,.27-.12,.3-.22,.61-.29,.93-.02,.09-.03,.17-.04,.26-.06,.34-.1,.68-.1,1.02,0,.03,0,.06,0,.09v36.13l-109.93-63.47V182.82l116.35-67.18,116.35,67.18v87.09Zm40.91-23.62l-28.06,16.2v-83.38c0-2.3-1.22-4.42-3.21-5.56l-72.22-41.7,28.07-16.21,75.43,43.55v87.1Z"/></svg>