<?xml version="1.0" encoding="UTF-8"?><svg id="Capa_1" xmlns="http://www.w3.org/2000/svg" viewBox="0 0 500 500"><defs><style>.cls-1{fill:none;}.cls-2{fill:#fff;}.cls-3{fill:#5757f7;}</style></defs><rect class="cls-3" y=".86" width="500" height="500"/><g><polygon class="cls-1" points="281.7 137.1 275.68 140.58 275.14 140.88 268.78 144.56 344.03 188.01 344.03 274.9 343.84 275.01 343.84 275.41 350.74 271.43 381.78 253.51 381.78 253.11 381.78 166.41 306.35 122.86 281.7 137.1"/><polygon class="cls-2" points="142.85 347.43 177.33 367.34 177.33 330.63 142.85 311.32 142.85 347.43"/><path class="cls-2" d="M265.78,289.77l-75.6,43.65v41.34l28.1,16.22v-39.4c-.13-2.34,1.03-4.66,3.2-5.92l70.55-40.73-26.25-15.15Z"/><path class="cls-2" d="M221.53,156.6l34.05-19.66-30.88-17.83-40.94,23.64v35.65l37.73-21.78s.03-.01,.04-.02Z"/><path class="cls-2" d="M221.47,262.27c-1.99-1.15-3.21-3.27-3.21-5.56v-83.39l-68.99,39.83v87.04l36.93,20.69,68.39-39.48-33.12-19.12Z"/><path class="cls-2" d="M105.38,188.01v93.4l31.05,17.93v-89.89c0-1.14,.3-2.23,.85-3.19l-31.75-18.33-.15,.09Z"/><polygon class="cls-2" points="231.13 390.98 300.13 351.14 300.13 315.09 231.13 354.92 231.13 390.98"/><path class="cls-2" d="M391.41,157.14l-81.85-47.26c-1.99-1.15-4.44-1.15-6.42,0l-38.27,22.1h0s-9.45,5.51-9.45,5.51l12.45,7.2-36.75,21.22v.4l-.19,.11v87.1l75.43,43.55,37.46-21.63v14.43l-30.84,17.81v36.05l31.06-17.93v-35.7l6.9-3.98,40.48-23.34c1.37-.79,2.37-2.05,2.86-3.51,.22-.65,.35-1.34,.35-2.05v-94.51c0-2.3-1.22-4.42-3.21-5.56Zm-9.64,95.97v.4l-31.04,17.92-6.9,3.98v-.4l.19-.11v-86.9l-75.25-43.45,6.37-3.68,.53-.31,6.03-3.48,24.65-14.23,75.43,43.55v86.7Z"/></g></svg>