<?xml version="1.0" encoding="UTF-8"?><svg id="Capa_1" xmlns="http://www.w3.org/2000/svg" viewBox="0 0 500 500"><defs><style>.cls-1{fill:#5757f7;}</style></defs><path class="cls-1" d="M389.75,198.76l-89.74-51.81v-33.36c0-2.65-2.14-4.79-4.79-4.79s-4.79,2.15-4.79,4.79v34.01l-88.61,51.16c-1.48,.86-2.4,2.44-2.4,4.15v30.8l-89.18,51.49c-1.48,.86-2.4,2.44-2.4,4.15v105.74c0,1.71,.91,3.29,2.4,4.15l89.92,51.92v13.27c0,2.65,2.14,4.79,4.79,4.79s4.79-2.15,4.79-4.79v-14.13l88.43-51.05c1.48-.86,2.4-2.44,2.4-4.15v-30.8l89.18-51.49c1.48-.86,2.4-2.44,2.4-4.15v-105.74c0-1.71-.91-3.29-2.4-4.15Zm-98.76,154.46l-81.99-47.34v-61.11l81.99,47.34v61.11Zm-81.24,86v-80.65c0-2.65-2.14-4.79-4.79-4.79s-4.79,2.15-4.79,4.79v81.51l-82.73-47.77v-100.21l81.99-47.34v63.87c0,1.71,.91,3.29,2.4,4.15l89.18,51.49v28.03l-81.24,46.91Zm172.81-133.34l-81.99,47.34v-63.87c0-1.71-.91-3.29-2.4-4.15l-89.18-51.49v-28.03l81.43-47.01v25.81c0,1.71,.91,3.29,2.4,4.15l53.86,31.1-53.17,29.69c-2.31,1.29-3.14,4.21-1.85,6.52,.88,1.57,2.51,2.46,4.19,2.46,.79,0,1.59-.2,2.33-.61l60.54-33.81c1.51-.84,2.44-2.42,2.46-4.15s-.9-3.32-2.4-4.18l-58.77-33.93v-23.69l82.55,47.66v100.21Z"/><path class="cls-1" d="M206.96,502.97l-91.36-52.69c-2.3-1.32-5.23-.53-6.54,1.76-1.32,2.29-.54,5.22,1.76,6.54l91.36,52.69c.75,.43,1.58,.64,2.39,.64,1.66,0,3.27-.86,4.15-2.4,1.32-2.29,.54-5.22-1.76-6.54Z"/><path class="cls-1" d="M110.25,100.9l115.01,66.33-114.44,65.8c-2.29,1.32-3.08,4.25-1.76,6.54,.89,1.54,2.5,2.4,4.16,2.4,.81,0,1.63-.21,2.38-.64l121.66-69.95c1.48-.85,2.4-2.44,2.4-4.15s-.91-3.3-2.4-4.15L115.04,92.6c-2.3-1.32-5.22-.53-6.54,1.76-1.32,2.29-.54,5.22,1.76,6.54Z"/><path class="cls-1" d="M234.8,68.16c2.65,0,4.79-2.15,4.79-4.79V-7.12c0-2.65-2.14-4.79-4.79-4.79s-4.79,2.15-4.79,4.79V63.37c0,2.65,2.14,4.79,4.79,4.79Z"/><path class="cls-1" d="M234.8,155.07c2.65,0,4.79-2.15,4.79-4.79V82.55l58.65-33.86c2.29-1.32,3.08-4.25,1.75-6.55-1.32-2.29-4.25-3.08-6.55-1.75l-61.05,35.25c-1.48,.86-2.4,2.44-2.4,4.15v70.49c0,2.65,2.14,4.79,4.79,4.79Z"/></svg>