<?xml version="1.0" encoding="UTF-8"?><svg id="Capa_1" xmlns="http://www.w3.org/2000/svg" viewBox="0 0 500 500"><defs><style>.cls-1{fill:#fff;}.cls-2{fill:#5757f7;}</style></defs><path class="cls-1" d="M283.15,131.85l72.39,41.79c1.99,1.15,3.21,3.27,3.21,5.56v83.19l28.06-16.2v-87.1l-75.43-43.55-28.24,16.3Z"/><polygon class="cls-1" points="314.59 302.72 235.97 348.12 235.97 380.74 345.9 317.27 345.9 284.65 314.59 302.72"/><path class="cls-1" d="M223.12,380.74v-36.72s0-.04,0-.06v-93.94s-.02-.08-.02-.12v-83.39l-68.99,39.83v90.81c0,.53-.08,1.03-.2,1.52-.03,.14-.08,.27-.12,.4-.11,.36-.26,.71-.43,1.04-.07,.13-.13,.25-.2,.37-.25,.41-.53,.8-.87,1.14-.01,.02-.02,.03-.04,.05-.36,.36-.77,.66-1.21,.93-.04,.03-.08,.07-.12,.09l-31.35,18.26,103.55,59.78Z"/><path class="cls-1" d="M113.19,309.81l28.08-16.35v-90.82c0-2.3,1.22-4.42,3.21-5.56l81.85-47.26s.01,0,.02,0l31.1-17.96-27.91-16.11-116.35,67.18v126.89Z"/><polygon class="cls-1" points="235.97 261.04 235.97 333.28 298.53 297.16 235.97 261.04"/><path class="cls-1" d="M235.95,159.1v43.35c0,.05,.02,.1,.02,.16v43.6l75.41,43.54,34.52-19.93v-86.9l-75.6-43.65-34.35,19.83Z"/><path class="cls-2" d="M396.44,149.83l-81.85-47.26c-1.99-1.15-4.43-1.15-6.42,0l-37.87,21.86-37.54-21.67c-1.99-1.15-4.44-1.15-6.42,0l-122.78,70.88c-1.99,1.15-3.21,3.27-3.21,5.56v141.77c0,.09,.03,.17,.03,.26,.02,.38,.07,.76,.15,1.14,.03,.14,.06,.28,.1,.42,.13,.44,.3,.87,.53,1.28,.02,.04,.03,.08,.05,.12,0,0,0,0,0,0,.04,.07,.09,.11,.13,.17,.26,.41,.55,.81,.9,1.15,.25,.25,.54,.44,.83,.64,.17,.12,.3,.27,.48,.37l.05,.03s0,0,.01,0l122.71,70.85c.99,.57,2.1,.86,3.21,.86s2.22-.29,3.21-.86l122.78-70.88c1.99-1.15,3.21-3.27,3.21-5.56v-43.75l37.7-21.76c1.99-1.15,3.21-3.27,3.21-5.56v-94.51c0-2.3-1.22-4.42-3.21-5.56Zm-9.64,96.37l-28.06,16.2v-83.19c0-2.3-1.22-4.42-3.21-5.56l-72.39-41.79,28.24-16.3,75.43,43.55v87.1Zm-40.91,23.62l-34.52,19.93-75.41-43.54v-43.6c0-.05-.01-.1-.02-.16v-43.35l34.35-19.83,75.6,43.65v86.9Zm-194.97,32.88s.08-.07,.12-.09c.44-.27,.85-.57,1.21-.93,.02-.02,.03-.03,.04-.05,.33-.34,.62-.73,.87-1.14,.07-.12,.14-.25,.2-.37,.17-.33,.32-.68,.43-1.04,.04-.13,.09-.26,.12-.4,.12-.49,.2-1,.2-1.52v-90.81l68.99-39.83v83.39s.02,.08,.02,.12v93.94s0,.04,0,.06v36.72l-103.55-59.78,31.35-18.26Zm85.04-41.66l62.56,36.12-62.56,36.12v-72.24Zm21.48-129.19l-31.1,17.96s-.01,0-.02,0l-81.85,47.26c-1.99,1.15-3.21,3.27-3.21,5.56v90.82l-28.08,16.35v-126.89l116.35-67.18,27.91,16.11Zm-21.48,248.89v-32.62l78.62-45.39,31.3-18.07v32.62l-109.93,63.47Z"/></svg>