<?xml version="1.0" encoding="UTF-8"?><svg id="Capa_1" xmlns="http://www.w3.org/2000/svg" viewBox="0 0 500 500"><defs><style>.cls-1{fill:none;}.cls-2{fill:#fff;}.cls-3{fill:#5757f7;}</style></defs><polygon class="cls-2" points="335.05 302.72 256.42 348.12 256.42 380.74 366.35 317.27 366.35 284.65 335.05 302.72"/><path class="cls-2" d="M243.58,380.74v-36.72s0-.04,0-.06v-93.94s-.02-.08-.02-.12v-83.39l-68.99,39.83v90.81c0,.53-.08,1.03-.2,1.52-.03,.14-.08,.27-.12,.4-.11,.36-.26,.71-.43,1.04-.07,.13-.13,.25-.2,.37-.25,.41-.53,.8-.87,1.14-.01,.02-.02,.03-.04,.05-.36,.36-.77,.66-1.21,.93-.04,.03-.08,.07-.12,.09l-31.35,18.26,103.55,59.78Z"/><path class="cls-2" d="M133.65,309.81l28.08-16.35v-90.82c0-2.3,1.22-4.42,3.21-5.56l81.85-47.26s.01,0,.02,0l31.1-17.96-27.91-16.11-116.35,67.18v126.89Z"/><polygon class="cls-2" points="256.42 261.04 256.42 333.28 318.99 297.16 256.42 261.04"/><path class="cls-2" d="M256.41,159.1v43.35c0,.05,.02,.1,.02,.16v43.6l75.41,43.54,34.52-19.93v-86.9l-75.6-43.65-34.35,19.83Z"/><g><path class="cls-1" d="M250,115.74l-116.35,67.18v126.89l28.08-16.35v-90.82c0-2.3,1.22-4.42,3.21-5.56l81.85-47.26s.01,0,.02,0l31.1-17.96-27.91-16.11Z"/><path class="cls-1" d="M243.56,166.51l-68.99,39.83v90.81c0,.53-.08,1.03-.2,1.52-.03,.14-.08,.27-.12,.4-.11,.36-.26,.71-.43,1.04-.07,.13-.13,.25-.2,.37-.25,.41-.53,.8-.87,1.14-.01,.02-.03,.03-.04,.05-.36,.36-.77,.66-1.21,.93-.04,.03-.08,.07-.12,.09l-31.35,18.26,103.55,59.78v-36.72s0-.04,0-.06v-93.94s-.02-.08-.02-.12v-83.39Z"/><polygon class="cls-1" points="256.42 348.12 256.42 380.74 366.35 317.27 366.35 284.65 335.05 302.72 256.42 348.12"/><path class="cls-1" d="M256.41,159.1v43.35c0,.05,.02,.1,.02,.16v43.6l75.41,43.54,34.52-19.93v-86.9l-75.6-43.65-34.35,19.83Z"/><polygon class="cls-1" points="256.42 333.28 318.99 297.16 256.42 261.04 256.42 333.28"/><g><polygon class="cls-1" points="256.42 333.28 318.99 297.16 256.42 261.04 256.42 333.28"/><path class="cls-1" d="M256.41,159.1v43.35c0,.05,.02,.1,.02,.16v43.6l75.41,43.54,34.52-19.93v-86.9l-75.6-43.65-34.35,19.83Z"/><path class="cls-1" d="M243.56,166.51l-68.99,39.83v90.81c0,.53-.08,1.03-.2,1.52-.03,.14-.08,.27-.12,.4-.11,.36-.26,.71-.43,1.04-.07,.13-.13,.25-.2,.37-.25,.41-.53,.8-.87,1.14-.01,.02-.03,.03-.04,.05-.36,.36-.77,.66-1.21,.93-.04,.03-.08,.07-.12,.09l-31.35,18.26,103.55,59.78v-36.72s0-.04,0-.06v-93.94s-.02-.08-.02-.12v-83.39Z"/><polygon class="cls-1" points="256.42 348.12 256.42 380.74 366.35 317.27 366.35 284.65 335.05 302.72 256.42 348.12"/><path class="cls-1" d="M250,115.74l-116.35,67.18v126.89l28.08-16.35v-90.82c0-2.3,1.22-4.42,3.21-5.56l81.85-47.26s.01,0,.02,0l31.1-17.96-27.91-16.11Z"/><path class="cls-3" d="M379.2,262.4v-83.19c0-2.3-1.22-4.42-3.21-5.56l-72.39-41.79-12.85-7.42-37.54-21.67c-1.99-1.15-4.44-1.15-6.42,0l-122.78,70.88c-1.99,1.15-3.21,3.27-3.21,5.56v141.77c0,.09,.03,.17,.03,.26,.02,.38,.07,.76,.15,1.14,.03,.14,.06,.28,.1,.42,.13,.44,.3,.87,.53,1.28,.02,.04,.03,.08,.05,.12,0,0,0,0,0,0,.04,.07,.09,.11,.13,.17,.26,.41,.55,.81,.9,1.15,.25,.25,.54,.44,.83,.64,.17,.12,.3,.27,.48,.37l.05,.03s0,0,.01,0l122.71,70.85c.99,.57,2.1,.86,3.21,.86s2.22-.29,3.21-.86l122.78-70.88c1.99-1.15,3.21-3.27,3.21-5.56v-58.58Zm-135.62,81.56s0,.04,0,.06v36.72l-103.55-59.78,31.35-18.26s.08-.07,.12-.09c.44-.27,.85-.57,1.21-.93,.02-.02,.03-.03,.04-.05,.33-.34,.62-.73,.87-1.14,.07-.12,.14-.25,.2-.37,.18-.33,.32-.68,.43-1.04,.04-.13,.09-.26,.12-.4,.12-.49,.2-1,.2-1.52v-90.81l68.99-39.83v83.39s.02,.08,.02,.12v93.94Zm3.23-194.15s-.01,0-.02,0l-81.85,47.26c-1.99,1.15-3.21,3.27-3.21,5.56v90.82l-28.08,16.35v-126.89l116.35-67.18,27.91,16.11-31.1,17.96Zm119.55,167.46l-109.93,63.47v-32.62l78.62-45.39,31.3-18.07v32.62Zm-109.93,16.01v-72.24l62.56,36.12-62.56,36.12Zm109.93-63.47l-34.52,19.93-75.41-43.54v-43.6c0-.05-.01-.1-.02-.16v-43.35l34.35-19.83,75.6,43.65v86.9Z"/></g></g></svg>