<?xml version="1.0" standalone="no"?>
<!DOCTYPE svg PUBLIC "-//W3C//DTD SVG 20010904//EN"
 "http://www.w3.org/TR/2001/REC-SVG-20010904/DTD/svg10.dtd">
<svg version="1.0" xmlns="http://www.w3.org/2000/svg"
 width="512.000000pt" height="512.000000pt" viewBox="0 0 512.000000 512.000000"
 preserveAspectRatio="xMidYMid meet">
<metadata>
Created by potrace 1.14, written by Peter Selinger 2001-2017
</metadata>
<g transform="translate(0.000000,512.000000) scale(0.100000,-0.100000)"
fill="#000000" stroke="none">
<path d="M2769 4647 c-24 -13 -103 -58 -176 -100 -72 -42 -147 -85 -165 -96
-160 -91 -1343 -779 -1376 -799 -25 -16 -45 -37 -49 -52 -8 -32 -8 -2048 0
-2080 8 -31 -4 -24 453 -288 209 -121 396 -230 415 -241 19 -12 46 -27 62 -33
15 -7 27 -16 27 -20 0 -4 4 -8 9 -8 5 0 188 -104 407 -232 219 -127 413 -236
431 -241 30 -10 45 -3 239 109 114 65 228 131 253 146 25 15 53 31 61 35 8 4
47 26 85 48 39 23 90 53 115 67 73 41 309 177 396 229 49 29 85 58 92 74 14
29 7 71 -15 97 -8 9 -111 74 -229 145 -117 70 -214 131 -214 134 0 4 64 44
143 89 290 169 324 191 337 215 11 20 13 160 12 697 0 370 -1 685 -1 699 -2
51 -62 93 -113 78 -15 -4 -87 -43 -160 -86 -73 -44 -341 -202 -594 -352 -366
-215 -464 -277 -473 -299 -8 -19 -11 -134 -9 -379 3 -323 4 -353 21 -371 10
-11 117 -80 238 -152 122 -73 217 -136 212 -140 -4 -5 -90 -56 -190 -115
l-182 -106 -36 18 c-48 24 -976 583 -995 599 -13 11 -15 93 -15 626 l0 613 87
52 c47 28 106 62 130 76 23 13 142 82 263 152 121 70 294 171 385 223 267 154
265 152 265 212 0 47 -26 77 -72 86 -40 8 -19 18 -358 -179 -132 -77 -249
-145 -260 -151 -11 -6 -151 -87 -312 -180 -226 -131 -294 -175 -302 -195 -6
-16 -9 -281 -9 -713 1 -571 3 -691 15 -715 11 -21 148 -108 586 -371 315 -188
587 -346 604 -351 21 -6 39 -5 55 3 24 13 139 78 188 108 152 91 341 198 349
198 5 0 53 -27 106 -60 53 -33 98 -60 100 -60 3 0 164 -98 173 -105 1 -1 -80
-50 -180 -107 -101 -58 -316 -182 -478 -275 l-294 -170 -181 105 c-99 57 -193
112 -210 121 -16 9 -73 42 -125 73 -110 64 -825 480 -885 513 -22 13 -67 39
-100 59 -33 19 -78 46 -101 60 l-41 24 0 951 c0 681 3 954 11 960 6 5 56 35
111 66 55 32 170 98 255 148 85 49 187 108 225 130 302 173 1002 581 1009 588
6 5 18 9 28 9 9 0 205 -108 435 -239 230 -132 429 -242 443 -246 58 -13 120
64 98 124 -12 32 -15 35 -228 157 -102 58 -192 110 -200 115 -88 56 -528 299
-540 299 -9 0 -36 -10 -61 -23z m1128 -2140 l0 -563 -100 -60 c-98 -58 -152
-90 -212 -124 -16 -9 -65 -38 -108 -63 l-77 -46 -218 131 c-119 72 -228 138
-242 148 l-25 18 1 271 c1 149 3 273 5 274 8 6 204 122 224 133 11 6 160 93
330 194 171 101 321 190 335 197 19 11 72 43 86 52 1 1 1 -252 1 -562z"/>
</g>
</svg>
